<?xml version="1.0" encoding="UTF-8" standalone="no"?>
<!-- Created with Inkscape (http://www.inkscape.org/) -->

<svg
   xmlns:dc="http://purl.org/dc/elements/1.1/"
   xmlns:cc="http://creativecommons.org/ns#"
   xmlns:rdf="http://www.w3.org/1999/02/22-rdf-syntax-ns#"
   xmlns:svg="http://www.w3.org/2000/svg"
   xmlns="http://www.w3.org/2000/svg"
   xmlns:xlink="http://www.w3.org/1999/xlink"
   xmlns:sodipodi="http://sodipodi.sourceforge.net/DTD/sodipodi-0.dtd"
   xmlns:inkscape="http://www.inkscape.org/namespaces/inkscape"
   width="765"
   height="990"
   id="svg4822"
   version="1.1"
   inkscape:version="0.48.4 r9939"
   sodipodi:docname="mechanical_drawing.pdf">
  <sodipodi:namedview
     id="base"
     pagecolor="#ffffff"
     bordercolor="#666666"
     borderopacity="1.0"
     inkscape:pageopacity="0.0"
     inkscape:pageshadow="2"
     inkscape:zoom="0.7"
     inkscape:cx="630.5505"
     inkscape:cy="492.02741"
     inkscape:document-units="px"
     inkscape:current-layer="layer1"
     showgrid="false"
     units="in"
     inkscape:window-width="1918"
     inkscape:window-height="1064"
     inkscape:window-x="1600"
     inkscape:window-y="734"
     inkscape:window-maximized="0" />
  <defs
     id="defs4824">
    <marker
       inkscape:stockid="Arrow1Mstart"
       orient="auto"
       refY="0.0"
       refX="0.0"
       id="Arrow1Mstart"
       style="overflow:visible">
      <path
         id="path6831"
         d="M 0.0,0.0 L 5.0,-5.0 L -12.5,0.0 L 5.0,5.0 L 0.0,0.0 z "
         style="fill-rule:evenodd;stroke:#000000;stroke-width:1.0pt"
         transform="scale(0.4) translate(10,0)" />
    </marker>
    <marker
       inkscape:stockid="Arrow1Mend"
       orient="auto"
       refY="0.0"
       refX="0.0"
       id="Arrow1Mend"
       style="overflow:visible;">
      <path
         id="path6834"
         d="M 0.0,0.0 L 5.0,-5.0 L -12.5,0.0 L 5.0,5.0 L 0.0,0.0 z "
         style="fill-rule:evenodd;stroke:#000000;stroke-width:1.0pt;"
         transform="scale(0.4) rotate(180) translate(10,0)" />
    </marker>
    <marker
       inkscape:stockid="Arrow1Lstart"
       orient="auto"
       refY="0.0"
       refX="0.0"
       id="Arrow1Lstart"
       style="overflow:visible">
      <path
         id="path6825"
         d="M 0.0,0.0 L 5.0,-5.0 L -12.5,0.0 L 5.0,5.0 L 0.0,0.0 z "
         style="fill-rule:evenodd;stroke:#000000;stroke-width:1.0pt"
         transform="scale(0.8) translate(12.5,0)" />
    </marker>
    <marker
       inkscape:stockid="Arrow1Mstart"
       orient="auto"
       refY="0"
       refX="0"
       id="Arrow1Mstart-2"
       style="overflow:visible">
      <path
         inkscape:connector-curvature="0"
         id="path6831-2"
         d="M 0,0 5,-5 -12.5,0 5,5 0,0 z"
         style="fill-rule:evenodd;stroke:#000000;stroke-width:1pt"
         transform="matrix(0.4,0,0,0.4,4,0)" />
    </marker>
    <marker
       inkscape:stockid="Arrow1Mend"
       orient="auto"
       refY="0"
       refX="0"
       id="Arrow1Mend-0"
       style="overflow:visible">
      <path
         inkscape:connector-curvature="0"
         id="path6834-4"
         d="M 0,0 5,-5 -12.5,0 5,5 0,0 z"
         style="fill-rule:evenodd;stroke:#000000;stroke-width:1pt"
         transform="matrix(-0.4,0,0,-0.4,-4,0)" />
    </marker>
    <marker
       inkscape:stockid="Arrow1Mstart0"
       orient="auto"
       refY="0.0"
       refX="0.0"
       id="Arrow1Mstart0"
       style="overflow:visible">
      <path
         id="path8912"
         d="M 0.0,0.0 L 5.0,-5.0 L -12.5,0.0 L 5.0,5.0 L 0.0,0.0 z "
         style="stroke:#6f1f1f;stroke-width:1.0pt;fill:#6f1f1f;fill-rule:evenodd"
         transform="scale(0.4) translate(10,0)" />
    </marker>
    <marker
       inkscape:stockid="Arrow1MendA"
       orient="auto"
       refY="0.0"
       refX="0.0"
       id="Arrow1MendA"
       style="overflow:visible;">
      <path
         id="path8915"
         d="M 0.0,0.0 L 5.0,-5.0 L -12.5,0.0 L 5.0,5.0 L 0.0,0.0 z "
         style="stroke:#6f1f1f;stroke-width:1.0pt;fill:#6f1f1f;fill-rule:evenodd"
         transform="scale(0.4) rotate(180) translate(10,0)" />
    </marker>
    <path
       style="fill:none;stroke:#800000;stroke-width:1;stroke-linecap:butt;stroke-linejoin:miter;stroke-miterlimit:4;stroke-opacity:1;stroke-dasharray:none;marker-start:url(#Arrow1Mstart);marker-mid:none;marker-end:url(#Arrow1Mend)"
       d="m 340.07143,84.194213 0,807.416057"
       id="path6637-8"
       inkscape:connector-curvature="0" />
    <marker
       inkscape:stockid="Arrow1Mstart"
       orient="auto"
       refY="0"
       refX="0"
       id="Arrow1Mstart-3"
       style="overflow:visible">
      <path
         inkscape:connector-curvature="0"
         id="path6831-3"
         d="M 0,0 5,-5 -12.5,0 5,5 0,0 z"
         style="fill-rule:evenodd;stroke:#000000;stroke-width:1pt"
         transform="matrix(0.4,0,0,0.4,4,0)" />
    </marker>
    <marker
       inkscape:stockid="Arrow1Mend"
       orient="auto"
       refY="0"
       refX="0"
       id="Arrow1Mend-5"
       style="overflow:visible">
      <path
         inkscape:connector-curvature="0"
         id="path6834-9"
         d="M 0,0 5,-5 -12.5,0 5,5 0,0 z"
         style="fill-rule:evenodd;stroke:#000000;stroke-width:1pt"
         transform="matrix(-0.4,0,0,-0.4,-4,0)" />
    </marker>
    <marker
       inkscape:stockid="Arrow1Mstarts"
       orient="auto"
       refY="0.0"
       refX="0.0"
       id="Arrow1Mstarts"
       style="overflow:visible">
      <path
         id="path9901"
         d="M 0.0,0.0 L 5.0,-5.0 L -12.5,0.0 L 5.0,5.0 L 0.0,0.0 z "
         style="stroke:#800000;stroke-width:1.0pt;fill:#800000;fill-rule:evenodd"
         transform="scale(0.4) translate(10,0)" />
    </marker>
    <marker
       inkscape:stockid="Arrow1Mendg"
       orient="auto"
       refY="0.0"
       refX="0.0"
       id="Arrow1Mendg"
       style="overflow:visible;">
      <path
         id="path9904"
         d="M 0.0,0.0 L 5.0,-5.0 L -12.5,0.0 L 5.0,5.0 L 0.0,0.0 z "
         style="stroke:#800000;stroke-width:1.0pt;fill:#800000;fill-rule:evenodd"
         transform="scale(0.4) rotate(180) translate(10,0)" />
    </marker>
    <path
       style="fill:#800000;stroke:#800000;stroke-width:1.10006595;stroke-linecap:butt;stroke-linejoin:miter;stroke-miterlimit:4;stroke-opacity:1;stroke-dasharray:none;marker-start:url(#Arrow1Mstart0);marker-mid:none;marker-end:url(#Arrow1MendA)"
       d="M 276.9286,84.451908 276.80227,239.57631"
       id="path6637-1-8"
       inkscape:connector-curvature="0"
       sodipodi:nodetypes="cc" />
    <marker
       inkscape:stockid="Arrow1Mstart0"
       orient="auto"
       refY="0"
       refX="0"
       id="Arrow1Mstart0-1"
       style="overflow:visible">
      <path
         inkscape:connector-curvature="0"
         id="path8912-6"
         d="M 0,0 5,-5 -12.5,0 5,5 0,0 z"
         style="fill:#6f1f1f;fill-rule:evenodd;stroke:#6f1f1f;stroke-width:1pt"
         transform="matrix(0.4,0,0,0.4,4,0)" />
    </marker>
    <marker
       inkscape:stockid="Arrow1MendA"
       orient="auto"
       refY="0"
       refX="0"
       id="Arrow1MendA-3"
       style="overflow:visible">
      <path
         inkscape:connector-curvature="0"
         id="path8915-6"
         d="M 0,0 5,-5 -12.5,0 5,5 0,0 z"
         style="fill:#6f1f1f;fill-rule:evenodd;stroke:#6f1f1f;stroke-width:1pt"
         transform="matrix(-0.4,0,0,-0.4,-4,0)" />
    </marker>
    <path
       style="fill:#800000;stroke:#800000;stroke-width:1.10006595;stroke-linecap:butt;stroke-linejoin:miter;stroke-miterlimit:4;stroke-opacity:1;stroke-dasharray:none;marker-start:url(#Arrow1Mstart0);marker-mid:none;marker-end:url(#Arrow1MendA)"
       d="M 276.9286,84.451908 276.80227,239.57631"
       id="path6637-1-7"
       inkscape:connector-curvature="0"
       sodipodi:nodetypes="cc" />
    <marker
       inkscape:stockid="Arrow1Mstart0"
       orient="auto"
       refY="0"
       refX="0"
       id="Arrow1Mstart0-2"
       style="overflow:visible">
      <path
         id="path8912-5"
         d="M 0,0 5,-5 -12.5,0 5,5 0,0 z"
         style="fill:#6f1f1f;fill-rule:evenodd;stroke:#6f1f1f;stroke-width:1pt"
         transform="matrix(0.4,0,0,0.4,4,0)"
         inkscape:connector-curvature="0" />
    </marker>
    <marker
       inkscape:stockid="Arrow1MendA"
       orient="auto"
       refY="0"
       refX="0"
       id="Arrow1MendA-4"
       style="overflow:visible">
      <path
         id="path8915-69"
         d="M 0,0 5,-5 -12.5,0 5,5 0,0 z"
         style="fill:#6f1f1f;fill-rule:evenodd;stroke:#6f1f1f;stroke-width:1pt"
         transform="matrix(-0.4,0,0,-0.4,-4,0)"
         inkscape:connector-curvature="0" />
    </marker>
    <path
       style="fill:#800000;stroke:#800000;stroke-width:1;stroke-linecap:butt;stroke-linejoin:miter;stroke-miterlimit:4;stroke-opacity:1;stroke-dasharray:none;marker-start:url(#Arrow1Mstart0);marker-mid:none;marker-end:url(#Arrow1MendA)"
       d="M 319.30754,927.26755 74.463323,927.14889"
       id="path10438-6"
       inkscape:connector-curvature="0"
       sodipodi:nodetypes="cc" />
    <marker
       inkscape:stockid="Arrow1Mstart0"
       orient="auto"
       refY="0"
       refX="0"
       id="Arrow1Mstart0-9"
       style="overflow:visible">
      <path
         inkscape:connector-curvature="0"
         id="path8912-8"
         d="M 0,0 5,-5 -12.5,0 5,5 0,0 z"
         style="fill:#6f1f1f;fill-rule:evenodd;stroke:#6f1f1f;stroke-width:1pt"
         transform="matrix(0.4,0,0,0.4,4,0)" />
    </marker>
    <marker
       inkscape:stockid="Arrow1MendA"
       orient="auto"
       refY="0"
       refX="0"
       id="Arrow1MendA-2"
       style="overflow:visible">
      <path
         inkscape:connector-curvature="0"
         id="path8915-1"
         d="M 0,0 5,-5 -12.5,0 5,5 0,0 z"
         style="fill:#6f1f1f;fill-rule:evenodd;stroke:#6f1f1f;stroke-width:1pt"
         transform="matrix(-0.4,0,0,-0.4,-4,0)" />
    </marker>
    <path
       style="fill:#800000;stroke:#800000;stroke-width:1;stroke-linecap:butt;stroke-linejoin:miter;stroke-miterlimit:4;stroke-opacity:1;stroke-dasharray:none;marker-start:url(#Arrow1Mstart0);marker-mid:none;marker-end:url(#Arrow1MendA)"
       d="M 319.30754,927.26755 74.463323,927.14889"
       id="path10438-6-1"
       inkscape:connector-curvature="0"
       sodipodi:nodetypes="cc" />
    <marker
       inkscape:stockid="Arrow1Mstart0"
       orient="auto"
       refY="0"
       refX="0"
       id="Arrow1Mstart0-5"
       style="overflow:visible">
      <path
         inkscape:connector-curvature="0"
         id="path8912-4"
         d="M 0,0 5,-5 -12.5,0 5,5 0,0 z"
         style="fill:#6f1f1f;fill-rule:evenodd;stroke:#6f1f1f;stroke-width:1pt"
         transform="matrix(0.4,0,0,0.4,4,0)" />
    </marker>
    <marker
       inkscape:stockid="Arrow1MendA"
       orient="auto"
       refY="0"
       refX="0"
       id="Arrow1MendA-1"
       style="overflow:visible">
      <path
         inkscape:connector-curvature="0"
         id="path8915-63"
         d="M 0,0 5,-5 -12.5,0 5,5 0,0 z"
         style="fill:#6f1f1f;fill-rule:evenodd;stroke:#6f1f1f;stroke-width:1pt"
         transform="matrix(-0.4,0,0,-0.4,-4,0)" />
    </marker>
  </defs>
  <metadata
     id="metadata4827">
    <rdf:RDF>
      <cc:Work
         rdf:about="">
        <dc:format>image/svg+xml</dc:format>
        <dc:type
           rdf:resource="http://purl.org/dc/dcmitype/StillImage" />
        <dc:title></dc:title>
      </cc:Work>
    </rdf:RDF>
  </metadata>
  <g
     transform="translate(0,-62.35975)"
     id="layer1"
     inkscape:groupmode="layer"
     inkscape:label="Layer 1">
    <path
       inkscape:connector-curvature="0"
       id="rect4024-4"
       d="m 65.840058,95.50045 0,10.34375 c 0.25353,0 0.46875,0.21522 0.46875,0.46875 0,0.25353 -0.21522,0.4375 -0.46875,0.4375 -0.25352,0 -0.46875,-0.18397 -0.46875,-0.4375 l -23.125,0 0,12.5625 10.34375,0 c 0,-0.25353 0.21523,-0.4375 0.46875,-0.4375 0.25353,0 0.4375,0.18397 0.4375,0.4375 0,0.25353 -0.18397,0.46875 -0.4375,0.46875 l 0,21.65625 c 0.25353,0 0.4375,0.21521 0.4375,0.46875 0,0.25352 -0.18397,0.4375 -0.4375,0.4375 -0.25352,0 -0.46875,-0.18398 -0.46875,-0.4375 l -10.34375,0 0,23.65625 10.34375,0 c 0,-0.25353 0.21523,-0.46875 0.46875,-0.46875 0.25353,0 0.4375,0.21522 0.4375,0.46875 0,0.25353 -0.18397,0.46875 -0.4375,0.46875 l 0,21.65625 c 0.25353,0 0.4375,0.18396 0.4375,0.4375 0,0.25352 -0.18397,0.46875 -0.4375,0.46875 -0.25352,0 -0.46875,-0.21523 -0.46875,-0.46875 l -10.34375,0 0,23.65625 10.34375,0 c 0,-0.25353 0.21523,-0.4375 0.46875,-0.4375 0.25353,0 0.4375,0.18397 0.4375,0.4375 0,0.25352 -0.18397,0.46875 -0.4375,0.46875 l 0,21.65625 c 0.25353,0 0.4375,0.21521 0.4375,0.46875 0,0.25352 -0.18397,0.4375 -0.4375,0.4375 -0.25352,0 -0.46875,-0.18398 -0.46875,-0.4375 l -10.34375,0 0,23.65625 10.34375,0 c 0,-0.25353 0.21523,-0.46875 0.46875,-0.46875 0.25353,0 0.4375,0.21522 0.4375,0.46875 0,0.25352 -0.18397,0.46875 -0.4375,0.46875 l 0,21.6562 c 0.25353,0 0.4375,0.184 0.4375,0.4376 0,0.2535 -0.18397,0.4687 -0.4375,0.4687 -0.25352,0 -0.46875,-0.2153 -0.46875,-0.4687 l -10.34375,0 0,23.6562 10.34375,0 c 0,-0.2535 0.21523,-0.4375 0.46875,-0.4375 0.25353,0 0.4375,0.184 0.4375,0.4375 0,0.2535 -0.18397,0.4688 -0.4375,0.4688 l 0,21.6562 c 0.25353,0 0.4375,0.2152 0.4375,0.4688 0,0.2534 -0.18397,0.4374 -0.4375,0.4374 -0.25352,0 -0.46875,-0.184 -0.46875,-0.4374 l -10.34375,0 0,23.6562 10.34375,0 c 0,-0.2535 0.21523,-0.4688 0.46875,-0.4688 0.25353,0 0.4375,0.2153 0.4375,0.4688 0,0.2535 -0.18397,0.4375 -0.4375,0.4375 l 0,21.6875 c 0.25353,0 0.4375,0.184 0.4375,0.4375 0,0.2535 -0.18397,0.4687 -0.4375,0.4687 -0.25352,0 -0.46875,-0.2152 -0.46875,-0.4687 l -10.34375,0 0,23.6563 10.34375,0 c 0,-0.2537 0.21523,-0.4376 0.46875,-0.4376 0.25353,0 0.4375,0.184 0.4375,0.4376 0,0.2534 -0.18397,0.4687 -0.4375,0.4687 l 0,21.6563 c 0.25353,0 0.4375,0.2152 0.4375,0.4687 0,0.2535 -0.18397,0.4375 -0.4375,0.4375 -0.25352,0 -0.46875,-0.184 -0.46875,-0.4375 l -10.34375,0 0,23.6563 10.34375,0 c 0,-0.2537 0.21523,-0.4688 0.46875,-0.4688 0.25353,0 0.4375,0.2152 0.4375,0.4688 0,0.2534 -0.18397,0.4374 -0.4375,0.4374 l 0,21.6876 c 0.25353,0 0.4375,0.1838 0.4375,0.4374 0,0.2537 -0.18397,0.4688 -0.4375,0.4688 -0.25352,0 -0.46875,-0.2151 -0.46875,-0.4688 l -10.34375,0 0,23.6563 10.34375,0 c 0,-0.2536 0.21523,-0.4375 0.46875,-0.4375 0.25353,0 0.4375,0.1839 0.4375,0.4375 0,0.2535 -0.18397,0.4687 -0.4375,0.4687 l 0,21.6563 c 0.25353,0 0.4375,0.2151 0.4375,0.4687 0,0.2537 -0.18397,0.4376 -0.4375,0.4376 -0.25352,0 -0.46875,-0.184 -0.46875,-0.4376 l -10.34375,0 0,23.6563 10.34375,0 c 0,-0.2536 0.21523,-0.4687 0.46875,-0.4687 0.25353,0 0.4375,0.2151 0.4375,0.4687 0,0.2535 -0.18397,0.4375 -0.4375,0.4375 l 0,21.6875 c 0.25353,0 0.4375,0.184 0.4375,0.4375 0,0.2536 -0.18397,0.4688 -0.4375,0.4688 -0.25352,0 -0.46875,-0.2152 -0.46875,-0.4688 l -10.34375,0 0,23.6562 10.34375,0 c 0,-0.2534 0.21523,-0.4376 0.46875,-0.4374 0.25353,0 0.4375,0.184 0.4375,0.4374 0,0.2538 -0.18397,0.4688 -0.4375,0.4688 l 0,21.6562 c 0.25353,0 0.4375,0.2153 0.4375,0.4688 0,0.2536 -0.18397,0.4375 -0.4375,0.4375 -0.25352,0 -0.46875,-0.1839 -0.46875,-0.4375 l -10.34375,0 0,23.6562 10.34375,0 c 0,-0.2536 0.21523,-0.4687 0.46875,-0.4687 0.25353,0 0.4375,0.2151 0.4375,0.4687 0,0.2537 -0.18397,0.4376 -0.4375,0.4376 l 0,21.6874 c 0.25353,0 0.4375,0.1839 0.4375,0.4376 0,0.2534 -0.18397,0.4687 -0.4375,0.4687 -0.25352,0 -0.46875,-0.2152 -0.46875,-0.4687 l -10.34375,0 0,23.6562 10.34375,0 c 0,-0.2536 0.21523,-0.4375 0.46875,-0.4375 0.25353,0 0.4375,0.1839 0.4375,0.4375 0,0.2535 -0.18397,0.4688 -0.4375,0.4688 l 0,21.6562 c 0.25353,0 0.4375,0.2151 0.4375,0.4688 0,0.2534 -0.18397,0.4375 -0.4375,0.4374 -0.25352,0 -0.46875,-0.1839 -0.46875,-0.4374 l -10.34375,0 0,23.6562 10.34375,0 c 0,-0.2536 0.21523,-0.4688 0.46875,-0.4688 0.25353,0 0.4375,0.2152 0.4375,0.4688 0,0.2535 -0.18397,0.4375 -0.4375,0.4375 l 0,21.6875 c 0.25353,0 0.4375,0.1839 0.4375,0.4375 0,0.2535 -0.18397,0.4688 -0.4375,0.4687 -0.25352,0 -0.46875,-0.2152 -0.46875,-0.4687 l -10.34375,0 0,23.6563 10.34375,0 c 0,-0.2538 0.21523,-0.4376 0.46875,-0.4376 0.25353,0 0.4375,0.1839 0.4375,0.4376 0,0.2534 -0.18397,0.4687 -0.4375,0.4687 l 0,21.6563 c 0.25353,0 0.4375,0.2151 0.4375,0.4687 0,0.2535 -0.18397,0.4375 -0.4375,0.4375 -0.25352,0 -0.46875,-0.184 -0.46875,-0.4375 l -10.34375,0 0,23.6563 10.34375,0 c 0,-0.2538 0.21523,-0.4688 0.46875,-0.4688 0.25353,0 0.4375,0.2151 0.4375,0.4688 0,0.2534 -0.18397,0.4375 -0.4375,0.4374 l 0,21.6876 c 0.25353,0 0.4375,0.184 0.4375,0.4374 0,0.2538 -0.18397,0.4688 -0.4375,0.4688 -0.25352,0 -0.46875,-0.2151 -0.46875,-0.4688 l -10.34375,0 0,23.6563 10.34375,0 c 0,-0.2535 0.21523,-0.4375 0.46875,-0.4375 0.25353,0 0.4375,0.184 0.4375,0.4375 0,0.2536 -0.18397,0.4687 -0.4375,0.4687 l 0,21.6563 c 0.25353,0 0.4375,0.2153 0.4375,0.4687 0,0.2538 -0.18397,0.4376 -0.4375,0.4376 -0.25352,0 -0.46875,-0.1839 -0.46875,-0.4376 l -10.34375,0 0,12.5938 26.687502,0 c 0,-0.2535 0.18398,-0.4688 0.4375,-0.4688 0.25353,0 0.46875,0.2153 0.46875,0.4688 0,0.2535 -0.21522,0.4375 -0.46875,0.4375 l 0,10.3437 27.9375,0 0,-10.3437 c -0.25352,0 -0.4375,-0.184 -0.4375,-0.4375 0,-0.2535 0.18398,-0.4688 0.4375,-0.4688 0.25353,0 0.46875,0.2153 0.46875,0.4688 l 25.9375,0 c 0,-0.2535 0.21523,-0.4688 0.46875,-0.4688 0.25353,0 0.46875,0.2153 0.46875,0.4688 0,0.2535 -0.21522,0.4375 -0.46875,0.4375 l 0,10.3437 27.9375,0 0,-10.3437 c -0.25352,0 -0.46875,-0.184 -0.46875,-0.4375 0,-0.2535 0.21523,-0.4688 0.46875,-0.4688 0.25353,0 0.46875,0.2153 0.46875,0.4688 l 25.9375,0 c 0,-0.2535 0.21523,-0.4688 0.46875,-0.4688 0.25353,0 0.4375,0.2153 0.4375,0.4688 0,0.2535 -0.18397,0.4375 -0.4375,0.4375 l 0,10.3437 27.9375,0 0,-10.3437 c -0.25352,0 -0.46875,-0.184 -0.46875,-0.4375 0,-0.2535 0.21523,-0.4688 0.46875,-0.4688 0.25353,0 0.4375,0.2153 0.4375,0.4688 l 25.9375,0 c 0,-0.2535 0.21523,-0.4688 0.46875,-0.4688 0.25353,0 0.46875,0.2153 0.46875,0.4688 0,0.2535 -0.21522,0.4375 -0.46875,0.4375 l 0,10.3437 27.9375,0 0,-10.3437 c -0.25352,0 -0.4375,-0.184 -0.4375,-0.4375 0,-0.2535 0.18398,-0.4688 0.4375,-0.4688 0.25353,0 0.46875,0.2153 0.46875,0.4688 l 26.65625,0 0,-12.5938 -10.34375,0 c 0,0.2552 -0.18397,0.4375 -0.4375,0.4376 -0.25352,0 -0.46875,-0.184 -0.46875,-0.4376 0,-0.2527 0.21523,-0.4687 0.46875,-0.4687 l 0,-21.6563 c -0.25352,0 -0.46875,-0.2152 -0.46875,-0.4687 0,-0.2535 0.21523,-0.4375 0.46875,-0.4375 0.25353,0 0.4375,0.184 0.4375,0.4375 l 10.34375,0 0,-23.6563 -10.34375,0 c 0,0.255 -0.18397,0.4688 -0.4375,0.4688 -0.25352,0 -0.46875,-0.2152 -0.46875,-0.4688 0,-0.2527 0.21523,-0.4375 0.46875,-0.4374 l 0,-21.6876 c -0.25352,0 -0.46875,-0.1839 -0.46875,-0.4374 0,-0.2549 0.21523,-0.4688 0.46875,-0.4688 0.25353,0 0.4375,0.2152 0.4375,0.4688 l 10.34375,0 0,-23.6563 -10.34375,0 c 0,0.2535 -0.18397,0.4375 -0.4375,0.4375 -0.25352,0 -0.46875,-0.184 -0.46875,-0.4375 0,-0.2535 0.21523,-0.4687 0.46875,-0.4687 l 0,-21.6563 c -0.25352,0 -0.46875,-0.2152 -0.46875,-0.4687 0,-0.2547 0.21523,-0.4375 0.46875,-0.4376 0.25353,0 0.4375,0.184 0.4375,0.4376 l 10.34375,0 0,-23.6563 -10.34375,0 c 0,0.2535 -0.18397,0.4688 -0.4375,0.4687 -0.25352,0 -0.46875,-0.2152 -0.46875,-0.4687 0,-0.2535 0.21523,-0.4375 0.46875,-0.4375 l 0,-21.6875 c -0.25352,0 -0.46875,-0.184 -0.46875,-0.4375 0,-0.2535 0.21523,-0.4688 0.46875,-0.4688 0.25353,0 0.4375,0.2153 0.4375,0.4688 l 10.34375,0 0,-23.6562 -10.34375,0 c 0,0.2527 -0.18397,0.4375 -0.4375,0.4374 -0.25352,0 -0.46875,-0.1839 -0.46875,-0.4374 0,-0.2544 0.21523,-0.4688 0.46875,-0.4688 l 0,-21.6562 c -0.25352,0 -0.46875,-0.2153 -0.46875,-0.4688 0,-0.2535 0.21523,-0.4375 0.46875,-0.4375 0.25353,0 0.4375,0.184 0.4375,0.4375 l 10.34375,0 0,-23.6562 -10.34375,0 c 0,0.2529 -0.18397,0.4687 -0.4375,0.4687 -0.25352,0 -0.46875,-0.2152 -0.46875,-0.4687 0,-0.2542 0.21523,-0.4375 0.46875,-0.4376 l 0,-21.6874 c -0.25352,0 -0.46875,-0.1838 -0.46875,-0.4376 0,-0.253 0.21523,-0.4687 0.46875,-0.4687 0.25353,0 0.4375,0.2153 0.4375,0.4687 l 10.34375,0 0,-23.6562 -10.34375,0 c 0,0.2535 -0.18397,0.4375 -0.4375,0.4375 -0.25352,0 -0.46875,-0.184 -0.46875,-0.4375 0,-0.2536 0.21523,-0.4688 0.46875,-0.4688 l 0,-21.6562 c -0.25352,0 -0.46875,-0.215 -0.46875,-0.4688 0,-0.2536 0.21523,-0.4374 0.46875,-0.4374 0.25353,0 0.4375,0.1838 0.4375,0.4374 l 10.34375,0 0,-23.6562 -10.34375,0 c 0,0.2535 -0.18397,0.4688 -0.4375,0.4688 -0.25352,0 -0.46875,-0.2153 -0.46875,-0.4688 0,-0.2535 0.21523,-0.4375 0.46875,-0.4375 l 0,-21.6875 c -0.25352,0 -0.46875,-0.184 -0.46875,-0.4375 0,-0.2535 0.21523,-0.4687 0.46875,-0.4687 0.25353,0 0.4375,0.2152 0.4375,0.4687 l 10.34375,0 0,-23.6563 -10.34375,0 c 0,0.2539 -0.18397,0.4376 -0.4375,0.4376 -0.25352,0 -0.46875,-0.1838 -0.46875,-0.4376 0,-0.2532 0.21523,-0.4687 0.46875,-0.4687 l 0,-21.6563 c -0.25352,0 -0.46875,-0.2152 -0.46875,-0.4687 0,-0.2535 0.21523,-0.4375 0.46875,-0.4375 0.25353,0 0.4375,0.184 0.4375,0.4375 l 10.34375,0 0,-23.6563 -10.34375,0 c 0,0.2539 -0.18397,0.4688 -0.4375,0.4688 -0.25352,0 -0.46875,-0.215 -0.46875,-0.4688 0,-0.2532 0.21523,-0.4374 0.46875,-0.4374 l 0,-21.6876 c -0.25352,0 -0.46875,-0.184 -0.46875,-0.4374 0,-0.2539 0.21523,-0.4688 0.46875,-0.4688 0.25353,0 0.4375,0.215 0.4375,0.4688 l 10.34375,0 0,-23.6563 -10.34375,0 c 0,0.2535 -0.18397,0.4375 -0.4375,0.4375 -0.25352,0 -0.46875,-0.184 -0.46875,-0.4375 0,-0.2535 0.21523,-0.4687 0.46875,-0.4687 l 0,-21.6563 c -0.25352,0 -0.46875,-0.2153 -0.46875,-0.4687 0,-0.2539 0.21523,-0.4376 0.46875,-0.4376 0.25353,0 0.4375,0.1838 0.4375,0.4376 l 10.34375,0 0,-23.6563 -10.34375,0 c 0,0.2535 -0.18397,0.4687 -0.4375,0.4687 -0.25352,0 -0.46875,-0.2152 -0.46875,-0.4687 0,-0.2535 0.21523,-0.4375 0.46875,-0.4375 l 0,-21.6875 c -0.25352,0 -0.46875,-0.184 -0.46875,-0.4375 0,-0.2535 0.21523,-0.4686 0.46875,-0.4688 0.25353,0 0.4375,0.2153 0.4375,0.4688 l 10.34375,0 0,-23.6562 -10.34375,0 c 0,0.2532 -0.18397,0.4374 -0.4375,0.4374 -0.25352,0 -0.46875,-0.184 -0.46875,-0.4374 0,-0.2539 0.21523,-0.4688 0.46875,-0.4688 l 0,-21.6562 c -0.25352,0 -0.46875,-0.2153 -0.46875,-0.4688 0,-0.2535 0.21523,-0.4375 0.46875,-0.4375 0.25353,0 0.4375,0.184 0.4375,0.4375 l 10.34375,0 0,-23.6562 -10.34375,0 c 0,0.2535 -0.18397,0.4687 -0.4375,0.4687 -0.25352,0 -0.46875,-0.2153 -0.46875,-0.4687 0,-0.2537 0.21523,-0.4376 0.46875,-0.4376 l 0,-21.6562 c -0.25352,0 -0.46875,-0.21523 -0.46875,-0.46875 0,-0.25354 0.21523,-0.46875 0.46875,-0.46875 0.25353,0 0.4375,0.21521 0.4375,0.46875 l 10.34375,0 0,-23.65625 -10.34375,0 c 0,0.25352 -0.18397,0.4375 -0.4375,0.4375 -0.25352,0 -0.46875,-0.18398 -0.46875,-0.4375 0,-0.25354 0.21523,-0.46875 0.46875,-0.46875 l 0,-21.65625 c -0.25352,0 -0.46875,-0.21523 -0.46875,-0.46875 0,-0.25354 0.21523,-0.4375 0.46875,-0.4375 0.25353,0 0.4375,0.18396 0.4375,0.4375 l 10.34375,0 0,-23.65625 -10.34375,0 c 0,0.25352 -0.18397,0.46875 -0.4375,0.46875 -0.25352,0 -0.46875,-0.21523 -0.46875,-0.46875 0,-0.25354 0.21523,-0.4375 0.46875,-0.4375 l 0,-21.65625 c -0.25352,0 -0.46875,-0.21523 -0.46875,-0.46875 0,-0.25354 0.21523,-0.46875 0.46875,-0.46875 0.25353,0 0.4375,0.21521 0.4375,0.46875 l 10.34375,0 0,-23.65625 -10.34375,0 c 0,0.25352 -0.18397,0.4375 -0.4375,0.4375 -0.25352,0 -0.46875,-0.18398 -0.46875,-0.4375 0,-0.25354 0.21523,-0.46875 0.46875,-0.46875 l 0,-21.65625 c -0.25352,0 -0.46875,-0.21523 -0.46875,-0.46875 0,-0.25354 0.21523,-0.4375 0.46875,-0.4375 0.25353,0 0.4375,0.18396 0.4375,0.4375 l 10.34375,0 0,-12.5625 -23.125,0 c 0,0.25353 -0.18397,0.4375 -0.4375,0.4375 -0.25352,0 -0.46875,-0.18397 -0.46875,-0.4375 0,-0.25353 0.21523,-0.46875 0.46875,-0.46875 l 0,-10.34375 -9.71875,0 0,157.5 -180,0 0,-157.5 -9.718752,0 z"
       style="fill:none;stroke:#000000;stroke-width:2;stroke-miterlimit:4;stroke-opacity:1;stroke-dasharray:none" />
    <path
       inkscape:connector-curvature="0"
       id="rect4009-8"
       d="m 75.52756,385.46915 0,67.5 21.75,0 0,10.3438 c -0.25352,0 -0.4375,0.2152 -0.4375,0.4688 0,0.2536 0.18398,0.4687 0.4375,0.4687 0.25353,0 0.46875,-0.2151 0.46875,-0.4687 l 25.96875,0 c 0,0.2536 0.18398,0.4687 0.4375,0.4687 0.25353,0 0.46875,-0.2151 0.46875,-0.4687 0,-0.2536 -0.21522,-0.4688 -0.46875,-0.4688 l 0,-10.3438 27.9375,0 0,10.3438 c -0.25352,0 -0.4375,0.2152 -0.4375,0.4688 0,0.2536 0.18398,0.4687 0.4375,0.4687 0.25353,0 0.46875,-0.2151 0.46875,-0.4687 l 25.9375,0 c 0,0.2536 0.18398,0.4687 0.4375,0.4687 0.25353,0 0.46875,-0.2151 0.46875,-0.4687 0,-0.2536 -0.21522,-0.4688 -0.46875,-0.4688 l 0,-10.3438 27.9375,0 0,10.3438 c -0.25352,0 -0.4375,0.2152 -0.4375,0.4688 0,0.2536 0.18398,0.4687 0.4375,0.4687 0.25353,0 0.46875,-0.2151 0.46875,-0.4687 l 25.96875,0 c 0,0.2536 0.18398,0.4687 0.4375,0.4687 0.25353,0 0.46875,-0.2151 0.46875,-0.4687 0,-0.2536 -0.21522,-0.4688 -0.46875,-0.4688 l 0,-10.3438 21.78125,0 0,-67.5 -180,0 z"
       style="fill:none;stroke:#000000;stroke-width:2;stroke-miterlimit:4;stroke-opacity:1;stroke-dasharray:none" />
    <path
       inkscape:connector-curvature="0"
       id="path3050-2-5"
       d="m 124.24691,630.22631 c -6.24647,-0.78549 -10.3212,-4.1148 -11.8281,-9.66432 -0.43055,-1.58557 -0.80044,-4.20329 -0.80044,-5.66469 l 0,-0.92583 4.18043,0 4.18041,0 0.11938,1.59919 c 0.30133,4.03935 1.93185,6.97081 4.52195,8.1298 1.42045,0.63561 4.66777,0.64914 6.03212,0.025 3.27233,-1.49666 4.82234,-5.03907 4.60358,-10.52097 -0.16232,-4.06669 -1.09605,-6.35395 -3.14813,-7.71169 -1.54042,-1.01919 -2.61069,-1.25956 -6.0501,-1.35883 l -3.08371,-0.0889 0,-3.06255 0,-3.0625 2.69219,-0.0789 c 3.2685,-0.0957 4.44343,-0.46787 5.88306,-1.86296 1.66861,-1.61699 2.44445,-3.92032 2.45981,-7.30257 0.0237,-5.20764 -2.29215,-8.20299 -6.36251,-8.22968 -4.09695,-0.0267 -6.58618,2.8306 -6.95826,7.98734 l -0.12238,1.69612 -4.20959,0 -4.20965,0 0.12754,-1.88993 c 0.39853,-5.90383 2.93026,-10.21343 7.17558,-12.21443 4.53308,-2.13661 10.92092,-2.33941 15.52747,-0.49295 1.68779,0.67654 3.68074,2.02969 4.74393,3.221 1.07027,1.19925 2.27131,3.58763 2.7477,5.46423 0.47962,1.88946 0.48795,5.93596 0.0155,7.65662 -0.49022,1.78603 -1.73138,4.19011 -2.76955,5.36459 -1.14935,1.30022 -3.00809,2.51966 -4.44229,2.91442 -0.62626,0.17238 -1.13863,0.36637 -1.13863,0.43115 0,0.0648 0.53559,0.21847 1.1902,0.34159 2.76652,0.52053 5.48808,2.39069 6.8912,4.73541 1.2617,2.10845 1.74375,3.93022 1.85689,7.01785 0.16178,4.41549 -0.55797,7.97243 -2.20967,10.9199 -0.97163,1.73382 -3.12557,3.82399 -4.89732,4.7522 -3.2637,1.70983 -8.22155,2.44083 -12.7188,1.87523 z m 37.90904,0.006 c -2.27797,-0.26162 -3.8915,-0.71837 -5.89725,-1.66921 -3.51193,-1.66498 -5.80716,-4.60054 -6.8613,-8.7756 -0.51922,-2.05641 -0.73488,-6.94996 -0.4015,-9.1104 0.8156,-5.28589 3.61803,-8.81419 8.0949,-10.19164 0.61925,-0.19054 1.1228,-0.3959 1.1191,-0.4564 -0.006,-0.0605 -0.68515,-0.4153 -1.5144,-0.7884 -2.78932,-1.25515 -4.76185,-3.73206 -5.63438,-7.07512 -0.52689,-2.01867 -0.49099,-6.26399 0.0701,-8.29635 0.6274,-2.27225 1.67481,-4.08932 3.26436,-5.66302 1.67242,-1.65576 3.47734,-2.63731 6.12375,-3.33038 2.63255,-0.6895 7.09716,-0.73607 9.68149,-0.10113 5.28277,1.29808 8.45942,4.31444 9.75941,9.26708 0.50432,1.92125 0.5575,5.68616 0.11012,7.79593 -0.72761,3.43089 -2.69762,5.97478 -5.76537,7.44489 l -1.68964,0.80965 1.07284,0.31826 c 4.53654,1.34595 7.4147,4.93297 8.2377,10.2666 0.33337,2.16044 0.11775,7.05399 -0.4015,9.1104 -1.05414,4.17507 -3.34938,7.11063 -6.86131,8.7756 -1.023,0.48498 -2.43273,1.01794 -3.13265,1.18443 -2.74997,0.65384 -6.30293,0.83757 -9.37448,0.48479 z m 6.10435,-6.37621 c 2.24298,-0.68594 3.78977,-2.45631 4.57083,-5.23164 0.2836,-1.00775 0.35459,-1.97776 0.35459,-4.84597 0,-2.86817 -0.071,-3.83818 -0.35459,-4.84593 -1.06483,-3.78392 -3.47393,-5.62134 -7.37021,-5.62134 -3.89634,0 -6.30542,1.83742 -7.37027,5.62134 -0.28355,1.00775 -0.35458,1.97776 -0.35458,4.84593 0,2.86821 0.071,3.83822 0.35458,4.84597 0.76845,2.73061 2.3281,4.53945 4.50247,5.22181 1.64301,0.51564 3.9997,0.51969 5.66718,0.01 z m -0.2983,-27.0434 c 2.92277,-0.85931 4.54738,-3.71509 4.54738,-7.99351 0,-3.12747 -0.56923,-5.02538 -1.95293,-6.51155 -1.1044,-1.18622 -2.4294,-1.7212 -4.52743,-1.82814 -3.58012,-0.18238 -5.68827,1.06081 -6.87329,4.05317 -0.51861,1.30947 -0.71723,5.18525 -0.35938,7.01083 0.56065,2.8603 1.94512,4.52111 4.41298,5.2938 1.09034,0.34141 3.5511,0.32866 4.75267,-0.0244 z m 24.71385,32.38334 c 0,-0.77358 0.91708,-6.73389 1.36203,-8.85218 2.52735,-12.03202 8.53239,-25.61824 15.594,-35.2809 l 1.25265,-1.71405 -12.09015,-0.05 -12.09014,-0.05 -0.053,-3.92521 -0.053,-3.92521 16.4505,0 16.4505,0 0,3.50966 0,3.50961 -0.56025,0.70635 c -1.76845,2.22969 -4.85721,7.2671 -6.73245,10.97975 -5.01156,9.92209 -8.84406,22.59623 -9.94978,32.90398 l -0.24437,2.27761 -4.66823,0 c -2.56753,0 -4.66825,-0.0405 -4.66825,-0.0895 z"
       style="fill:#c7c7c7;fill-opacity:1;stroke:none;display:inline" />
    <path
       id="path3028-9-2-1"
       d="m 450.98886,95.50045 0,27.6876 10.34375,0 c 0,-0.2537 0.21515,-0.4688 0.46875,-0.4688 0.2535,0 0.46875,0.2151 0.46875,0.4688 0,0.2535 -0.21525,0.4687 -0.46875,0.4687 l 0,25.9375 c 0.2535,0 0.46875,0.184 0.46875,0.4375 0,0.2536 -0.21525,0.4687 -0.46875,0.4687 -0.2536,0 -0.46875,-0.2151 -0.46875,-0.4687 l -10.34375,0 0,27.9687 10.34375,0 c 0,-0.2535 0.21515,-0.4687 0.46875,-0.4687 0.2535,0 0.4375,0.2153 0.4375,0.4687 0,0.2537 -0.184,0.4376 -0.4375,0.4376 l 0,25.9374 c 0.2535,0 0.46875,0.2152 0.46875,0.4688 0,0.2535 -0.21525,0.4688 -0.46875,0.4688 -0.2536,0 -0.46875,-0.2153 -0.46875,-0.4688 l -10.34375,0 0,27.9375 10.34375,0 c 0,-0.2536 0.21515,-0.4687 0.46875,-0.4687 0.2535,0 0.46875,0.2151 0.46875,0.4687 0,0.2535 -0.21525,0.4688 -0.46875,0.4687 l 0,25.93758 c 0.2535,0 0.46875,0.2151 0.46875,0.4687 0,0.2536 -0.21525,0.4375 -0.46875,0.4375 -0.2536,0 -0.46875,-0.1839 -0.46875,-0.4375 l -10.34375,0 0,27.9375 10.34375,0 c 0,-0.2535 0.21522,-0.4688 0.46875,-0.4688 0.25354,0 0.46875,0.2153 0.46875,0.4688 0,0.2536 -0.21521,0.4375 -0.46875,0.4375 l 0,25.96866 c 0.25354,0 0.46875,0.1841 0.46875,0.4376 0,0.2536 -0.21521,0.4687 -0.46875,0.4687 -0.25353,0 -0.46875,-0.2151 -0.46875,-0.4687 l -10.34375,0 0,27.6874 27.6875,0 0,-10.3437 c -0.25353,0 -0.46875,-0.2151 -0.46875,-0.4687 0,-0.2535 0.21522,-0.4688 0.46875,-0.4688 0.25354,0 0.4375,0.2153 0.4375,0.4688 l 25.9375,0 c 0,-0.2535 0.21522,-0.4688 0.46875,-0.4688 0.25354,0 0.46875,0.2153 0.46875,0.4688 0,0.2536 -0.21521,0.4687 -0.46875,0.4687 l 0,10.3437 27.93752,0 0,-10.3437 c -0.25354,0 -0.43751,-0.2151 -0.43751,-0.4687 0,-0.2536 0.18397,-0.4688 0.43751,-0.4688 0.25354,0 0.46875,0.2153 0.46875,0.4688 l 25.9375,0 c 0,-0.2536 0.21523,-0.4688 0.46875,-0.4688 0.25354,0 0.4375,0.2153 0.4375,0.4688 0,0.2536 -0.18396,0.4687 -0.4375,0.4687 l 0,10.3437 27.93744,0 0,-10.3437 c -0.2535,0 -0.46875,-0.2151 -0.46875,-0.4687 0,-0.2536 0.21525,-0.4688 0.46875,-0.4688 0.25363,0 0.46875,0.2153 0.46875,0.4688 l 25.9375,0 c 0,-0.2535 0.184,-0.4688 0.4375,-0.4688 0.2535,0 0.46875,0.2153 0.46875,0.4688 0,0.2536 -0.21525,0.4687 -0.46875,0.4687 l 0,10.3437 27.9375,0 0,-10.3437 c -0.2535,0 -0.4375,-0.2151 -0.4375,-0.4687 0,-0.2535 0.184,-0.4688 0.4375,-0.4688 0.25362,0 0.46875,0.2153 0.46875,0.4688 l 25.9375,0 c 0,-0.2535 0.21525,-0.4688 0.46875,-0.4688 0.25362,0 0.46875,0.2153 0.46875,0.4688 0,0.2536 -0.21513,0.4687 -0.46875,0.4687 l 0,10.3437 27.65625,0 0,-27.6874 -10.3125,0 c 0,0.2536 -0.21513,0.4687 -0.46875,0.4687 -0.2535,0 -0.46875,-0.2151 -0.46875,-0.4687 0,-0.2535 0.21525,-0.4376 0.46875,-0.4376 l 0,-25.96866 c -0.2535,0 -0.46875,-0.1839 -0.46875,-0.4375 0,-0.2535 0.21525,-0.4688 0.46875,-0.4688 0.25362,0 0.46875,0.2153 0.46875,0.4688 l 10.3125,0 0,-27.9375 -10.3125,0 c 0,0.2536 -0.21525,0.4375 -0.46875,0.4375 -0.2535,0 -0.46875,-0.1839 -0.46875,-0.4375 0,-0.2536 0.21525,-0.4687 0.46875,-0.4687 l 0,-25.93758 c -0.2535,0 -0.46875,-0.2152 -0.46875,-0.4687 0,-0.2536 0.21525,-0.4687 0.46875,-0.4687 0.2535,0 0.46875,0.2151 0.46875,0.4687 l 10.3125,0 0,-27.9375 -10.3125,0 c 0,0.2535 -0.21525,0.4687 -0.46875,0.4688 -0.2535,0 -0.46875,-0.2153 -0.46875,-0.4688 0,-0.2536 0.21525,-0.4688 0.46875,-0.4688 l 0,-25.9374 c -0.2535,0 -0.46875,-0.1839 -0.46875,-0.4376 0,-0.2535 0.21525,-0.4687 0.46875,-0.4687 0.2535,0 0.4375,0.2152 0.4375,0.4687 l 10.34375,0 0,-27.9687 -10.3125,0 c 0,0.2536 -0.21525,0.4687 -0.46875,0.4687 -0.2535,0 -0.46875,-0.2151 -0.46875,-0.4687 0,-0.2535 0.21525,-0.4375 0.46875,-0.4375 l 0,-25.9375 c -0.2535,0 -0.46875,-0.2152 -0.46875,-0.4687 0,-0.2537 0.21525,-0.4688 0.46875,-0.4688 0.2535,0 0.46875,0.2151 0.46875,0.4688 l 10.3125,0 0,-27.6876 -27.65625,0 0,10.8126 c 0,-1e-4 -0.0125,17.7187 -13.4375,17.7187 -13.43,0 -13.4375,-17.7187 -13.4375,-17.7187 l 0,-10.8126 -27.9375,0 0,10.3438 c 0.2535,0 0.46875,0.2153 0.46875,0.4688 0,0.2536 -0.21525,0.4687 -0.46875,0.4687 -0.2535,0 -0.4375,-0.2151 -0.4375,-0.4687 l -25.9375,0 c 0,0.2536 -0.21512,0.4687 -0.46875,0.4687 -0.2535,0 -0.46875,-0.2151 -0.46875,-0.4687 0,-0.2536 0.21525,-0.4688 0.46875,-0.4688 l 0,-10.3438 -27.93744,0 0,10.3438 c 0.25354,0 0.4375,0.2152 0.4375,0.4688 0,0.2536 -0.18396,0.4687 -0.4375,0.4687 -0.25352,0 -0.46875,-0.2151 -0.46875,-0.4687 l -25.9375,0 c 0,0.2536 -0.21521,0.4687 -0.46875,0.4687 -0.25354,0 -0.43751,-0.2151 -0.43751,-0.4687 0,-0.2536 0.18397,-0.4688 0.43751,-0.4688 l 0,-10.3438 -27.93752,0 0,10.3438 c 0.25354,0 0.46875,0.2153 0.46875,0.4688 0,0.2536 -0.21521,0.4687 -0.46875,0.4687 -0.25353,0 -0.46875,-0.2151 -0.46875,-0.4687 l -25.9375,0 c 0,0.2536 -0.18396,0.4687 -0.4375,0.4687 -0.25353,0 -0.46875,-0.2151 -0.46875,-0.4687 0,-0.2536 0.21522,-0.4688 0.46875,-0.4688 l 0,-10.3438 -27.6875,0 z"
       style="fill:none;stroke:#000000;stroke-width:2;stroke-miterlimit:4;stroke-opacity:1;stroke-dasharray:none;display:inline"
       inkscape:connector-curvature="0" />
    <path
       style="fill:none;stroke:#800000;stroke-width:1;stroke-linecap:butt;stroke-linejoin:miter;stroke-miterlimit:4;stroke-opacity:1;stroke-dasharray:none;marker-start:url(#Arrow1Mstart);marker-mid:none;marker-end:url(#Arrow1Mend)"
       d="m 308.07143,96.194213 0,807.416057"
       id="path6637"
       inkscape:connector-curvature="0" />
    <path
       style="fill:none;stroke:#800000;stroke-width:1px;stroke-linecap:butt;stroke-linejoin:miter;stroke-opacity:1"
       d="m 301.64286,95.00045 12.85714,0"
       id="path6639"
       inkscape:connector-curvature="0" />
    <path
       style="fill:none;stroke:#800000;stroke-width:1px;stroke-linecap:butt;stroke-linejoin:miter;stroke-opacity:1"
       d="m 301.64286,905.09415 12.85714,0"
       id="path6639-7"
       inkscape:connector-curvature="0" />
    <flowRoot
       xml:space="preserve"
       id="flowRoot8792"
       style="font-size:16px;font-style:normal;font-weight:normal;line-height:125%;letter-spacing:0px;word-spacing:0px;fill:#000000;fill-opacity:1;stroke:none;font-family:Sans"
       transform="translate(-32,0)"><flowRegion
         id="flowRegion8794"><rect
           id="rect8796"
           width="237.14285"
           height="147.14285"
           x="344.28571"
           y="314.28571" /></flowRegion><flowPara
         id="flowPara8798" /></flowRoot>    <flowRoot
       xml:space="preserve"
       id="flowRoot8808"
       style="font-size:16px;font-style:normal;font-weight:normal;line-height:125%;letter-spacing:0px;word-spacing:0px;fill:#000000;fill-opacity:1;stroke:none;font-family:Sans"
       transform="translate(-32,0)"><flowRegion
         id="flowRegion8810"><rect
           id="rect8812"
           width="188.57143"
           height="24.285715"
           x="191.42857"
           y="345.71429" /></flowRegion><flowPara
         id="flowPara8814" /></flowRoot>    <path
       style="fill:#800000;stroke:#800000;stroke-width:1.10006595;stroke-linecap:butt;stroke-linejoin:miter;stroke-miterlimit:4;stroke-opacity:1;stroke-dasharray:none;marker-start:url(#Arrow1Mstart0);marker-mid:none;marker-end:url(#Arrow1MendA)"
       d="M 244.9286,96.451908 244.80227,251.57631"
       id="path6637-1"
       inkscape:connector-curvature="0"
       sodipodi:nodetypes="cc" />
    <path
       style="fill:none;stroke:#000000;stroke-width:1px;stroke-linecap:butt;stroke-linejoin:miter;stroke-opacity:1"
       d="m 374.42857,-41.258529 12.85714,0"
       id="path6639-5"
       inkscape:connector-curvature="0" />
    <path
       style="fill:#800000;stroke:#800000;stroke-width:0.99351853px;stroke-linecap:butt;stroke-linejoin:miter;stroke-opacity:1"
       d="m 238.4335,95.579735 12.86388,0"
       id="path6639-0"
       inkscape:connector-curvature="0" />
    <path
       style="fill:#800000;stroke:#800000;stroke-width:0.99351853px;stroke-linecap:butt;stroke-linejoin:miter;stroke-opacity:1"
       d="m 238.4335,252.44848 12.86388,0"
       id="path6639-0-1"
       inkscape:connector-curvature="0" />
    <text
       id="text9623"
       y="0"
       x="0"
       style="fill:#550000"
       transform="matrix(-1,0,0,-1,485.48061,324.67771)">
      <textPath
         id="textPath9625"
         dy="-6"
         startOffset="50%"
         xlink:href="#path6637-1"
         style="font-size:16px;font-style:normal;font-weight:normal;text-align:center;text-anchor:middle;fill:#550000;fill-opacity:1;stroke:none">1.75 in</textPath>
    </text>
    <text
       id="text9788"
       y="0"
       x="0"
       style="fill:#800000"
       transform="translate(8,0)">
      <textPath
         id="textPath9790"
         startOffset="50%"
         xlink:href="#path6637"
         style="font-size:16px;font-style:normal;font-weight:normal;text-align:center;text-anchor:middle;fill:#800000;fill-opacity:1;stroke:none">9.00 in</textPath>
    </text>
    <path
       style="fill:none;stroke:#800000;stroke-width:1;stroke-linecap:butt;stroke-linejoin:miter;stroke-miterlimit:4;stroke-opacity:1;stroke-dasharray:none;marker-start:url(#Arrow1Mstarts);marker-mid:none;marker-end:url(#Arrow1Mendg)"
       d="m 244.86544,454.33912 0,450.45112"
       id="path9847"
       inkscape:connector-curvature="0" />
    <path
       style="fill:none;stroke:#800000;stroke-width:1px;stroke-linecap:butt;stroke-linejoin:miter;stroke-opacity:1"
       d="m 238.43687,452.86524 12.85714,0"
       id="path6639-4"
       inkscape:connector-curvature="0" />
    <path
       style="fill:none;stroke:#800000;stroke-width:1px;stroke-linecap:butt;stroke-linejoin:miter;stroke-opacity:1"
       d="m 238.43687,905.09415 12.85714,0"
       id="path6639-7-2"
       inkscape:connector-curvature="0" />
    <text
       id="text10040"
       y="0"
       x="0"
       style="fill:#800000"
       transform="matrix(-1,0,0,-1,487.19582,1334.6841)">
      <textPath
         id="textPath10042"
         dy="-6"
         startOffset="50%"
         xlink:href="#path9847"
         style="font-size:16px;font-style:normal;font-weight:normal;text-align:center;text-anchor:middle;fill:#800000;fill-opacity:1;stroke:none">5.00 in</textPath>
    </text>
    <path
       style="fill:#800000;stroke:#800000;stroke-width:0.7452597;stroke-linecap:butt;stroke-linejoin:miter;stroke-miterlimit:4;stroke-opacity:1;stroke-dasharray:none;marker-start:url(#Arrow1Mstart0);marker-mid:none;marker-end:url(#Arrow1MendA)"
       d="m 83.77482,385.911 -0.13848,64.94462"
       id="path10128"
       inkscape:connector-curvature="0"
       sodipodi:nodetypes="cc" />
    <path
       style="fill:#800000;stroke:#800000;stroke-width:0.99351853px;stroke-linecap:butt;stroke-linejoin:miter;stroke-opacity:1"
       d="m 77.27364,385.35394 12.86388,0"
       id="path6639-0-8"
       inkscape:connector-curvature="0" />
    <path
       style="fill:#800000;stroke:#800000;stroke-width:0.99351853px;stroke-linecap:butt;stroke-linejoin:miter;stroke-opacity:1"
       d="m 77.27364,453.07613 12.86388,0"
       id="path6639-0-1-1"
       inkscape:connector-curvature="0" />
    <text
       style="fill:#550000"
       x="0"
       y="0"
       id="text10355"
       transform="translate(6,0)">
      <textPath
         style="font-size:16px;font-style:normal;font-weight:normal;text-align:center;text-anchor:middle;fill:#550000;fill-opacity:1;stroke:none"
         xlink:href="#path10128"
         startOffset="50%"
         dy="-6"
         id="textPath10357">0.75 in</textPath>
    </text>
    <path
       style="fill:#800000;stroke:#800000;stroke-width:1;stroke-linecap:butt;stroke-linejoin:miter;stroke-miterlimit:4;stroke-opacity:1;stroke-dasharray:none;marker-start:url(#Arrow1Mstart0);marker-mid:none;marker-end:url(#Arrow1MendA)"
       d="M 287.30754,939.26755 42.463323,939.14889"
       id="path10438"
       inkscape:connector-curvature="0"
       sodipodi:nodetypes="cc" />
    <path
       style="fill:#800000;stroke:#800000;stroke-width:0.99351853px;stroke-linecap:butt;stroke-linejoin:miter;stroke-opacity:1"
       d="m 289.3433,932.77627 0,12.8639"
       id="path6639-0-5"
       inkscape:connector-curvature="0" />
    <path
       style="fill:#800000;stroke:#800000;stroke-width:0.99351853px;stroke-linecap:butt;stroke-linejoin:miter;stroke-opacity:1"
       d="m 41.285518,932.77627 0,12.8639"
       id="path6639-0-1-0"
       inkscape:connector-curvature="0" />
    <text
       id="text10543"
       y="0"
       x="0"
       transform="matrix(-1,0,0,-1,330.08621,1879.9167)"
       style="fill:#550000">
      <textPath
         id="textPath10545"
         dy="-6"
         startOffset="50%"
         xlink:href="#path10438"
         style="font-size:16px;font-style:normal;font-weight:normal;text-align:center;text-anchor:middle;fill:#550000;fill-opacity:1;stroke:none">2.75 in</textPath>
    </text>
    <text
       xml:space="preserve"
       style="font-size:16px;font-style:normal;font-weight:normal;line-height:125%;letter-spacing:0px;word-spacing:0px;fill:#000000;fill-opacity:1;stroke:none;font-family:Sans"
       x="53.14286"
       y="986.93121"
       id="text10621"
       sodipodi:linespacing="125%"><tspan
         sodipodi:role="line"
         id="tspan10623"
         x="53.14286"
         y="986.93121"
         style="font-size:28px;font-weight:bold">BEACON TOWER</tspan><tspan
         sodipodi:role="line"
         x="53.14286"
         y="1021.9312"
         style="font-size:45px;font-weight:bold"
         id="tspan10625" /></text>
    <text
       xml:space="preserve"
       style="font-size:16px;font-style:normal;font-weight:normal;line-height:125%;letter-spacing:0px;word-spacing:0px;fill:#000000;fill-opacity:1;stroke:none;font-family:Sans"
       x="53.567665"
       y="1022.6455"
       id="text10627"
       sodipodi:linespacing="125%"><tspan
         sodipodi:role="line"
         id="tspan10629"
         x="53.567665"
         y="1022.6455"
         style="font-size:45px;font-weight:bold">SIDE VIEW</tspan></text>
    <text
       xml:space="preserve"
       style="font-size:16px;font-style:normal;font-weight:normal;line-height:125%;letter-spacing:0px;word-spacing:0px;fill:#000000;fill-opacity:1;stroke:none;font-family:Sans"
       x="472.73566"
       y="419.83792"
       id="text10621-1"
       sodipodi:linespacing="125%"
       inkscape:transform-center-x="201.55089"
       inkscape:transform-center-y="187.74239"><tspan
         sodipodi:role="line"
         id="tspan10623-3"
         x="472.73566"
         y="419.83792"
         style="font-size:27px;font-weight:bold">BEACON TOWER</tspan><tspan
         sodipodi:role="line"
         x="472.73566"
         y="453.58792"
         style="font-size:27px;font-weight:bold"
         id="tspan10625-3" /></text>
    <text
       xml:space="preserve"
       style="font-size:16px;font-style:normal;font-weight:normal;text-align:center;line-height:125%;letter-spacing:0px;word-spacing:0px;text-anchor:middle;fill:#000000;fill-opacity:1;stroke:none;font-family:Sans"
       x="586.00201"
       y="455.55222"
       id="text10627-1"
       sodipodi:linespacing="125%"
       inkscape:transform-center-x="201.42857"
       inkscape:transform-center-y="217.3832"><tspan
         sodipodi:role="line"
         id="tspan10629-6"
         x="586.00201"
         y="455.55222"
         style="font-size:45.5px;font-weight:bold;text-align:center;text-anchor:middle">TOP VIEW</tspan></text>
    <path
       style="fill:#800000;stroke:#800000;stroke-width:1;stroke-linecap:butt;stroke-linejoin:miter;stroke-miterlimit:4;stroke-opacity:1;stroke-dasharray:none;marker-start:url(#Arrow1Mstart0);marker-mid:none;marker-end:url(#Arrow1MendA)"
       d="M 697.42166,375.96026 452.57749,375.8416"
       id="path10691"
       inkscape:connector-curvature="0"
       sodipodi:nodetypes="cc" />
    <path
       style="fill:#800000;stroke:#800000;stroke-width:0.99351853px;stroke-linecap:butt;stroke-linejoin:miter;stroke-opacity:1"
       d="m 699.45746,369.46898 0,12.8639"
       id="path6639-0-5-7"
       inkscape:connector-curvature="0" />
    <path
       style="fill:#800000;stroke:#800000;stroke-width:0.99351853px;stroke-linecap:butt;stroke-linejoin:miter;stroke-opacity:1"
       d="m 451.39968,369.46898 0,12.8639"
       id="path6639-0-1-0-3"
       inkscape:connector-curvature="0" />
    <text
       id="text10543-1"
       y="0"
       x="0"
       transform="matrix(-1,0,0,-1,772.51576,1302.6095)"
       style="fill:#550000">
      <textPath
         id="textPath10545-8"
         dy="-6"
         startOffset="50%"
         xlink:href="#path10438-6"
         style="font-size:16px;font-style:normal;font-weight:normal;text-align:center;text-anchor:middle;fill:#550000;fill-opacity:1;stroke:none">2.75 in</textPath>
    </text>
    <path
       style="fill:#800000;stroke:#800000;stroke-width:1;stroke-linecap:butt;stroke-linejoin:miter;stroke-miterlimit:4;stroke-opacity:1;stroke-dasharray:none;marker-start:url(#Arrow1Mstart0);marker-mid:none;marker-end:url(#Arrow1MendA)"
       d="M 427.31476,98.080926 427.1961,342.9251"
       id="path10691-5"
       inkscape:connector-curvature="0"
       sodipodi:nodetypes="cc" />
    <path
       style="fill:#800000;stroke:#800000;stroke-width:0.99351853px;stroke-linecap:butt;stroke-linejoin:miter;stroke-opacity:1"
       d="m 420.82348,96.045126 12.8639,0"
       id="path6639-0-5-7-6"
       inkscape:connector-curvature="0" />
    <path
       style="fill:#800000;stroke:#800000;stroke-width:0.99351853px;stroke-linecap:butt;stroke-linejoin:miter;stroke-opacity:1"
       d="m 420.82348,344.10291 12.8639,0"
       id="path6639-0-1-0-3-7"
       inkscape:connector-curvature="0" />
    <text
       id="text10543-1-2"
       y="0"
       x="0"
       transform="matrix(0,1,-1,0,1351.964,22.986856)"
       style="fill:#550000">
      <textPath
         id="textPath10545-8-0"
         dy="-6"
         startOffset="50%"
         xlink:href="#path10438-6-1"
         style="font-size:16px;font-style:normal;font-weight:normal;text-align:center;text-anchor:middle;fill:#550000;fill-opacity:1;stroke:none">2.75 in</textPath>
    </text>
    <flowRoot
       xml:space="preserve"
       id="flowRoot10767"
       style="font-size:16px;font-style:normal;font-weight:normal;line-height:125%;letter-spacing:0px;word-spacing:0px;fill:#000000;fill-opacity:1;stroke:none;font-family:Sans"
       transform="translate(16,16.35975)"><flowRegion
         id="flowRegion10769"><rect
           id="rect10771"
           width="365.71432"
           height="337.14285"
           x="355.71429"
           y="550" /></flowRegion><flowPara
         id="flowPara10773"
         style="font-size:18px">This mechanical drawing is <flowSpan
   style="font-weight:bold"
   id="flowSpan10775">to scale</flowSpan>, and has been created from the actual lasercut design drawings, which are available on the GitHub page for the Junior Design beacons. </flowPara><flowPara
         style="font-size:18px"
         id="flowPara10785" /><flowPara
         style="font-size:18px"
         id="flowPara10795">Note that the edges of the beacon towers themselves are not jagged-- the marks on the edge of the tower drawing to the left snap together with the other set of pieces (not shown), which have the same dimensions, but complementary side cutouts.</flowPara><flowPara
         style="font-size:18px"
         id="flowPara10825" /><flowPara
         style="font-size:18px"
         id="flowPara10827" /></flowRoot>  </g>
</svg>
