G75*
%MOIN*%
%OFA0B0*%
%FSLAX24Y24*%
%IPPOS*%
%LPD*%
%AMOC8*
5,1,8,0,0,1.08239X$1,22.5*
%
%ADD10C,0.0434*%
%ADD11C,0.0730*%
%ADD12OC8,0.0820*%
%ADD13C,0.0820*%
%ADD14C,0.1537*%
%ADD15R,0.1537X0.1537*%
%ADD16C,0.0605*%
%ADD17R,0.0552X0.0395*%
%ADD18C,0.0480*%
%ADD19C,0.0456*%
D10*
X019734Y002463D03*
X021466Y002463D03*
D11*
X026600Y007463D03*
X026600Y009463D03*
D12*
X027100Y002463D03*
X028100Y002463D03*
X029100Y002463D03*
X029100Y001463D03*
X028100Y001463D03*
X027100Y001463D03*
D13*
X037100Y002463D03*
X038100Y002463D03*
X038100Y006463D03*
X037100Y006463D03*
X037100Y009463D03*
X038100Y009463D03*
X038100Y013463D03*
X037100Y013463D03*
D14*
X015100Y009963D03*
X009600Y009963D03*
X004100Y009963D03*
X004100Y007463D03*
X009600Y007463D03*
X015100Y007463D03*
X015100Y004963D03*
X009600Y004963D03*
X004100Y004963D03*
X004100Y002463D03*
X009600Y002463D03*
X015100Y002463D03*
D15*
X002100Y002463D03*
X007600Y002463D03*
X013100Y002463D03*
X013100Y004963D03*
X007600Y004963D03*
X002100Y004963D03*
X002100Y007463D03*
X007600Y007463D03*
X013100Y007463D03*
X013100Y009963D03*
X007600Y009963D03*
X002100Y009963D03*
D16*
X036600Y011463D03*
X037600Y011463D03*
X038600Y011463D03*
X038600Y004463D03*
X037600Y004463D03*
X036600Y004463D03*
D17*
X035600Y004459D03*
X035600Y005167D03*
X035600Y011459D03*
X035600Y012167D03*
X004600Y013609D03*
X003600Y013609D03*
X002600Y013609D03*
X001600Y013609D03*
X001600Y014317D03*
X002600Y014317D03*
X003600Y014317D03*
X004600Y014317D03*
D18*
X018301Y010963D03*
X023454Y011430D03*
X023270Y007872D03*
X024533Y007223D03*
X027549Y004726D03*
X022100Y004313D03*
D19*
X021100Y007963D03*
X022100Y008963D03*
X035600Y005713D03*
X037100Y012163D03*
M02*
