G75*
%MOIN*%
%OFA0B0*%
%FSLAX24Y24*%
%IPPOS*%
%LPD*%
%AMOC8*
5,1,8,0,0,1.08239X$1,22.5*
%
%ADD10C,0.0000*%
D10*
X000100Y000463D02*
X000100Y015463D01*
X039470Y015463D01*
X039470Y000463D01*
X000100Y000463D01*
X019557Y002463D02*
X019559Y002489D01*
X019565Y002515D01*
X019575Y002540D01*
X019588Y002563D01*
X019604Y002583D01*
X019624Y002601D01*
X019646Y002616D01*
X019669Y002628D01*
X019695Y002636D01*
X019721Y002640D01*
X019747Y002640D01*
X019773Y002636D01*
X019799Y002628D01*
X019823Y002616D01*
X019844Y002601D01*
X019864Y002583D01*
X019880Y002563D01*
X019893Y002540D01*
X019903Y002515D01*
X019909Y002489D01*
X019911Y002463D01*
X019909Y002437D01*
X019903Y002411D01*
X019893Y002386D01*
X019880Y002363D01*
X019864Y002343D01*
X019844Y002325D01*
X019822Y002310D01*
X019799Y002298D01*
X019773Y002290D01*
X019747Y002286D01*
X019721Y002286D01*
X019695Y002290D01*
X019669Y002298D01*
X019645Y002310D01*
X019624Y002325D01*
X019604Y002343D01*
X019588Y002363D01*
X019575Y002386D01*
X019565Y002411D01*
X019559Y002437D01*
X019557Y002463D01*
X021289Y002463D02*
X021291Y002489D01*
X021297Y002515D01*
X021307Y002540D01*
X021320Y002563D01*
X021336Y002583D01*
X021356Y002601D01*
X021378Y002616D01*
X021401Y002628D01*
X021427Y002636D01*
X021453Y002640D01*
X021479Y002640D01*
X021505Y002636D01*
X021531Y002628D01*
X021555Y002616D01*
X021576Y002601D01*
X021596Y002583D01*
X021612Y002563D01*
X021625Y002540D01*
X021635Y002515D01*
X021641Y002489D01*
X021643Y002463D01*
X021641Y002437D01*
X021635Y002411D01*
X021625Y002386D01*
X021612Y002363D01*
X021596Y002343D01*
X021576Y002325D01*
X021554Y002310D01*
X021531Y002298D01*
X021505Y002290D01*
X021479Y002286D01*
X021453Y002286D01*
X021427Y002290D01*
X021401Y002298D01*
X021377Y002310D01*
X021356Y002325D01*
X021336Y002343D01*
X021320Y002363D01*
X021307Y002386D01*
X021297Y002411D01*
X021291Y002437D01*
X021289Y002463D01*
M02*
