G75*
%MOIN*%
%OFA0B0*%
%FSLAX24Y24*%
%IPPOS*%
%LPD*%
%AMOC8*
5,1,8,0,0,1.08239X$1,22.5*
%
%ADD10R,0.0197X0.0591*%
%ADD11R,0.0591X0.0197*%
%ADD12R,0.0472X0.0315*%
%ADD13R,0.0315X0.0472*%
%ADD14R,0.0197X0.0984*%
%ADD15R,0.0787X0.0984*%
%ADD16C,0.0650*%
%ADD17R,0.0500X0.0250*%
%ADD18OC8,0.0740*%
%ADD19R,0.0880X0.0480*%
%ADD20R,0.0866X0.1417*%
%ADD21C,0.0740*%
%ADD22R,0.0480X0.0880*%
%ADD23R,0.1417X0.0866*%
%ADD24C,0.1457*%
%ADD25R,0.1457X0.1457*%
%ADD26C,0.0525*%
%ADD27C,0.0100*%
%ADD28C,0.0400*%
%ADD29C,0.0160*%
%ADD30C,0.0120*%
%ADD31C,0.0376*%
D10*
X020025Y006179D03*
X020340Y006179D03*
X020655Y006179D03*
X020970Y006179D03*
X021285Y006179D03*
X021600Y006179D03*
X021915Y006179D03*
X022230Y006179D03*
X022545Y006179D03*
X022860Y006179D03*
X023175Y006179D03*
X023175Y010746D03*
X022860Y010746D03*
X022545Y010746D03*
X022230Y010746D03*
X021915Y010746D03*
X021600Y010746D03*
X021285Y010746D03*
X020970Y010746D03*
X020655Y010746D03*
X020340Y010746D03*
X020025Y010746D03*
D11*
X019317Y010038D03*
X019317Y009723D03*
X019317Y009408D03*
X019317Y009093D03*
X019317Y008778D03*
X019317Y008463D03*
X019317Y008148D03*
X019317Y007833D03*
X019317Y007518D03*
X019317Y007203D03*
X019317Y006888D03*
X023883Y006888D03*
X023883Y007203D03*
X023883Y007518D03*
X023883Y007833D03*
X023883Y008148D03*
X023883Y008463D03*
X023883Y008778D03*
X023883Y009093D03*
X023883Y009408D03*
X023883Y009723D03*
X023883Y010038D03*
D12*
X018100Y007817D03*
X018100Y007109D03*
X020100Y005317D03*
X021100Y005317D03*
X021100Y004609D03*
X020100Y004609D03*
X030100Y005109D03*
X030100Y005817D03*
X035600Y002817D03*
X035600Y002109D03*
X030100Y009109D03*
X030100Y009817D03*
X030100Y013609D03*
X030100Y014317D03*
X035600Y014317D03*
X035600Y013609D03*
D13*
X035246Y011463D03*
X035954Y011463D03*
X035954Y009463D03*
X035246Y009463D03*
X035246Y006463D03*
X035954Y006463D03*
X035954Y004463D03*
X035246Y004463D03*
X026454Y005463D03*
X025746Y005463D03*
X022954Y004963D03*
X022246Y004963D03*
X018954Y004963D03*
X018246Y004963D03*
X016954Y004963D03*
X016246Y004963D03*
X011454Y004963D03*
X010746Y004963D03*
X005954Y004963D03*
X005246Y004963D03*
X005246Y007463D03*
X005954Y007463D03*
X010746Y007463D03*
X011454Y007463D03*
X016246Y007463D03*
X016954Y007463D03*
X016954Y009963D03*
X016246Y009963D03*
X018746Y010963D03*
X019454Y010963D03*
X022746Y011963D03*
X023454Y011963D03*
X024746Y010963D03*
X025454Y010963D03*
X015454Y014463D03*
X014746Y014463D03*
X009954Y014463D03*
X009246Y014463D03*
X004454Y014463D03*
X003746Y014463D03*
X005246Y009963D03*
X005954Y009963D03*
X010746Y009963D03*
X011454Y009963D03*
X011454Y002463D03*
X010746Y002463D03*
X005954Y002463D03*
X005246Y002463D03*
X016246Y002463D03*
X016954Y002463D03*
D14*
X019970Y003447D03*
X020285Y003447D03*
X020600Y003447D03*
X020915Y003447D03*
X021230Y003447D03*
D15*
X022372Y003447D03*
X018828Y003447D03*
X018828Y001282D03*
X022372Y001282D03*
D16*
X026600Y007463D03*
X026600Y009463D03*
D17*
X025600Y002140D03*
X025600Y001786D03*
D18*
X027100Y001463D03*
X028100Y001463D03*
X029100Y001463D03*
X029100Y002463D03*
X028100Y002463D03*
X027100Y002463D03*
D19*
X033820Y002463D03*
X033820Y003373D03*
X033820Y005053D03*
X033820Y005963D03*
X033820Y006873D03*
X033820Y009053D03*
X033820Y009963D03*
X033820Y010873D03*
X033820Y012553D03*
X033820Y013463D03*
X033820Y014373D03*
X033820Y001553D03*
D20*
X031380Y002463D03*
X031380Y005963D03*
X031380Y009963D03*
X031380Y013463D03*
D21*
X037100Y013463D03*
X038100Y013463D03*
X038100Y009463D03*
X037100Y009463D03*
X037100Y006463D03*
X038100Y006463D03*
X038100Y002463D03*
X037100Y002463D03*
D22*
X014010Y014183D03*
X013100Y014183D03*
X012190Y014183D03*
X008510Y014183D03*
X007600Y014183D03*
X006690Y014183D03*
X003010Y014183D03*
X002100Y014183D03*
X001190Y014183D03*
D23*
X002100Y011743D03*
X007600Y011743D03*
X013100Y011743D03*
D24*
X015100Y009963D03*
X009600Y009963D03*
X004100Y009963D03*
X004100Y007463D03*
X009600Y007463D03*
X015100Y007463D03*
X015100Y004963D03*
X009600Y004963D03*
X004100Y004963D03*
X004100Y002463D03*
X009600Y002463D03*
X015100Y002463D03*
D25*
X013100Y002463D03*
X007600Y002463D03*
X002100Y002463D03*
X002100Y004963D03*
X007600Y004963D03*
X013100Y004963D03*
X013100Y007463D03*
X007600Y007463D03*
X002100Y007463D03*
X002100Y009963D03*
X007600Y009963D03*
X013100Y009963D03*
D26*
X036600Y011463D03*
X037600Y011463D03*
X038600Y011463D03*
X038600Y004463D03*
X037600Y004463D03*
X036600Y004463D03*
D27*
X000600Y000963D02*
X000600Y014963D01*
X001047Y014963D01*
X000978Y014895D01*
X000949Y014823D01*
X000867Y014823D01*
X000750Y014706D01*
X000750Y013660D01*
X000867Y013543D01*
X001513Y013543D01*
X001630Y013660D01*
X001630Y014579D01*
X001660Y014579D01*
X001660Y013660D01*
X001727Y013593D01*
X001120Y012986D01*
X001120Y012986D01*
X001049Y012916D01*
X001011Y012824D01*
X001011Y011191D01*
X001049Y011099D01*
X001273Y010875D01*
X001172Y010774D01*
X001172Y009152D01*
X001289Y009034D01*
X002911Y009034D01*
X003028Y009152D01*
X003028Y010774D01*
X002911Y010891D01*
X002342Y010891D01*
X002312Y010963D01*
X002242Y011033D01*
X002150Y011071D01*
X001784Y011071D01*
X001746Y011110D01*
X002892Y011110D01*
X003009Y011227D01*
X003009Y012259D01*
X002892Y012376D01*
X001511Y012376D01*
X001511Y012671D01*
X002312Y013471D01*
X002342Y013543D01*
X002423Y013543D01*
X002540Y013660D01*
X002540Y014579D01*
X002570Y014579D01*
X002570Y013660D01*
X002687Y013543D01*
X003333Y013543D01*
X003450Y013660D01*
X003450Y014082D01*
X003505Y014027D01*
X003986Y014027D01*
X004100Y014141D01*
X004214Y014027D01*
X004695Y014027D01*
X004760Y014092D01*
X005380Y013471D01*
X005450Y013401D01*
X005542Y013363D01*
X007034Y013363D01*
X007126Y013401D01*
X007202Y013477D01*
X007272Y013548D01*
X007277Y013543D01*
X007350Y013543D01*
X007350Y013248D01*
X006620Y012518D01*
X006549Y012447D01*
X006511Y012356D01*
X006511Y011191D01*
X006549Y011099D01*
X006773Y010875D01*
X006672Y010774D01*
X006672Y009152D01*
X006789Y009034D01*
X008411Y009034D01*
X008528Y009152D01*
X008528Y010774D01*
X008411Y010891D01*
X007842Y010891D01*
X007812Y010963D01*
X007742Y011033D01*
X007650Y011071D01*
X007284Y011071D01*
X007246Y011110D01*
X008392Y011110D01*
X008509Y011227D01*
X008509Y012259D01*
X008392Y012376D01*
X007185Y012376D01*
X007812Y013003D01*
X007850Y013095D01*
X007850Y013543D01*
X007915Y013543D01*
X010959Y010499D01*
X011029Y010429D01*
X011121Y010391D01*
X011281Y010391D01*
X011323Y010349D01*
X011277Y010349D01*
X011239Y010339D01*
X011205Y010319D01*
X011177Y010291D01*
X011157Y010257D01*
X011147Y010219D01*
X011147Y009992D01*
X011426Y009992D01*
X011426Y009934D01*
X011483Y009934D01*
X011483Y009577D01*
X011632Y009577D01*
X011670Y009587D01*
X011704Y009607D01*
X011732Y009635D01*
X011752Y009669D01*
X011762Y009707D01*
X011762Y009911D01*
X011951Y009721D01*
X011951Y009145D01*
X011989Y009053D01*
X012089Y008953D01*
X012159Y008883D01*
X012251Y008845D01*
X016033Y008845D01*
X016125Y008883D01*
X016675Y009433D01*
X016745Y009503D01*
X016776Y009577D01*
X016777Y009577D01*
X016926Y009577D01*
X016926Y009934D01*
X016983Y009934D01*
X016983Y009577D01*
X017132Y009577D01*
X017170Y009587D01*
X017204Y009607D01*
X017232Y009635D01*
X017252Y009669D01*
X017262Y009707D01*
X017262Y009934D01*
X016983Y009934D01*
X016983Y009992D01*
X017262Y009992D01*
X017262Y010219D01*
X017255Y010243D01*
X018916Y010243D01*
X018901Y010228D01*
X018881Y010194D01*
X018871Y010156D01*
X018871Y010038D01*
X019317Y010038D01*
X019762Y010038D01*
X019762Y010156D01*
X019752Y010194D01*
X019732Y010228D01*
X019704Y010256D01*
X019670Y010276D01*
X019632Y010286D01*
X019317Y010286D01*
X019317Y010038D01*
X019317Y010038D01*
X019317Y010038D01*
X019762Y010038D01*
X019762Y009973D01*
X019792Y009973D01*
X019883Y009935D01*
X019954Y009864D01*
X019992Y009772D01*
X019992Y007153D01*
X019954Y007061D01*
X019883Y006991D01*
X019792Y006953D01*
X019762Y006953D01*
X019762Y006888D01*
X019317Y006888D01*
X019317Y006888D01*
X019762Y006888D01*
X019762Y006770D01*
X019752Y006732D01*
X019732Y006698D01*
X019704Y006670D01*
X019670Y006650D01*
X019632Y006640D01*
X019317Y006640D01*
X019317Y006888D01*
X019317Y006888D01*
X019742Y006888D01*
X019899Y007046D01*
X020340Y006605D01*
X020340Y006179D01*
X020340Y006625D01*
X020256Y006625D01*
X020206Y006675D01*
X019844Y006675D01*
X019727Y006557D01*
X019727Y005801D01*
X019844Y005684D01*
X019862Y005684D01*
X019858Y005675D01*
X019781Y005675D01*
X019664Y005557D01*
X019664Y005213D01*
X019312Y005213D01*
X019312Y005282D01*
X019197Y005397D01*
X019166Y005471D01*
X019096Y005541D01*
X019047Y005590D01*
X019047Y006640D01*
X019317Y006640D01*
X019317Y006888D01*
X019317Y006865D02*
X019317Y006865D01*
X019317Y006767D02*
X019317Y006767D01*
X019317Y006668D02*
X019317Y006668D01*
X019047Y006570D02*
X019739Y006570D01*
X019727Y006471D02*
X019047Y006471D01*
X019047Y006373D02*
X019727Y006373D01*
X019727Y006274D02*
X019047Y006274D01*
X019047Y006176D02*
X019727Y006176D01*
X019727Y006077D02*
X019047Y006077D01*
X019047Y005979D02*
X019727Y005979D01*
X019727Y005880D02*
X019047Y005880D01*
X019047Y005782D02*
X019746Y005782D01*
X019862Y005683D02*
X019047Y005683D01*
X019052Y005585D02*
X019691Y005585D01*
X019664Y005486D02*
X019151Y005486D01*
X019206Y005388D02*
X019664Y005388D01*
X019664Y005289D02*
X019304Y005289D01*
X018954Y005329D02*
X018954Y004963D01*
X019242Y004963D01*
X021958Y004963D01*
X022066Y004963D01*
X021466Y005573D01*
X021285Y005754D01*
X021285Y006179D01*
X021600Y006179D02*
X021600Y005754D01*
X022055Y005754D01*
X022667Y005143D01*
X022667Y004963D01*
X022954Y004963D01*
X022246Y004963D02*
X022102Y004963D01*
X025220Y001845D01*
X025220Y001786D01*
X025600Y001786D01*
X025600Y001531D01*
X025668Y001463D01*
X027100Y001463D01*
X026604Y001152D02*
X022965Y001152D01*
X022965Y001054D02*
X026703Y001054D01*
X026794Y000963D02*
X022965Y000963D01*
X022965Y001857D01*
X022848Y001974D01*
X021895Y001974D01*
X021778Y001857D01*
X021778Y000963D01*
X019422Y000963D01*
X019422Y001857D01*
X019305Y001974D01*
X018352Y001974D01*
X018235Y001857D01*
X018235Y000963D01*
X000600Y000963D01*
X000600Y001054D02*
X018235Y001054D01*
X018235Y001152D02*
X000600Y001152D01*
X000600Y001251D02*
X018235Y001251D01*
X018235Y001349D02*
X000600Y001349D01*
X000600Y001448D02*
X018235Y001448D01*
X018235Y001546D02*
X015313Y001546D01*
X015285Y001534D02*
X015626Y001676D01*
X015887Y001937D01*
X015948Y002084D01*
X016005Y002027D01*
X016486Y002027D01*
X016603Y002144D01*
X016603Y002782D01*
X016486Y002899D01*
X016005Y002899D01*
X015948Y002842D01*
X015887Y002989D01*
X015626Y003250D01*
X015285Y003391D01*
X014915Y003391D01*
X014574Y003250D01*
X014313Y002989D01*
X014172Y002647D01*
X014172Y002278D01*
X014313Y001937D01*
X014574Y001676D01*
X014915Y001534D01*
X015285Y001534D01*
X015551Y001645D02*
X018235Y001645D01*
X018235Y001743D02*
X015693Y001743D01*
X015792Y001842D02*
X018235Y001842D01*
X018318Y001940D02*
X015888Y001940D01*
X015929Y002039D02*
X015993Y002039D01*
X016498Y002039D02*
X024672Y002039D01*
X024574Y002137D02*
X021666Y002137D01*
X021680Y002143D02*
X021786Y002249D01*
X021843Y002388D01*
X021843Y002538D01*
X021786Y002676D01*
X021680Y002783D01*
X021541Y002840D01*
X021496Y002840D01*
X021528Y002872D01*
X021528Y003972D01*
X021630Y004073D01*
X021636Y004076D01*
X021669Y004112D01*
X021698Y004141D01*
X021744Y004127D01*
X021761Y004086D01*
X021802Y004046D01*
X021778Y004022D01*
X021778Y002872D01*
X021895Y002755D01*
X022848Y002755D01*
X022965Y002872D01*
X022965Y003746D01*
X024970Y001741D01*
X024970Y001736D01*
X025008Y001644D01*
X025078Y001574D01*
X025170Y001536D01*
X025192Y001536D01*
X025267Y001461D01*
X025358Y001461D01*
X025388Y001389D01*
X025458Y001319D01*
X025458Y001319D01*
X025526Y001251D01*
X025618Y001213D01*
X026544Y001213D01*
X026794Y000963D01*
X025526Y001251D02*
X022965Y001251D01*
X022965Y001349D02*
X025428Y001349D01*
X025364Y001448D02*
X022965Y001448D01*
X022965Y001546D02*
X025144Y001546D01*
X025008Y001645D02*
X022965Y001645D01*
X022965Y001743D02*
X024968Y001743D01*
X024869Y001842D02*
X022965Y001842D01*
X022882Y001940D02*
X024771Y001940D01*
X024475Y002236D02*
X021773Y002236D01*
X021821Y002334D02*
X024377Y002334D01*
X024278Y002433D02*
X021843Y002433D01*
X021843Y002531D02*
X024180Y002531D01*
X024081Y002630D02*
X021805Y002630D01*
X021734Y002728D02*
X023983Y002728D01*
X023884Y002827D02*
X022920Y002827D01*
X022965Y002925D02*
X023786Y002925D01*
X023687Y003024D02*
X022965Y003024D01*
X022965Y003122D02*
X023589Y003122D01*
X023490Y003221D02*
X022965Y003221D01*
X022965Y003319D02*
X023392Y003319D01*
X023293Y003418D02*
X022965Y003418D01*
X022965Y003516D02*
X023195Y003516D01*
X023096Y003615D02*
X022965Y003615D01*
X022965Y003713D02*
X022998Y003713D01*
X021778Y003713D02*
X021528Y003713D01*
X021528Y003615D02*
X021778Y003615D01*
X021778Y003516D02*
X021528Y003516D01*
X021528Y003418D02*
X021778Y003418D01*
X021778Y003319D02*
X021528Y003319D01*
X021528Y003221D02*
X021778Y003221D01*
X021778Y003122D02*
X021528Y003122D01*
X021528Y003024D02*
X021778Y003024D01*
X021778Y002925D02*
X021528Y002925D01*
X021573Y002827D02*
X021823Y002827D01*
X021225Y002755D02*
X021146Y002676D01*
X021089Y002538D01*
X021089Y002388D01*
X021146Y002249D01*
X021252Y002143D01*
X021391Y002086D01*
X021541Y002086D01*
X021680Y002143D01*
X021862Y001940D02*
X019338Y001940D01*
X019422Y001842D02*
X021778Y001842D01*
X021778Y001743D02*
X019422Y001743D01*
X019422Y001645D02*
X021778Y001645D01*
X021778Y001546D02*
X019422Y001546D01*
X019422Y001448D02*
X021778Y001448D01*
X021778Y001349D02*
X019422Y001349D01*
X019422Y001251D02*
X021778Y001251D01*
X021778Y001152D02*
X019422Y001152D01*
X019422Y001054D02*
X021778Y001054D01*
X021266Y002137D02*
X019934Y002137D01*
X019948Y002143D02*
X020054Y002249D01*
X020111Y002388D01*
X020111Y002538D01*
X020054Y002676D01*
X019948Y002783D01*
X019893Y002805D01*
X019970Y002805D01*
X019970Y003447D01*
X019970Y003447D01*
X019722Y003447D01*
X019722Y002935D01*
X019732Y002897D01*
X019752Y002863D01*
X019774Y002840D01*
X019659Y002840D01*
X019520Y002783D01*
X019414Y002676D01*
X019357Y002538D01*
X019357Y002388D01*
X019414Y002249D01*
X019520Y002143D01*
X019659Y002086D01*
X019809Y002086D01*
X019948Y002143D01*
X020040Y002236D02*
X021160Y002236D01*
X021111Y002334D02*
X020089Y002334D01*
X020111Y002433D02*
X021089Y002433D01*
X021089Y002531D02*
X020111Y002531D01*
X020073Y002630D02*
X021127Y002630D01*
X021198Y002728D02*
X020002Y002728D01*
X019970Y002805D02*
X020054Y002805D01*
X020104Y002755D01*
X021225Y002755D01*
X019970Y002805D02*
X019970Y003447D01*
X019970Y003447D01*
X019722Y003447D01*
X019722Y003959D01*
X019732Y003997D01*
X019752Y004031D01*
X019780Y004059D01*
X019814Y004079D01*
X019852Y004089D01*
X019970Y004089D01*
X019970Y003447D01*
X019970Y002825D01*
X019970Y002827D02*
X019970Y002827D01*
X019970Y002925D02*
X019970Y002925D01*
X019970Y003024D02*
X019970Y003024D01*
X019970Y003122D02*
X019970Y003122D01*
X019970Y003221D02*
X019970Y003221D01*
X019970Y003319D02*
X019970Y003319D01*
X019970Y003418D02*
X019970Y003418D01*
X019970Y003447D02*
X019970Y003447D01*
X019970Y004089D01*
X019978Y004089D01*
X019888Y004179D01*
X019858Y004251D01*
X019781Y004251D01*
X019664Y004368D01*
X019664Y004713D01*
X019312Y004713D01*
X019312Y004644D01*
X019195Y004527D01*
X018714Y004527D01*
X018597Y004644D01*
X018597Y005282D01*
X018622Y005307D01*
X018585Y005345D01*
X018547Y005437D01*
X018547Y006859D01*
X018527Y006859D01*
X018419Y006751D01*
X017781Y006751D01*
X017664Y006868D01*
X017664Y007349D01*
X017778Y007463D01*
X017664Y007577D01*
X017664Y008057D01*
X017781Y008175D01*
X018419Y008175D01*
X018536Y008057D01*
X018536Y007768D01*
X018821Y007768D01*
X018821Y009904D01*
X018871Y009954D01*
X018871Y010038D01*
X019317Y010038D01*
X019317Y010286D01*
X019013Y010286D01*
X019242Y010514D01*
X019254Y010527D01*
X019695Y010527D01*
X019727Y010559D01*
X019727Y010368D01*
X019844Y010251D01*
X020405Y010251D01*
X020405Y009482D01*
X020443Y009390D01*
X022978Y006855D01*
X022810Y006855D01*
X022718Y006817D01*
X022648Y006746D01*
X022618Y006675D01*
X022049Y006675D01*
X021999Y006625D01*
X021915Y006625D01*
X021831Y006625D01*
X021781Y006675D01*
X020474Y006675D01*
X020424Y006625D01*
X020340Y006625D01*
X020340Y006179D01*
X020340Y006179D01*
X020340Y006274D02*
X020340Y006274D01*
X020340Y006373D02*
X020340Y006373D01*
X020340Y006471D02*
X020340Y006471D01*
X020340Y006570D02*
X020340Y006570D01*
X020340Y006605D02*
X021915Y006605D01*
X021915Y006179D01*
X021915Y006179D01*
X021915Y006625D01*
X021915Y006179D01*
X021915Y006274D02*
X021915Y006274D01*
X021915Y006373D02*
X021915Y006373D01*
X021915Y006471D02*
X021915Y006471D01*
X021915Y006570D02*
X021915Y006570D01*
X021788Y006668D02*
X022042Y006668D01*
X022668Y006767D02*
X019761Y006767D01*
X019762Y006865D02*
X022968Y006865D01*
X022869Y006964D02*
X019818Y006964D01*
X019899Y007046D02*
X019922Y007068D01*
X019922Y009858D01*
X019742Y010038D01*
X019317Y010038D01*
X017317Y010038D01*
X017242Y009963D01*
X017106Y009963D01*
X016954Y009963D01*
X016926Y009919D02*
X016983Y009919D01*
X016983Y009820D02*
X016926Y009820D01*
X016926Y009722D02*
X016983Y009722D01*
X016983Y009623D02*
X016926Y009623D01*
X016754Y009525D02*
X018821Y009525D01*
X018821Y009623D02*
X017221Y009623D01*
X017262Y009722D02*
X018821Y009722D01*
X018821Y009820D02*
X017262Y009820D01*
X017262Y009919D02*
X018836Y009919D01*
X018871Y010017D02*
X017262Y010017D01*
X017262Y010116D02*
X018871Y010116D01*
X018893Y010214D02*
X017262Y010214D01*
X017106Y009963D02*
X015816Y008672D01*
X015816Y008530D01*
X012521Y008530D01*
X011454Y009597D01*
X011454Y009963D01*
X011426Y009934D02*
X011426Y009577D01*
X011277Y009577D01*
X011239Y009587D01*
X011205Y009607D01*
X011177Y009635D01*
X011157Y009669D01*
X011147Y009707D01*
X011147Y009934D01*
X011426Y009934D01*
X011426Y009919D02*
X011483Y009919D01*
X011483Y009820D02*
X011426Y009820D01*
X011426Y009722D02*
X011483Y009722D01*
X011483Y009623D02*
X011426Y009623D01*
X011188Y009623D02*
X011083Y009623D01*
X011103Y009644D02*
X011103Y010282D01*
X010986Y010399D01*
X010505Y010399D01*
X010448Y010342D01*
X010387Y010489D01*
X010126Y010750D01*
X009785Y010891D01*
X009415Y010891D01*
X009074Y010750D01*
X008813Y010489D01*
X008672Y010147D01*
X008672Y009778D01*
X008813Y009437D01*
X009074Y009176D01*
X009415Y009034D01*
X009785Y009034D01*
X010126Y009176D01*
X010387Y009437D01*
X010448Y009584D01*
X010505Y009527D01*
X010986Y009527D01*
X011103Y009644D01*
X011103Y009722D02*
X011147Y009722D01*
X011147Y009820D02*
X011103Y009820D01*
X011103Y009919D02*
X011147Y009919D01*
X011147Y010017D02*
X011103Y010017D01*
X011103Y010116D02*
X011147Y010116D01*
X011147Y010214D02*
X011103Y010214D01*
X011072Y010313D02*
X011199Y010313D01*
X011072Y010411D02*
X010419Y010411D01*
X010366Y010510D02*
X010948Y010510D01*
X010850Y010608D02*
X010267Y010608D01*
X010169Y010707D02*
X010751Y010707D01*
X010653Y010805D02*
X009992Y010805D01*
X010456Y011002D02*
X007772Y011002D01*
X007836Y010904D02*
X010554Y010904D01*
X010357Y011101D02*
X007255Y011101D01*
X007181Y010821D02*
X006761Y011241D01*
X006761Y011743D01*
X007600Y011743D01*
X006761Y011743D02*
X006761Y012306D01*
X007600Y013145D01*
X007600Y014183D01*
X007060Y014510D02*
X007304Y014753D01*
X007928Y014753D01*
X007970Y014711D01*
X007970Y013842D01*
X011171Y010641D01*
X011385Y010641D01*
X012201Y009825D01*
X012201Y009194D01*
X012301Y009095D01*
X015984Y009095D01*
X016533Y009645D01*
X016533Y010126D01*
X016901Y010493D01*
X018867Y010493D01*
X019100Y010726D01*
X019100Y011212D01*
X019247Y011359D01*
X020783Y011359D01*
X020970Y011172D01*
X020970Y010746D01*
X020655Y010746D02*
X020655Y009531D01*
X025095Y005092D01*
X027082Y005092D01*
X027520Y005530D01*
X030100Y005530D01*
X030100Y005817D01*
X031380Y005963D02*
X031380Y006802D01*
X033070Y006802D01*
X033070Y007416D01*
X034390Y008736D01*
X034390Y010873D01*
X033820Y010873D01*
X033312Y011243D02*
X034485Y011243D01*
X035491Y010237D01*
X037326Y010237D01*
X038100Y009463D01*
X038605Y009250D02*
X038305Y008949D01*
X035885Y008949D01*
X035583Y009251D01*
X035583Y009729D01*
X035483Y009829D01*
X035024Y009829D01*
X034828Y009633D01*
X034828Y008829D01*
X033250Y007251D01*
X033250Y006579D01*
X033326Y006503D01*
X034157Y006503D01*
X034390Y006270D01*
X034390Y004751D01*
X033852Y004213D01*
X033776Y004213D01*
X032638Y003075D01*
X032411Y003302D01*
X031380Y003302D01*
X031380Y002463D01*
X032013Y002433D02*
X032927Y002433D01*
X033025Y002334D02*
X032013Y002334D01*
X032013Y002236D02*
X033145Y002236D01*
X033152Y002233D02*
X033180Y002221D01*
X033180Y002140D01*
X033297Y002023D01*
X034343Y002023D01*
X034460Y002140D01*
X034460Y002786D01*
X034343Y002903D01*
X033297Y002903D01*
X033230Y002836D01*
X032992Y003075D01*
X033180Y003263D01*
X033180Y003050D01*
X033297Y002933D01*
X034343Y002933D01*
X034460Y003050D01*
X034460Y003131D01*
X034532Y003161D01*
X034602Y003231D01*
X034640Y003323D01*
X034640Y004339D01*
X034888Y004587D01*
X034888Y004144D01*
X034914Y004118D01*
X034858Y004062D01*
X034787Y003992D01*
X034749Y003900D01*
X034749Y002266D01*
X034410Y001926D01*
X034343Y001993D01*
X033297Y001993D01*
X033180Y001876D01*
X033180Y001230D01*
X033297Y001113D01*
X034343Y001113D01*
X034460Y001230D01*
X034460Y001311D01*
X034532Y001341D01*
X035164Y001973D01*
X035164Y001868D01*
X035281Y001751D01*
X035919Y001751D01*
X036027Y001859D01*
X036795Y001859D01*
X036887Y001897D01*
X036914Y001923D01*
X036987Y001893D01*
X037213Y001893D01*
X037423Y001980D01*
X037583Y002140D01*
X037600Y002180D01*
X037617Y002140D01*
X037777Y001980D01*
X037987Y001893D01*
X038213Y001893D01*
X038423Y001980D01*
X038583Y002140D01*
X038670Y002349D01*
X038670Y002576D01*
X038583Y002786D01*
X038423Y002946D01*
X038213Y003033D01*
X037987Y003033D01*
X037777Y002946D01*
X037617Y002786D01*
X037600Y002745D01*
X037583Y002786D01*
X037423Y002946D01*
X037213Y003033D01*
X036987Y003033D01*
X036777Y002946D01*
X036617Y002786D01*
X036530Y002576D01*
X036530Y002359D01*
X036027Y002359D01*
X035919Y002466D01*
X035281Y002466D01*
X035249Y002434D01*
X035249Y002562D01*
X035272Y002540D01*
X035306Y002520D01*
X035344Y002510D01*
X035571Y002510D01*
X035571Y002788D01*
X035629Y002788D01*
X035629Y002510D01*
X035856Y002510D01*
X035894Y002520D01*
X035928Y002540D01*
X035956Y002568D01*
X035976Y002602D01*
X035986Y002640D01*
X035986Y002788D01*
X035629Y002788D01*
X035629Y002846D01*
X035986Y002846D01*
X035986Y002994D01*
X035976Y003033D01*
X035956Y003067D01*
X035928Y003095D01*
X035894Y003114D01*
X035856Y003125D01*
X035629Y003125D01*
X035629Y002846D01*
X035571Y002846D01*
X035249Y002846D01*
X035249Y002788D01*
X035571Y002788D01*
X035571Y002846D01*
X035571Y003125D01*
X035344Y003125D01*
X035306Y003114D01*
X035272Y003095D01*
X035249Y003072D01*
X035249Y003747D01*
X035458Y003955D01*
X035488Y004029D01*
X035600Y004141D01*
X035714Y004027D01*
X036195Y004027D01*
X036288Y004120D01*
X036338Y004071D01*
X036508Y004000D01*
X036692Y004000D01*
X036862Y004071D01*
X036992Y004201D01*
X037062Y004371D01*
X037062Y004555D01*
X037034Y004624D01*
X037085Y004624D01*
X037142Y004567D01*
X037138Y004555D01*
X037138Y004371D01*
X037208Y004201D01*
X037338Y004071D01*
X037508Y004000D01*
X037692Y004000D01*
X037862Y004071D01*
X037992Y004201D01*
X038062Y004371D01*
X038062Y004555D01*
X037992Y004725D01*
X037862Y004855D01*
X037692Y004925D01*
X037508Y004925D01*
X037496Y004920D01*
X037330Y005086D01*
X037239Y005124D01*
X035072Y005124D01*
X035072Y006077D01*
X035217Y006077D01*
X035274Y006077D01*
X035423Y006077D01*
X035461Y006087D01*
X035495Y006107D01*
X035523Y006135D01*
X035543Y006169D01*
X035553Y006207D01*
X035553Y006434D01*
X035274Y006434D01*
X035274Y006077D01*
X035217Y006077D02*
X035217Y006434D01*
X035274Y006434D01*
X035274Y006492D01*
X035217Y006492D01*
X035217Y006849D01*
X035068Y006849D01*
X035030Y006839D01*
X034996Y006819D01*
X034968Y006791D01*
X034948Y006757D01*
X034938Y006719D01*
X034938Y006678D01*
X034532Y007085D01*
X034460Y007114D01*
X034460Y007195D01*
X034343Y007313D01*
X033665Y007313D01*
X035040Y008687D01*
X035078Y008779D01*
X035078Y009077D01*
X035217Y009077D01*
X035217Y009434D01*
X035274Y009434D01*
X035274Y009077D01*
X035404Y009077D01*
X035441Y009039D01*
X035743Y008737D01*
X035835Y008699D01*
X038354Y008699D01*
X038446Y008737D01*
X038517Y008808D01*
X038817Y009108D01*
X038855Y009200D01*
X038855Y009923D01*
X038817Y010015D01*
X038747Y010085D01*
X037791Y011041D01*
X037862Y011071D01*
X037992Y011201D01*
X038062Y011371D01*
X038062Y011555D01*
X037992Y011725D01*
X037862Y011855D01*
X037692Y011925D01*
X037508Y011925D01*
X037338Y011855D01*
X037247Y011764D01*
X037242Y011769D01*
X036583Y012427D01*
X036491Y012465D01*
X036226Y012465D01*
X035440Y013251D01*
X035919Y013251D01*
X036027Y013359D01*
X036530Y013359D01*
X036530Y013349D01*
X036617Y013140D01*
X036777Y012980D01*
X036987Y012893D01*
X037213Y012893D01*
X037423Y012980D01*
X037583Y013140D01*
X037600Y013180D01*
X037617Y013140D01*
X037777Y012980D01*
X037987Y012893D01*
X038213Y012893D01*
X038423Y012980D01*
X038583Y013140D01*
X038670Y013349D01*
X038670Y013576D01*
X038583Y013786D01*
X038423Y013946D01*
X038213Y014033D01*
X037987Y014033D01*
X037777Y013946D01*
X037617Y013786D01*
X037600Y013745D01*
X037583Y013786D01*
X037423Y013946D01*
X037213Y014033D01*
X036987Y014033D01*
X036777Y013946D01*
X036690Y013859D01*
X036026Y013859D01*
X036027Y013859D02*
X035919Y013966D01*
X035281Y013966D01*
X035164Y013849D01*
X035164Y013528D01*
X034640Y014051D01*
X034640Y014422D01*
X034602Y014514D01*
X034532Y014585D01*
X034460Y014614D01*
X034460Y014695D01*
X034343Y014813D01*
X033297Y014813D01*
X033180Y014695D01*
X033180Y014050D01*
X033297Y013933D01*
X034140Y013933D01*
X034140Y013903D01*
X033297Y013903D01*
X033180Y013786D01*
X032013Y013786D01*
X032013Y014254D01*
X031896Y014371D01*
X030864Y014371D01*
X030747Y014254D01*
X030747Y013859D01*
X030526Y013859D01*
X030527Y013859D02*
X030419Y013966D01*
X029781Y013966D01*
X029673Y013859D01*
X027451Y013859D01*
X027359Y013820D01*
X027288Y013750D01*
X024955Y011416D01*
X024948Y011399D01*
X024505Y011399D01*
X024388Y011282D01*
X024388Y011204D01*
X024317Y011175D01*
X024138Y010996D01*
X023473Y010996D01*
X023473Y011030D01*
X023534Y011030D01*
X023681Y011091D01*
X023793Y011203D01*
X023854Y011350D01*
X023854Y011509D01*
X023802Y011634D01*
X023812Y011644D01*
X023812Y012282D01*
X023695Y012399D01*
X023214Y012399D01*
X023097Y012282D01*
X023097Y011644D01*
X023106Y011634D01*
X023054Y011509D01*
X023054Y011350D01*
X023099Y011242D01*
X022994Y011242D01*
X022944Y011192D01*
X022860Y011192D01*
X022860Y010746D01*
X022860Y010301D01*
X022925Y010301D01*
X022925Y010271D01*
X022963Y010179D01*
X023020Y010123D01*
X023020Y008187D01*
X022931Y008098D01*
X022870Y007951D01*
X022870Y007792D01*
X022931Y007645D01*
X023043Y007533D01*
X023190Y007472D01*
X023349Y007472D01*
X023438Y007509D01*
X023438Y007434D01*
X023388Y007384D01*
X023388Y007152D01*
X020905Y009635D01*
X020905Y010251D01*
X022726Y010251D01*
X022776Y010301D01*
X022860Y010301D01*
X022860Y010746D01*
X022860Y010746D01*
X022860Y012032D01*
X022746Y012146D01*
X022746Y011963D01*
X022774Y011987D02*
X023097Y011987D01*
X023053Y011992D02*
X023053Y012219D01*
X023043Y012257D01*
X023023Y012291D01*
X022995Y012319D01*
X022961Y012339D01*
X022923Y012349D01*
X022774Y012349D01*
X022774Y011992D01*
X022717Y011992D01*
X022717Y012349D01*
X022568Y012349D01*
X022530Y012339D01*
X022496Y012319D01*
X022468Y012291D01*
X022448Y012257D01*
X022438Y012219D01*
X022438Y011992D01*
X022717Y011992D01*
X022717Y011934D01*
X022774Y011934D01*
X022774Y011577D01*
X022923Y011577D01*
X022961Y011587D01*
X022995Y011607D01*
X023023Y011635D01*
X023043Y011669D01*
X023053Y011707D01*
X023053Y011934D01*
X022774Y011934D01*
X022774Y011992D01*
X023053Y011992D01*
X023053Y012086D02*
X023097Y012086D01*
X023097Y012184D02*
X023053Y012184D01*
X023028Y012283D02*
X023098Y012283D01*
X023196Y012381D02*
X020744Y012381D01*
X020842Y012283D02*
X022463Y012283D01*
X022438Y012184D02*
X020941Y012184D01*
X021039Y012086D02*
X022438Y012086D01*
X022438Y011934D02*
X022438Y011707D01*
X022448Y011669D01*
X022468Y011635D01*
X022496Y011607D01*
X022530Y011587D01*
X022568Y011577D01*
X022717Y011577D01*
X022717Y011934D01*
X022438Y011934D01*
X022438Y011889D02*
X021236Y011889D01*
X021138Y011987D02*
X022717Y011987D01*
X022717Y011889D02*
X022774Y011889D01*
X022774Y011790D02*
X022717Y011790D01*
X022717Y011692D02*
X022774Y011692D01*
X022774Y011593D02*
X022717Y011593D01*
X022519Y011593D02*
X021532Y011593D01*
X021630Y011495D02*
X023054Y011495D01*
X023054Y011396D02*
X021729Y011396D01*
X021812Y011313D02*
X018162Y014963D01*
X039100Y014963D01*
X039100Y000963D01*
X029335Y000963D01*
X029620Y001247D01*
X029620Y001413D01*
X029150Y001413D01*
X029150Y001513D01*
X029620Y001513D01*
X029620Y001678D01*
X029371Y001927D01*
X029670Y002227D01*
X029670Y002699D01*
X029336Y003033D01*
X028884Y003033D01*
X027747Y004169D01*
X027677Y004239D01*
X027585Y004278D01*
X025005Y004278D01*
X023473Y005809D01*
X023473Y006105D01*
X024993Y004585D01*
X025064Y004515D01*
X025156Y004476D01*
X027233Y004476D01*
X027322Y004387D01*
X027469Y004326D01*
X027628Y004326D01*
X027775Y004387D01*
X027888Y004500D01*
X027949Y004647D01*
X027949Y004806D01*
X027888Y004953D01*
X027775Y005066D01*
X027628Y005126D01*
X027471Y005126D01*
X027624Y005280D01*
X029664Y005280D01*
X029664Y004868D01*
X029781Y004751D01*
X030419Y004751D01*
X030471Y004803D01*
X030472Y004803D01*
X033180Y004803D01*
X033180Y004730D01*
X033297Y004613D01*
X033899Y004613D01*
X033749Y004463D01*
X033726Y004463D01*
X033634Y004425D01*
X032638Y003428D01*
X032588Y003478D01*
X032553Y003513D01*
X032553Y003513D01*
X032553Y003513D01*
X032505Y003533D01*
X032461Y003552D01*
X032411Y003552D01*
X031330Y003552D01*
X031238Y003513D01*
X031168Y003443D01*
X031138Y003371D01*
X030864Y003371D01*
X030747Y003254D01*
X030747Y001671D01*
X030864Y001554D01*
X031896Y001554D01*
X032013Y001671D01*
X032013Y003052D01*
X032308Y003052D01*
X032462Y002897D01*
X032479Y002881D01*
X033038Y002321D01*
X033069Y002290D01*
X033108Y002251D01*
X033108Y002251D01*
X033108Y002251D01*
X033152Y002233D01*
X033183Y002137D02*
X032013Y002137D01*
X032013Y002039D02*
X033281Y002039D01*
X033245Y001940D02*
X032013Y001940D01*
X032013Y001842D02*
X033180Y001842D01*
X033180Y001743D02*
X032013Y001743D01*
X031986Y001645D02*
X033180Y001645D01*
X033180Y001546D02*
X029620Y001546D01*
X029600Y001463D02*
X029880Y001183D01*
X034346Y001183D01*
X035214Y002051D01*
X035214Y002324D01*
X035420Y002530D01*
X035600Y002530D01*
X035600Y002817D01*
X036542Y002817D01*
X038199Y004474D01*
X037087Y005586D01*
X036230Y005586D01*
X035533Y006283D01*
X035533Y006463D01*
X035389Y006463D01*
X035246Y006463D01*
X035274Y006471D02*
X035597Y006471D01*
X035553Y006492D02*
X035553Y006719D01*
X035543Y006757D01*
X035523Y006791D01*
X035495Y006819D01*
X035461Y006839D01*
X035423Y006849D01*
X035274Y006849D01*
X035274Y006492D01*
X035553Y006492D01*
X035553Y006570D02*
X035597Y006570D01*
X035597Y006668D02*
X035553Y006668D01*
X035537Y006767D02*
X035597Y006767D01*
X035597Y006782D02*
X035597Y006144D01*
X035714Y006027D01*
X036195Y006027D01*
X036312Y006144D01*
X036312Y006213D01*
X036587Y006213D01*
X036617Y006140D01*
X036777Y005980D01*
X036987Y005893D01*
X037213Y005893D01*
X037423Y005980D01*
X037583Y006140D01*
X037600Y006180D01*
X037617Y006140D01*
X037777Y005980D01*
X037987Y005893D01*
X038213Y005893D01*
X038423Y005980D01*
X038583Y006140D01*
X038670Y006349D01*
X038670Y006576D01*
X038583Y006786D01*
X038423Y006946D01*
X038213Y007033D01*
X037987Y007033D01*
X037777Y006946D01*
X037617Y006786D01*
X037600Y006745D01*
X037583Y006786D01*
X037423Y006946D01*
X037213Y007033D01*
X036987Y007033D01*
X036777Y006946D01*
X036617Y006786D01*
X036587Y006713D01*
X036312Y006713D01*
X036312Y006782D01*
X036195Y006899D01*
X035714Y006899D01*
X035597Y006782D01*
X035680Y006865D02*
X034751Y006865D01*
X034849Y006767D02*
X034954Y006767D01*
X035217Y006767D02*
X035274Y006767D01*
X035274Y006668D02*
X035217Y006668D01*
X035217Y006570D02*
X035274Y006570D01*
X035389Y006463D02*
X035389Y008949D01*
X035246Y009093D01*
X035246Y009463D01*
X035274Y009492D02*
X035274Y009579D01*
X035217Y009579D01*
X035217Y009492D01*
X035274Y009492D01*
X035333Y009492D01*
X035333Y009434D01*
X035274Y009434D01*
X035274Y009492D01*
X035274Y009525D02*
X035217Y009525D01*
X035217Y009492D02*
X035078Y009492D01*
X035078Y009434D01*
X035217Y009434D01*
X035217Y009492D01*
X035217Y009426D02*
X035274Y009426D01*
X035274Y009328D02*
X035217Y009328D01*
X035217Y009229D02*
X035274Y009229D01*
X035274Y009131D02*
X035217Y009131D01*
X035078Y009032D02*
X035448Y009032D01*
X035389Y008949D02*
X035569Y008769D01*
X038379Y008769D01*
X038805Y009195D01*
X038805Y011257D01*
X038600Y011463D01*
X037527Y012535D01*
X036067Y012535D01*
X035232Y013371D01*
X035232Y013841D01*
X034319Y014753D01*
X030248Y014753D01*
X030100Y014605D01*
X030100Y014317D01*
X024734Y014317D01*
X022746Y012329D01*
X022746Y012146D01*
X022717Y012184D02*
X022774Y012184D01*
X022774Y012086D02*
X022717Y012086D01*
X022717Y012283D02*
X022774Y012283D01*
X023053Y011889D02*
X023097Y011889D01*
X023097Y011790D02*
X023053Y011790D01*
X023049Y011692D02*
X023097Y011692D01*
X023089Y011593D02*
X022972Y011593D01*
X023454Y011597D02*
X023454Y011430D01*
X023454Y011597D02*
X023454Y011963D01*
X023812Y011987D02*
X025526Y011987D01*
X025427Y011889D02*
X023812Y011889D01*
X023812Y011790D02*
X025329Y011790D01*
X025230Y011692D02*
X023812Y011692D01*
X023819Y011593D02*
X025132Y011593D01*
X025033Y011495D02*
X023854Y011495D01*
X023854Y011396D02*
X024503Y011396D01*
X024404Y011298D02*
X023833Y011298D01*
X023790Y011199D02*
X024376Y011199D01*
X024243Y011101D02*
X023691Y011101D01*
X023473Y011002D02*
X024144Y011002D01*
X024242Y010746D02*
X024458Y010963D01*
X024746Y010963D01*
X025167Y010798D02*
X025167Y011275D01*
X027500Y013609D01*
X030100Y013609D01*
X031307Y013609D01*
X031380Y013536D01*
X031380Y013463D01*
X031380Y013536D02*
X033177Y013536D01*
X033250Y013463D01*
X033820Y013463D01*
X033253Y013859D02*
X032013Y013859D01*
X032013Y013957D02*
X033273Y013957D01*
X033180Y014056D02*
X032013Y014056D01*
X032013Y014154D02*
X033180Y014154D01*
X033180Y014253D02*
X032013Y014253D01*
X031916Y014351D02*
X033180Y014351D01*
X033180Y014450D02*
X030486Y014450D01*
X030486Y014494D02*
X030486Y014346D01*
X030129Y014346D01*
X030129Y014288D01*
X030129Y014010D01*
X030356Y014010D01*
X030394Y014020D01*
X030428Y014040D01*
X030456Y014068D01*
X030476Y014102D01*
X030486Y014140D01*
X030486Y014288D01*
X030129Y014288D01*
X030071Y014288D01*
X030071Y014010D01*
X029844Y014010D01*
X029806Y014020D01*
X029772Y014040D01*
X029744Y014068D01*
X029724Y014102D01*
X029714Y014140D01*
X029714Y014288D01*
X030071Y014288D01*
X030071Y014346D01*
X029714Y014346D01*
X029714Y014494D01*
X029724Y014533D01*
X029744Y014567D01*
X029772Y014595D01*
X029806Y014614D01*
X029844Y014625D01*
X030071Y014625D01*
X030071Y014346D01*
X030129Y014346D01*
X030129Y014625D01*
X030356Y014625D01*
X030394Y014614D01*
X030428Y014595D01*
X030456Y014567D01*
X030476Y014533D01*
X030486Y014494D01*
X030467Y014548D02*
X033180Y014548D01*
X033180Y014647D02*
X018478Y014647D01*
X018380Y014745D02*
X033230Y014745D01*
X033820Y014373D02*
X034390Y014373D01*
X034390Y013948D01*
X036122Y012215D01*
X036441Y012215D01*
X037100Y011557D01*
X037100Y011379D01*
X038605Y009873D01*
X038605Y009250D01*
X038855Y009229D02*
X039100Y009229D01*
X039100Y009131D02*
X038827Y009131D01*
X038741Y009032D02*
X039100Y009032D01*
X039100Y008934D02*
X038643Y008934D01*
X038544Y008835D02*
X039100Y008835D01*
X039100Y008737D02*
X038445Y008737D01*
X039100Y008638D02*
X034991Y008638D01*
X035060Y008737D02*
X035744Y008737D01*
X035645Y008835D02*
X035078Y008835D01*
X035078Y008934D02*
X035547Y008934D01*
X035954Y009463D02*
X037100Y009463D01*
X038618Y010214D02*
X039100Y010214D01*
X039100Y010116D02*
X038716Y010116D01*
X038815Y010017D02*
X039100Y010017D01*
X039100Y009919D02*
X038855Y009919D01*
X038855Y009820D02*
X039100Y009820D01*
X039100Y009722D02*
X038855Y009722D01*
X038855Y009623D02*
X039100Y009623D01*
X039100Y009525D02*
X038855Y009525D01*
X038855Y009426D02*
X039100Y009426D01*
X039100Y009328D02*
X038855Y009328D01*
X039100Y008540D02*
X034893Y008540D01*
X034794Y008441D02*
X039100Y008441D01*
X039100Y008343D02*
X034696Y008343D01*
X034597Y008244D02*
X039100Y008244D01*
X039100Y008146D02*
X034499Y008146D01*
X034400Y008047D02*
X039100Y008047D01*
X039100Y007949D02*
X034301Y007949D01*
X034203Y007850D02*
X039100Y007850D01*
X039100Y007752D02*
X034104Y007752D01*
X034006Y007653D02*
X039100Y007653D01*
X039100Y007555D02*
X033907Y007555D01*
X033809Y007456D02*
X039100Y007456D01*
X039100Y007358D02*
X033710Y007358D01*
X034396Y007259D02*
X039100Y007259D01*
X039100Y007161D02*
X034460Y007161D01*
X034554Y007062D02*
X039100Y007062D01*
X039100Y006964D02*
X038380Y006964D01*
X038504Y006865D02*
X039100Y006865D01*
X039100Y006767D02*
X038591Y006767D01*
X038632Y006668D02*
X039100Y006668D01*
X039100Y006570D02*
X038670Y006570D01*
X038670Y006471D02*
X039100Y006471D01*
X039100Y006373D02*
X038670Y006373D01*
X038639Y006274D02*
X039100Y006274D01*
X039100Y006176D02*
X038598Y006176D01*
X038521Y006077D02*
X039100Y006077D01*
X039100Y005979D02*
X038421Y005979D01*
X039100Y005880D02*
X035072Y005880D01*
X035072Y005782D02*
X039100Y005782D01*
X039100Y005683D02*
X035072Y005683D01*
X035072Y005585D02*
X039100Y005585D01*
X039100Y005486D02*
X035072Y005486D01*
X035072Y005388D02*
X039100Y005388D01*
X039100Y005289D02*
X035072Y005289D01*
X035072Y005191D02*
X039100Y005191D01*
X039100Y005092D02*
X037315Y005092D01*
X037423Y004994D02*
X039100Y004994D01*
X039100Y004895D02*
X037764Y004895D01*
X037920Y004797D02*
X038358Y004797D01*
X038384Y004816D02*
X038331Y004777D01*
X038285Y004732D01*
X038247Y004679D01*
X038218Y004621D01*
X038198Y004559D01*
X038188Y004500D01*
X038562Y004500D01*
X038562Y004425D01*
X038188Y004425D01*
X038198Y004366D01*
X038218Y004304D01*
X038035Y004304D01*
X038062Y004403D02*
X038192Y004403D01*
X038199Y004474D02*
X038589Y004474D01*
X038600Y004463D01*
X038638Y004500D02*
X039012Y004500D01*
X039002Y004559D01*
X038982Y004621D01*
X038953Y004679D01*
X038915Y004732D01*
X038869Y004777D01*
X038816Y004816D01*
X038758Y004845D01*
X038697Y004865D01*
X038638Y004875D01*
X038638Y004500D01*
X038638Y004425D01*
X039012Y004425D01*
X039002Y004366D01*
X038982Y004304D01*
X039100Y004304D01*
X039100Y004206D02*
X038923Y004206D01*
X038915Y004194D02*
X038953Y004247D01*
X038982Y004304D01*
X039008Y004403D02*
X039100Y004403D01*
X039100Y004501D02*
X039012Y004501D01*
X038989Y004600D02*
X039100Y004600D01*
X039100Y004698D02*
X038939Y004698D01*
X038842Y004797D02*
X039100Y004797D01*
X038638Y004797D02*
X038562Y004797D01*
X038562Y004875D02*
X038503Y004865D01*
X038442Y004845D01*
X038384Y004816D01*
X038261Y004698D02*
X038003Y004698D01*
X038044Y004600D02*
X038211Y004600D01*
X038188Y004501D02*
X038062Y004501D01*
X038218Y004304D02*
X038247Y004247D01*
X038285Y004194D01*
X038331Y004148D01*
X038384Y004110D01*
X038442Y004081D01*
X038503Y004060D01*
X038562Y004051D01*
X038562Y004425D01*
X038638Y004425D01*
X038638Y004051D01*
X038697Y004060D01*
X038758Y004081D01*
X038816Y004110D01*
X038869Y004148D01*
X038915Y004194D01*
X038811Y004107D02*
X039100Y004107D01*
X039100Y004009D02*
X037713Y004009D01*
X037899Y004107D02*
X038389Y004107D01*
X038277Y004206D02*
X037994Y004206D01*
X037600Y004463D02*
X037189Y004874D01*
X034822Y004874D01*
X034390Y004442D01*
X034390Y003373D01*
X033820Y003373D01*
X033180Y003221D02*
X033138Y003221D01*
X033180Y003122D02*
X033039Y003122D01*
X033043Y003024D02*
X033206Y003024D01*
X033141Y002925D02*
X034749Y002925D01*
X034749Y002827D02*
X034419Y002827D01*
X034460Y002728D02*
X034749Y002728D01*
X034749Y002630D02*
X034460Y002630D01*
X034460Y002531D02*
X034749Y002531D01*
X034749Y002433D02*
X034460Y002433D01*
X034460Y002334D02*
X034749Y002334D01*
X034719Y002236D02*
X034460Y002236D01*
X034457Y002137D02*
X034621Y002137D01*
X034522Y002039D02*
X034359Y002039D01*
X034395Y001940D02*
X034424Y001940D01*
X034390Y001553D02*
X034999Y002162D01*
X034999Y003850D01*
X035246Y004097D01*
X035246Y004463D01*
X034888Y004501D02*
X034803Y004501D01*
X034888Y004403D02*
X034704Y004403D01*
X034640Y004304D02*
X034888Y004304D01*
X034888Y004206D02*
X034640Y004206D01*
X034640Y004107D02*
X034903Y004107D01*
X034804Y004009D02*
X034640Y004009D01*
X034640Y003910D02*
X034754Y003910D01*
X034749Y003812D02*
X034640Y003812D01*
X034640Y003713D02*
X034749Y003713D01*
X034749Y003615D02*
X034640Y003615D01*
X034640Y003516D02*
X034749Y003516D01*
X034749Y003418D02*
X034640Y003418D01*
X034639Y003319D02*
X034749Y003319D01*
X034749Y003221D02*
X034592Y003221D01*
X034460Y003122D02*
X034749Y003122D01*
X034749Y003024D02*
X034434Y003024D01*
X035249Y003122D02*
X035335Y003122D01*
X035249Y003221D02*
X039100Y003221D01*
X039100Y003319D02*
X035249Y003319D01*
X035249Y003418D02*
X039100Y003418D01*
X039100Y003516D02*
X035249Y003516D01*
X035249Y003615D02*
X039100Y003615D01*
X039100Y003713D02*
X035249Y003713D01*
X035314Y003812D02*
X039100Y003812D01*
X039100Y003910D02*
X035413Y003910D01*
X035480Y004009D02*
X036487Y004009D01*
X036301Y004107D02*
X036275Y004107D01*
X036713Y004009D02*
X037487Y004009D01*
X037301Y004107D02*
X036899Y004107D01*
X036994Y004206D02*
X037206Y004206D01*
X037165Y004304D02*
X037035Y004304D01*
X037062Y004403D02*
X037138Y004403D01*
X037138Y004501D02*
X037062Y004501D01*
X037044Y004600D02*
X037109Y004600D01*
X036600Y004463D02*
X035954Y004463D01*
X035633Y004107D02*
X035567Y004107D01*
X033886Y004600D02*
X027929Y004600D01*
X027949Y004698D02*
X033212Y004698D01*
X033180Y004797D02*
X030465Y004797D01*
X029735Y004797D02*
X027949Y004797D01*
X027912Y004895D02*
X029664Y004895D01*
X029664Y004994D02*
X027847Y004994D01*
X027711Y005092D02*
X029664Y005092D01*
X029664Y005191D02*
X027535Y005191D01*
X027549Y004726D02*
X025205Y004726D01*
X023327Y006605D01*
X022860Y006605D01*
X022860Y006179D01*
X023175Y006179D02*
X023175Y005754D01*
X024901Y004028D01*
X027535Y004028D01*
X029100Y002463D01*
X029670Y002433D02*
X030747Y002433D01*
X030747Y002531D02*
X029670Y002531D01*
X029670Y002630D02*
X030747Y002630D01*
X030747Y002728D02*
X029641Y002728D01*
X029542Y002827D02*
X030747Y002827D01*
X030747Y002925D02*
X029444Y002925D01*
X029345Y003024D02*
X030747Y003024D01*
X030747Y003122D02*
X028794Y003122D01*
X028696Y003221D02*
X030747Y003221D01*
X030812Y003319D02*
X028597Y003319D01*
X028499Y003418D02*
X031158Y003418D01*
X031245Y003516D02*
X028400Y003516D01*
X028302Y003615D02*
X032824Y003615D01*
X032726Y003516D02*
X032546Y003516D01*
X032461Y003552D02*
X032461Y003552D01*
X032461Y003552D01*
X032923Y003713D02*
X028203Y003713D01*
X028105Y003812D02*
X033021Y003812D01*
X033120Y003910D02*
X028006Y003910D01*
X027908Y004009D02*
X033218Y004009D01*
X033317Y004107D02*
X027809Y004107D01*
X027711Y004206D02*
X033415Y004206D01*
X033514Y004304D02*
X024978Y004304D01*
X024880Y004403D02*
X027307Y004403D01*
X027791Y004403D02*
X033612Y004403D01*
X033787Y004501D02*
X027889Y004501D01*
X027107Y003456D02*
X025218Y003456D01*
X022920Y005754D01*
X022545Y005754D01*
X022545Y006179D01*
X023473Y006077D02*
X023501Y006077D01*
X023473Y005979D02*
X023599Y005979D01*
X023698Y005880D02*
X023473Y005880D01*
X023501Y005782D02*
X023796Y005782D01*
X023895Y005683D02*
X023599Y005683D01*
X023698Y005585D02*
X023993Y005585D01*
X024092Y005486D02*
X023796Y005486D01*
X023895Y005388D02*
X024190Y005388D01*
X024289Y005289D02*
X023993Y005289D01*
X024092Y005191D02*
X024387Y005191D01*
X024486Y005092D02*
X024190Y005092D01*
X024289Y004994D02*
X024584Y004994D01*
X024683Y004895D02*
X024387Y004895D01*
X024486Y004797D02*
X024781Y004797D01*
X024880Y004698D02*
X024584Y004698D01*
X024683Y004600D02*
X024978Y004600D01*
X025096Y004501D02*
X024781Y004501D01*
X027107Y003456D02*
X028100Y002463D01*
X027100Y002463D02*
X025668Y002463D01*
X025600Y002395D01*
X025600Y002140D01*
X029150Y001448D02*
X033180Y001448D01*
X033180Y001349D02*
X029620Y001349D01*
X029620Y001251D02*
X033180Y001251D01*
X033258Y001152D02*
X029525Y001152D01*
X029426Y001054D02*
X039100Y001054D01*
X039100Y001152D02*
X034382Y001152D01*
X034460Y001251D02*
X039100Y001251D01*
X039100Y001349D02*
X034540Y001349D01*
X034638Y001448D02*
X039100Y001448D01*
X039100Y001546D02*
X034737Y001546D01*
X034835Y001645D02*
X039100Y001645D01*
X039100Y001743D02*
X034934Y001743D01*
X035032Y001842D02*
X035190Y001842D01*
X035164Y001940D02*
X035131Y001940D01*
X035600Y002109D02*
X036746Y002109D01*
X037100Y002463D01*
X036530Y002433D02*
X035952Y002433D01*
X035914Y002531D02*
X036530Y002531D01*
X036552Y002630D02*
X035984Y002630D01*
X035986Y002728D02*
X036593Y002728D01*
X036658Y002827D02*
X035629Y002827D01*
X035571Y002827D02*
X035249Y002827D01*
X035571Y002925D02*
X035629Y002925D01*
X035629Y003024D02*
X035571Y003024D01*
X035571Y003122D02*
X035629Y003122D01*
X035865Y003122D02*
X039100Y003122D01*
X039100Y003024D02*
X038235Y003024D01*
X038444Y002925D02*
X039100Y002925D01*
X039100Y002827D02*
X038542Y002827D01*
X038607Y002728D02*
X039100Y002728D01*
X039100Y002630D02*
X038648Y002630D01*
X038670Y002531D02*
X039100Y002531D01*
X039100Y002433D02*
X038670Y002433D01*
X038664Y002334D02*
X039100Y002334D01*
X039100Y002236D02*
X038623Y002236D01*
X038581Y002137D02*
X039100Y002137D01*
X039100Y002039D02*
X038482Y002039D01*
X038328Y001940D02*
X039100Y001940D01*
X039100Y001842D02*
X036010Y001842D01*
X037328Y001940D02*
X037872Y001940D01*
X037718Y002039D02*
X037482Y002039D01*
X037581Y002137D02*
X037619Y002137D01*
X037658Y002827D02*
X037542Y002827D01*
X037444Y002925D02*
X037756Y002925D01*
X037965Y003024D02*
X037235Y003024D01*
X036965Y003024D02*
X035978Y003024D01*
X035986Y002925D02*
X036756Y002925D01*
X035629Y002728D02*
X035571Y002728D01*
X035571Y002630D02*
X035629Y002630D01*
X035629Y002531D02*
X035571Y002531D01*
X035286Y002531D02*
X035249Y002531D01*
X033820Y002463D02*
X033250Y002463D01*
X032638Y003075D01*
X032434Y002925D02*
X032013Y002925D01*
X032013Y002827D02*
X032533Y002827D01*
X032631Y002728D02*
X032013Y002728D01*
X032013Y002630D02*
X032730Y002630D01*
X032828Y002531D02*
X032013Y002531D01*
X032013Y003024D02*
X032336Y003024D01*
X033038Y002321D02*
X033038Y002321D01*
X033820Y001553D02*
X034390Y001553D01*
X030773Y001645D02*
X029620Y001645D01*
X029555Y001743D02*
X030747Y001743D01*
X030747Y001842D02*
X029456Y001842D01*
X029384Y001940D02*
X030747Y001940D01*
X030747Y002039D02*
X029482Y002039D01*
X029581Y002137D02*
X030747Y002137D01*
X030747Y002236D02*
X029670Y002236D01*
X029670Y002334D02*
X030747Y002334D01*
X029600Y001463D02*
X029350Y001463D01*
X021778Y003812D02*
X021528Y003812D01*
X021528Y003910D02*
X021778Y003910D01*
X021778Y004009D02*
X021565Y004009D01*
X021664Y004107D02*
X021752Y004107D01*
X021100Y004321D02*
X020852Y004321D01*
X020600Y004069D01*
X020600Y003447D01*
X020285Y003447D02*
X020285Y004136D01*
X020100Y004321D01*
X020100Y004609D01*
X019664Y004600D02*
X019268Y004600D01*
X019312Y004698D02*
X019664Y004698D01*
X019664Y004501D02*
X015914Y004501D01*
X015887Y004437D02*
X015948Y004584D01*
X016005Y004527D01*
X016486Y004527D01*
X016603Y004644D01*
X016603Y005282D01*
X016486Y005399D01*
X016005Y005399D01*
X015948Y005342D01*
X015887Y005489D01*
X015626Y005750D01*
X015285Y005891D01*
X014915Y005891D01*
X014574Y005750D01*
X014313Y005489D01*
X014172Y005147D01*
X014172Y004778D01*
X014313Y004437D01*
X014574Y004176D01*
X014915Y004034D01*
X015285Y004034D01*
X015626Y004176D01*
X015887Y004437D01*
X015853Y004403D02*
X019664Y004403D01*
X019728Y004304D02*
X015754Y004304D01*
X015656Y004206D02*
X019877Y004206D01*
X019960Y004107D02*
X019337Y004107D01*
X019305Y004139D02*
X019422Y004022D01*
X019422Y002872D01*
X019305Y002755D01*
X018352Y002755D01*
X018235Y002872D01*
X018235Y004022D01*
X018352Y004139D01*
X019305Y004139D01*
X019247Y004069D02*
X018533Y004783D01*
X018533Y004963D01*
X018246Y004963D01*
X017958Y004963D01*
X017775Y005146D01*
X016954Y005146D01*
X016954Y004963D01*
X016954Y002463D01*
X016926Y002492D02*
X016926Y002434D01*
X016983Y002434D01*
X016983Y002077D01*
X017132Y002077D01*
X017170Y002087D01*
X017204Y002107D01*
X017232Y002135D01*
X017252Y002169D01*
X017262Y002207D01*
X017262Y002434D01*
X016983Y002434D01*
X016983Y002492D01*
X016926Y002492D01*
X016926Y002849D01*
X016777Y002849D01*
X016739Y002839D01*
X016705Y002819D01*
X016677Y002791D01*
X016657Y002757D01*
X016647Y002719D01*
X016647Y002492D01*
X016926Y002492D01*
X016926Y002531D02*
X016983Y002531D01*
X016983Y002492D02*
X016983Y002849D01*
X017132Y002849D01*
X017170Y002839D01*
X017204Y002819D01*
X017232Y002791D01*
X017252Y002757D01*
X017262Y002719D01*
X017262Y002492D01*
X016983Y002492D01*
X016983Y002433D02*
X016926Y002433D01*
X016926Y002434D02*
X016926Y002077D01*
X016777Y002077D01*
X016739Y002087D01*
X016705Y002107D01*
X016677Y002135D01*
X016657Y002169D01*
X016647Y002207D01*
X016647Y002434D01*
X016926Y002434D01*
X016926Y002334D02*
X016983Y002334D01*
X016983Y002236D02*
X016926Y002236D01*
X016926Y002137D02*
X016983Y002137D01*
X017233Y002137D02*
X019534Y002137D01*
X019427Y002236D02*
X017262Y002236D01*
X017262Y002334D02*
X019379Y002334D01*
X019357Y002433D02*
X017262Y002433D01*
X017262Y002531D02*
X019357Y002531D01*
X019395Y002630D02*
X017262Y002630D01*
X017259Y002728D02*
X019466Y002728D01*
X019377Y002827D02*
X019627Y002827D01*
X019724Y002925D02*
X019422Y002925D01*
X019422Y003024D02*
X019722Y003024D01*
X019722Y003122D02*
X019422Y003122D01*
X019422Y003221D02*
X019722Y003221D01*
X019722Y003319D02*
X019422Y003319D01*
X019422Y003418D02*
X019722Y003418D01*
X019722Y003516D02*
X019422Y003516D01*
X019422Y003615D02*
X019722Y003615D01*
X019722Y003713D02*
X019422Y003713D01*
X019422Y003812D02*
X019722Y003812D01*
X019722Y003910D02*
X019422Y003910D01*
X019422Y004009D02*
X019739Y004009D01*
X019970Y004009D02*
X019970Y004009D01*
X019970Y004069D02*
X019247Y004069D01*
X019970Y003910D02*
X019970Y003910D01*
X019970Y003812D02*
X019970Y003812D01*
X019970Y003713D02*
X019970Y003713D01*
X019970Y003615D02*
X019970Y003615D01*
X019970Y003516D02*
X019970Y003516D01*
X018235Y003516D02*
X000600Y003516D01*
X000600Y003418D02*
X018235Y003418D01*
X018235Y003319D02*
X015458Y003319D01*
X015655Y003221D02*
X018235Y003221D01*
X018235Y003122D02*
X015753Y003122D01*
X015852Y003024D02*
X018235Y003024D01*
X018235Y002925D02*
X015913Y002925D01*
X016558Y002827D02*
X016718Y002827D01*
X016649Y002728D02*
X016603Y002728D01*
X016603Y002630D02*
X016647Y002630D01*
X016647Y002531D02*
X016603Y002531D01*
X016603Y002433D02*
X016647Y002433D01*
X016647Y002334D02*
X016603Y002334D01*
X016603Y002236D02*
X016647Y002236D01*
X016675Y002137D02*
X016597Y002137D01*
X016246Y002463D02*
X015100Y002463D01*
X014271Y002039D02*
X014028Y002039D01*
X014028Y002137D02*
X014230Y002137D01*
X014189Y002236D02*
X014028Y002236D01*
X014028Y002334D02*
X014172Y002334D01*
X014172Y002433D02*
X014028Y002433D01*
X014028Y002531D02*
X014172Y002531D01*
X014172Y002630D02*
X014028Y002630D01*
X014028Y002728D02*
X014205Y002728D01*
X014246Y002827D02*
X014028Y002827D01*
X014028Y002925D02*
X014287Y002925D01*
X014348Y003024D02*
X014028Y003024D01*
X014028Y003122D02*
X014447Y003122D01*
X014545Y003221D02*
X014028Y003221D01*
X014028Y003274D02*
X013911Y003391D01*
X012289Y003391D01*
X012172Y003274D01*
X012172Y001652D01*
X012289Y001534D01*
X013911Y001534D01*
X014028Y001652D01*
X014028Y003274D01*
X013983Y003319D02*
X014742Y003319D01*
X013911Y004034D02*
X014028Y004152D01*
X014028Y005774D01*
X013911Y005891D01*
X012289Y005891D01*
X012172Y005774D01*
X012172Y004152D01*
X012289Y004034D01*
X013911Y004034D01*
X013984Y004107D02*
X014739Y004107D01*
X014544Y004206D02*
X014028Y004206D01*
X014028Y004304D02*
X014446Y004304D01*
X014347Y004403D02*
X014028Y004403D01*
X014028Y004501D02*
X014286Y004501D01*
X014246Y004600D02*
X014028Y004600D01*
X014028Y004698D02*
X014205Y004698D01*
X014172Y004797D02*
X014028Y004797D01*
X014028Y004895D02*
X014172Y004895D01*
X014172Y004994D02*
X014028Y004994D01*
X014028Y005092D02*
X014172Y005092D01*
X014190Y005191D02*
X014028Y005191D01*
X014028Y005289D02*
X014230Y005289D01*
X014271Y005388D02*
X014028Y005388D01*
X014028Y005486D02*
X014312Y005486D01*
X014409Y005585D02*
X014028Y005585D01*
X014028Y005683D02*
X014508Y005683D01*
X014651Y005782D02*
X014021Y005782D01*
X013922Y005880D02*
X014889Y005880D01*
X015311Y005880D02*
X018547Y005880D01*
X018547Y005782D02*
X015549Y005782D01*
X015692Y005683D02*
X018547Y005683D01*
X018547Y005585D02*
X015791Y005585D01*
X015888Y005486D02*
X018547Y005486D01*
X018567Y005388D02*
X016497Y005388D01*
X016596Y005289D02*
X016676Y005289D01*
X016677Y005291D02*
X016657Y005257D01*
X016647Y005219D01*
X016647Y004992D01*
X016926Y004992D01*
X016926Y005349D01*
X016777Y005349D01*
X016739Y005339D01*
X016705Y005319D01*
X016677Y005291D01*
X016647Y005191D02*
X016603Y005191D01*
X016603Y005092D02*
X016647Y005092D01*
X016647Y004994D02*
X016603Y004994D01*
X016647Y004934D02*
X016647Y004707D01*
X016657Y004669D01*
X016677Y004635D01*
X016705Y004607D01*
X016739Y004587D01*
X016777Y004577D01*
X016926Y004577D01*
X016926Y004934D01*
X016983Y004934D01*
X016983Y004577D01*
X017132Y004577D01*
X017170Y004587D01*
X017204Y004607D01*
X017232Y004635D01*
X017252Y004669D01*
X017262Y004707D01*
X017262Y004934D01*
X016983Y004934D01*
X016983Y004992D01*
X016926Y004992D01*
X016926Y004934D01*
X016647Y004934D01*
X016647Y004895D02*
X016603Y004895D01*
X016603Y004797D02*
X016647Y004797D01*
X016649Y004698D02*
X016603Y004698D01*
X016559Y004600D02*
X016716Y004600D01*
X016926Y004600D02*
X016983Y004600D01*
X016983Y004698D02*
X016926Y004698D01*
X016926Y004797D02*
X016983Y004797D01*
X016983Y004895D02*
X016926Y004895D01*
X016926Y004994D02*
X016983Y004994D01*
X016983Y004992D02*
X016983Y005349D01*
X017132Y005349D01*
X017170Y005339D01*
X017204Y005319D01*
X017232Y005291D01*
X017252Y005257D01*
X017262Y005219D01*
X017262Y004992D01*
X016983Y004992D01*
X016983Y005092D02*
X016926Y005092D01*
X016954Y005146D02*
X016954Y005329D01*
X016882Y005401D01*
X016882Y007463D01*
X016954Y007463D01*
X016926Y007456D02*
X016603Y007456D01*
X016647Y007434D02*
X016647Y007207D01*
X016657Y007169D01*
X016677Y007135D01*
X016705Y007107D01*
X016739Y007087D01*
X016777Y007077D01*
X016926Y007077D01*
X016926Y007434D01*
X016983Y007434D01*
X016983Y007077D01*
X017132Y007077D01*
X017170Y007087D01*
X017204Y007107D01*
X017232Y007135D01*
X017252Y007169D01*
X017262Y007207D01*
X017262Y007434D01*
X016983Y007434D01*
X016983Y007492D01*
X016926Y007492D01*
X016926Y007849D01*
X016777Y007849D01*
X016739Y007839D01*
X016705Y007819D01*
X016677Y007791D01*
X016657Y007757D01*
X016647Y007719D01*
X016647Y007492D01*
X016926Y007492D01*
X016926Y007434D01*
X016647Y007434D01*
X016647Y007358D02*
X016603Y007358D01*
X016603Y007259D02*
X016647Y007259D01*
X016662Y007161D02*
X016603Y007161D01*
X016603Y007144D02*
X016603Y007782D01*
X016486Y007899D01*
X016005Y007899D01*
X015948Y007842D01*
X015887Y007989D01*
X015626Y008250D01*
X015285Y008391D01*
X014915Y008391D01*
X014574Y008250D01*
X014313Y007989D01*
X014172Y007647D01*
X014172Y007278D01*
X014313Y006937D01*
X014574Y006676D01*
X014915Y006534D01*
X015285Y006534D01*
X015626Y006676D01*
X015887Y006937D01*
X015948Y007084D01*
X016005Y007027D01*
X016486Y007027D01*
X016603Y007144D01*
X016522Y007062D02*
X017664Y007062D01*
X017664Y006964D02*
X015898Y006964D01*
X015939Y007062D02*
X015970Y007062D01*
X015815Y006865D02*
X017667Y006865D01*
X017765Y006767D02*
X015717Y006767D01*
X015608Y006668D02*
X018547Y006668D01*
X018547Y006570D02*
X015370Y006570D01*
X014830Y006570D02*
X013947Y006570D01*
X013911Y006534D02*
X014028Y006652D01*
X014028Y008274D01*
X013911Y008391D01*
X012289Y008391D01*
X012172Y008274D01*
X012172Y006652D01*
X012289Y006534D01*
X013911Y006534D01*
X014028Y006668D02*
X014592Y006668D01*
X014483Y006767D02*
X014028Y006767D01*
X014028Y006865D02*
X014385Y006865D01*
X014302Y006964D02*
X014028Y006964D01*
X014028Y007062D02*
X014261Y007062D01*
X014220Y007161D02*
X014028Y007161D01*
X014028Y007259D02*
X014179Y007259D01*
X014172Y007358D02*
X014028Y007358D01*
X014028Y007456D02*
X014172Y007456D01*
X014172Y007555D02*
X014028Y007555D01*
X014028Y007653D02*
X014174Y007653D01*
X014215Y007752D02*
X014028Y007752D01*
X014028Y007850D02*
X014256Y007850D01*
X014296Y007949D02*
X014028Y007949D01*
X014028Y008047D02*
X014372Y008047D01*
X014470Y008146D02*
X014028Y008146D01*
X014028Y008244D02*
X014569Y008244D01*
X014799Y008343D02*
X013960Y008343D01*
X015401Y008343D02*
X018821Y008343D01*
X018821Y008441D02*
X000600Y008441D01*
X000600Y008343D02*
X001240Y008343D01*
X001289Y008391D02*
X001172Y008274D01*
X001172Y006652D01*
X001289Y006534D01*
X002911Y006534D01*
X003028Y006652D01*
X003028Y008274D01*
X002911Y008391D01*
X001289Y008391D01*
X001172Y008244D02*
X000600Y008244D01*
X000600Y008146D02*
X001172Y008146D01*
X001172Y008047D02*
X000600Y008047D01*
X000600Y007949D02*
X001172Y007949D01*
X001172Y007850D02*
X000600Y007850D01*
X000600Y007752D02*
X001172Y007752D01*
X001172Y007653D02*
X000600Y007653D01*
X000600Y007555D02*
X001172Y007555D01*
X001172Y007456D02*
X000600Y007456D01*
X000600Y007358D02*
X001172Y007358D01*
X001172Y007259D02*
X000600Y007259D01*
X000600Y007161D02*
X001172Y007161D01*
X001172Y007062D02*
X000600Y007062D01*
X000600Y006964D02*
X001172Y006964D01*
X001172Y006865D02*
X000600Y006865D01*
X000600Y006767D02*
X001172Y006767D01*
X001172Y006668D02*
X000600Y006668D01*
X000600Y006570D02*
X001253Y006570D01*
X000600Y006471D02*
X018547Y006471D01*
X018547Y006373D02*
X000600Y006373D01*
X000600Y006274D02*
X018547Y006274D01*
X018547Y006176D02*
X000600Y006176D01*
X000600Y006077D02*
X018547Y006077D01*
X018547Y005979D02*
X000600Y005979D01*
X000600Y005880D02*
X001278Y005880D01*
X001289Y005891D02*
X001172Y005774D01*
X001172Y004152D01*
X001289Y004034D01*
X002911Y004034D01*
X003028Y004152D01*
X003028Y005774D01*
X002911Y005891D01*
X001289Y005891D01*
X001179Y005782D02*
X000600Y005782D01*
X000600Y005683D02*
X001172Y005683D01*
X001172Y005585D02*
X000600Y005585D01*
X000600Y005486D02*
X001172Y005486D01*
X001172Y005388D02*
X000600Y005388D01*
X000600Y005289D02*
X001172Y005289D01*
X001172Y005191D02*
X000600Y005191D01*
X000600Y005092D02*
X001172Y005092D01*
X001172Y004994D02*
X000600Y004994D01*
X000600Y004895D02*
X001172Y004895D01*
X001172Y004797D02*
X000600Y004797D01*
X000600Y004698D02*
X001172Y004698D01*
X001172Y004600D02*
X000600Y004600D01*
X000600Y004501D02*
X001172Y004501D01*
X001172Y004403D02*
X000600Y004403D01*
X000600Y004304D02*
X001172Y004304D01*
X001172Y004206D02*
X000600Y004206D01*
X000600Y004107D02*
X001216Y004107D01*
X000600Y004009D02*
X018235Y004009D01*
X018235Y003910D02*
X000600Y003910D01*
X000600Y003812D02*
X018235Y003812D01*
X018235Y003713D02*
X000600Y003713D01*
X000600Y003615D02*
X018235Y003615D01*
X018320Y004107D02*
X015461Y004107D01*
X017192Y004600D02*
X018008Y004600D01*
X017996Y004607D02*
X018030Y004587D01*
X018068Y004577D01*
X018217Y004577D01*
X018217Y004934D01*
X018274Y004934D01*
X018274Y004577D01*
X018423Y004577D01*
X018461Y004587D01*
X018495Y004607D01*
X018523Y004635D01*
X018543Y004669D01*
X018553Y004707D01*
X018553Y004934D01*
X018274Y004934D01*
X018274Y004992D01*
X018217Y004992D01*
X018217Y005349D01*
X018068Y005349D01*
X018030Y005339D01*
X017996Y005319D01*
X017968Y005291D01*
X017948Y005257D01*
X017938Y005219D01*
X017938Y004992D01*
X018217Y004992D01*
X018217Y004934D01*
X017938Y004934D01*
X017938Y004707D01*
X017948Y004669D01*
X017968Y004635D01*
X017996Y004607D01*
X017940Y004698D02*
X017260Y004698D01*
X017262Y004797D02*
X017938Y004797D01*
X017938Y004895D02*
X017262Y004895D01*
X017262Y004994D02*
X017938Y004994D01*
X017938Y005092D02*
X017262Y005092D01*
X017262Y005191D02*
X017938Y005191D01*
X017967Y005289D02*
X017233Y005289D01*
X016983Y005289D02*
X016926Y005289D01*
X016926Y005191D02*
X016983Y005191D01*
X016246Y004963D02*
X015100Y004963D01*
X015929Y005388D02*
X015994Y005388D01*
X018217Y005289D02*
X018274Y005289D01*
X018274Y005349D02*
X018274Y004992D01*
X018553Y004992D01*
X018553Y005219D01*
X018543Y005257D01*
X018523Y005291D01*
X018495Y005319D01*
X018461Y005339D01*
X018423Y005349D01*
X018274Y005349D01*
X018274Y005191D02*
X018217Y005191D01*
X018217Y005092D02*
X018274Y005092D01*
X018274Y004994D02*
X018217Y004994D01*
X018217Y004895D02*
X018274Y004895D01*
X018274Y004797D02*
X018217Y004797D01*
X018217Y004698D02*
X018274Y004698D01*
X018274Y004600D02*
X018217Y004600D01*
X018484Y004600D02*
X018641Y004600D01*
X018597Y004698D02*
X018551Y004698D01*
X018553Y004797D02*
X018597Y004797D01*
X018597Y004895D02*
X018553Y004895D01*
X018553Y004994D02*
X018597Y004994D01*
X018597Y005092D02*
X018553Y005092D01*
X018553Y005191D02*
X018597Y005191D01*
X018604Y005289D02*
X018524Y005289D01*
X018797Y005487D02*
X018954Y005329D01*
X018797Y005487D02*
X018797Y007109D01*
X018466Y007109D01*
X018100Y007109D01*
X017664Y007161D02*
X017247Y007161D01*
X017262Y007259D02*
X017664Y007259D01*
X017673Y007358D02*
X017262Y007358D01*
X017262Y007492D02*
X016983Y007492D01*
X016983Y007849D01*
X017132Y007849D01*
X017170Y007839D01*
X017204Y007819D01*
X017232Y007791D01*
X017252Y007757D01*
X017262Y007719D01*
X017262Y007492D01*
X017262Y007555D02*
X017686Y007555D01*
X017664Y007653D02*
X017262Y007653D01*
X017253Y007752D02*
X017664Y007752D01*
X017664Y007850D02*
X016535Y007850D01*
X016603Y007752D02*
X016656Y007752D01*
X016647Y007653D02*
X016603Y007653D01*
X016603Y007555D02*
X016647Y007555D01*
X016882Y007463D02*
X015816Y008530D01*
X015631Y008244D02*
X018821Y008244D01*
X018821Y008146D02*
X018448Y008146D01*
X018536Y008047D02*
X018821Y008047D01*
X018821Y007949D02*
X018536Y007949D01*
X018536Y007850D02*
X018821Y007850D01*
X019317Y007518D02*
X018112Y007518D01*
X018100Y007530D01*
X018100Y007817D01*
X017664Y007949D02*
X015904Y007949D01*
X015944Y007850D02*
X015957Y007850D01*
X015828Y008047D02*
X017664Y008047D01*
X017752Y008146D02*
X015730Y008146D01*
X016926Y007752D02*
X016983Y007752D01*
X016983Y007653D02*
X016926Y007653D01*
X016926Y007555D02*
X016983Y007555D01*
X016983Y007456D02*
X017771Y007456D01*
X016983Y007358D02*
X016926Y007358D01*
X016926Y007259D02*
X016983Y007259D01*
X016983Y007161D02*
X016926Y007161D01*
X016246Y007463D02*
X015100Y007463D01*
X012521Y008530D02*
X011742Y007750D01*
X011742Y007463D01*
X011454Y007463D01*
X011454Y006213D01*
X005954Y006213D01*
X005954Y007463D01*
X005954Y009963D01*
X005926Y009992D02*
X005983Y009992D01*
X005983Y010349D01*
X006132Y010349D01*
X006170Y010339D01*
X006204Y010319D01*
X006232Y010291D01*
X006252Y010257D01*
X006262Y010219D01*
X006262Y009992D01*
X005983Y009992D01*
X005983Y009934D01*
X005983Y009577D01*
X006132Y009577D01*
X006170Y009587D01*
X006204Y009607D01*
X006232Y009635D01*
X006252Y009669D01*
X006262Y009707D01*
X006262Y009934D01*
X005983Y009934D01*
X005926Y009934D01*
X005926Y009577D01*
X005777Y009577D01*
X005739Y009587D01*
X005705Y009607D01*
X005677Y009635D01*
X005657Y009669D01*
X005647Y009707D01*
X005647Y009934D01*
X005926Y009934D01*
X005926Y009992D01*
X005926Y010349D01*
X005777Y010349D01*
X005739Y010339D01*
X005705Y010319D01*
X005677Y010291D01*
X005657Y010257D01*
X005647Y010219D01*
X005647Y009992D01*
X005926Y009992D01*
X005926Y010017D02*
X005983Y010017D01*
X005983Y009919D02*
X005926Y009919D01*
X005926Y009820D02*
X005983Y009820D01*
X005983Y009722D02*
X005926Y009722D01*
X005926Y009623D02*
X005983Y009623D01*
X006221Y009623D02*
X006672Y009623D01*
X006672Y009525D02*
X004923Y009525D01*
X004948Y009584D02*
X005005Y009527D01*
X005486Y009527D01*
X005603Y009644D01*
X005603Y010282D01*
X005486Y010399D01*
X005005Y010399D01*
X004948Y010342D01*
X004887Y010489D01*
X004626Y010750D01*
X004285Y010891D01*
X003915Y010891D01*
X003574Y010750D01*
X003313Y010489D01*
X003172Y010147D01*
X003172Y009778D01*
X003313Y009437D01*
X003574Y009176D01*
X003915Y009034D01*
X004285Y009034D01*
X004626Y009176D01*
X004887Y009437D01*
X004948Y009584D01*
X004876Y009426D02*
X006672Y009426D01*
X006672Y009328D02*
X004778Y009328D01*
X004679Y009229D02*
X006672Y009229D01*
X006692Y009131D02*
X004517Y009131D01*
X003683Y009131D02*
X003008Y009131D01*
X003028Y009229D02*
X003521Y009229D01*
X003422Y009328D02*
X003028Y009328D01*
X003028Y009426D02*
X003324Y009426D01*
X003277Y009525D02*
X003028Y009525D01*
X003028Y009623D02*
X003236Y009623D01*
X003195Y009722D02*
X003028Y009722D01*
X003028Y009820D02*
X003172Y009820D01*
X003172Y009919D02*
X003028Y009919D01*
X003028Y010017D02*
X003172Y010017D01*
X003172Y010116D02*
X003028Y010116D01*
X003028Y010214D02*
X003199Y010214D01*
X003240Y010313D02*
X003028Y010313D01*
X003028Y010411D02*
X003281Y010411D01*
X003334Y010510D02*
X003028Y010510D01*
X003028Y010608D02*
X003433Y010608D01*
X003531Y010707D02*
X003028Y010707D01*
X002997Y010805D02*
X003708Y010805D01*
X004492Y010805D02*
X006703Y010805D01*
X006672Y010707D02*
X004669Y010707D01*
X004767Y010608D02*
X006672Y010608D01*
X006672Y010510D02*
X004866Y010510D01*
X004919Y010411D02*
X006672Y010411D01*
X006672Y010313D02*
X006210Y010313D01*
X006262Y010214D02*
X006672Y010214D01*
X006672Y010116D02*
X006262Y010116D01*
X006262Y010017D02*
X006672Y010017D01*
X006672Y009919D02*
X006262Y009919D01*
X006262Y009820D02*
X006672Y009820D01*
X006672Y009722D02*
X006262Y009722D01*
X005688Y009623D02*
X005583Y009623D01*
X005603Y009722D02*
X005647Y009722D01*
X005647Y009820D02*
X005603Y009820D01*
X005603Y009919D02*
X005647Y009919D01*
X005647Y010017D02*
X005603Y010017D01*
X005603Y010116D02*
X005647Y010116D01*
X005647Y010214D02*
X005603Y010214D01*
X005572Y010313D02*
X005699Y010313D01*
X005926Y010313D02*
X005983Y010313D01*
X005983Y010214D02*
X005926Y010214D01*
X005926Y010116D02*
X005983Y010116D01*
X005246Y009963D02*
X004100Y009963D01*
X002100Y009963D02*
X002100Y010821D01*
X001681Y010821D01*
X001261Y011241D01*
X001261Y011743D01*
X002100Y011743D01*
X001261Y011743D02*
X001261Y012774D01*
X002100Y013613D01*
X002100Y014183D01*
X002540Y014154D02*
X002570Y014154D01*
X002570Y014056D02*
X002540Y014056D01*
X002540Y013957D02*
X002570Y013957D01*
X002570Y013859D02*
X002540Y013859D01*
X002540Y013760D02*
X002570Y013760D01*
X002570Y013662D02*
X002540Y013662D01*
X002443Y013563D02*
X002667Y013563D01*
X002306Y013465D02*
X005386Y013465D01*
X005288Y013563D02*
X003353Y013563D01*
X003450Y013662D02*
X005189Y013662D01*
X005091Y013760D02*
X003450Y013760D01*
X003450Y013859D02*
X004992Y013859D01*
X004894Y013957D02*
X003450Y013957D01*
X003450Y014056D02*
X003476Y014056D01*
X003290Y014463D02*
X003010Y014183D01*
X003290Y014463D02*
X003746Y014463D01*
X004015Y014056D02*
X004185Y014056D01*
X004724Y014056D02*
X004795Y014056D01*
X004742Y014463D02*
X005592Y013613D01*
X006984Y013613D01*
X007060Y013689D01*
X007060Y014510D01*
X006690Y014753D02*
X006690Y014183D01*
X006690Y014753D02*
X006614Y014829D01*
X001266Y014829D01*
X001190Y014753D01*
X001190Y014183D01*
X001630Y014154D02*
X001660Y014154D01*
X001660Y014056D02*
X001630Y014056D01*
X001630Y013957D02*
X001660Y013957D01*
X001660Y013859D02*
X001630Y013859D01*
X001630Y013760D02*
X001660Y013760D01*
X001660Y013662D02*
X001630Y013662D01*
X001697Y013563D02*
X001533Y013563D01*
X001598Y013465D02*
X000600Y013465D01*
X000600Y013563D02*
X000847Y013563D01*
X000750Y013662D02*
X000600Y013662D01*
X000600Y013760D02*
X000750Y013760D01*
X000750Y013859D02*
X000600Y013859D01*
X000600Y013957D02*
X000750Y013957D01*
X000750Y014056D02*
X000600Y014056D01*
X000600Y014154D02*
X000750Y014154D01*
X000750Y014253D02*
X000600Y014253D01*
X000600Y014351D02*
X000750Y014351D01*
X000750Y014450D02*
X000600Y014450D01*
X000600Y014548D02*
X000750Y014548D01*
X000750Y014647D02*
X000600Y014647D01*
X000600Y014745D02*
X000790Y014745D01*
X000957Y014844D02*
X000600Y014844D01*
X000600Y014942D02*
X001026Y014942D01*
X001630Y014548D02*
X001660Y014548D01*
X001660Y014450D02*
X001630Y014450D01*
X001630Y014351D02*
X001660Y014351D01*
X001660Y014253D02*
X001630Y014253D01*
X002540Y014253D02*
X002570Y014253D01*
X002570Y014351D02*
X002540Y014351D01*
X002540Y014450D02*
X002570Y014450D01*
X002570Y014548D02*
X002540Y014548D01*
X004454Y014463D02*
X004742Y014463D01*
X006690Y014753D02*
X006872Y014935D01*
X009372Y014935D01*
X009533Y014774D01*
X009533Y014290D01*
X009727Y014097D01*
X012190Y014097D01*
X012190Y014183D01*
X012190Y014753D01*
X013401Y014753D01*
X013640Y014514D01*
X013640Y013689D01*
X016366Y010963D01*
X018301Y010963D01*
X018602Y010963D01*
X018746Y010963D01*
X019454Y010963D02*
X019742Y010963D01*
X019742Y011067D01*
X019846Y011172D01*
X020025Y011172D01*
X020025Y010746D01*
X019727Y010510D02*
X019237Y010510D01*
X019139Y010411D02*
X019727Y010411D01*
X019782Y010313D02*
X019040Y010313D01*
X019317Y010214D02*
X019317Y010214D01*
X019317Y010116D02*
X019317Y010116D01*
X019317Y010038D02*
X019317Y010038D01*
X019762Y010017D02*
X020405Y010017D01*
X020405Y009919D02*
X019899Y009919D01*
X019972Y009820D02*
X020405Y009820D01*
X020405Y009722D02*
X019992Y009722D01*
X019992Y009623D02*
X020405Y009623D01*
X020405Y009525D02*
X019992Y009525D01*
X019992Y009426D02*
X020428Y009426D01*
X020505Y009328D02*
X019992Y009328D01*
X019992Y009229D02*
X020604Y009229D01*
X020702Y009131D02*
X019992Y009131D01*
X019992Y009032D02*
X020801Y009032D01*
X020899Y008934D02*
X019992Y008934D01*
X019992Y008835D02*
X020998Y008835D01*
X021096Y008737D02*
X019992Y008737D01*
X019992Y008638D02*
X021195Y008638D01*
X021293Y008540D02*
X019992Y008540D01*
X019992Y008441D02*
X021392Y008441D01*
X021490Y008343D02*
X019992Y008343D01*
X019992Y008244D02*
X021589Y008244D01*
X021687Y008146D02*
X019992Y008146D01*
X019992Y008047D02*
X021786Y008047D01*
X021884Y007949D02*
X019992Y007949D01*
X019992Y007850D02*
X021983Y007850D01*
X022081Y007752D02*
X019992Y007752D01*
X019992Y007653D02*
X022180Y007653D01*
X022278Y007555D02*
X019992Y007555D01*
X019992Y007456D02*
X022377Y007456D01*
X022475Y007358D02*
X019992Y007358D01*
X019992Y007259D02*
X022574Y007259D01*
X022672Y007161D02*
X019992Y007161D01*
X019954Y007062D02*
X022771Y007062D01*
X023281Y007259D02*
X023388Y007259D01*
X023379Y007161D02*
X023388Y007161D01*
X023388Y007358D02*
X023182Y007358D01*
X023084Y007456D02*
X023438Y007456D01*
X023143Y007518D02*
X023883Y007518D01*
X023883Y007833D02*
X023458Y007833D01*
X023419Y007872D01*
X023270Y007872D01*
X023270Y010226D01*
X023175Y010321D01*
X023175Y010746D01*
X024242Y010746D01*
X024767Y010399D02*
X025167Y010798D01*
X025454Y010963D02*
X029543Y010963D01*
X030466Y010039D01*
X030466Y009601D01*
X030328Y009463D01*
X026600Y009463D01*
X025600Y008463D01*
X023883Y008463D01*
X023883Y008148D02*
X025769Y008148D01*
X026454Y007463D01*
X026454Y005829D01*
X026454Y005463D01*
X025889Y005463D02*
X025746Y005463D01*
X025889Y005463D02*
X025889Y006343D01*
X024400Y007833D01*
X024309Y007833D01*
X024096Y007833D01*
X023883Y007833D01*
X023143Y007518D02*
X022860Y007801D01*
X022860Y010746D01*
X022860Y010746D01*
X022860Y011192D01*
X022776Y011192D01*
X022726Y011242D01*
X021842Y011242D01*
X021812Y011313D01*
X021818Y011298D02*
X023076Y011298D01*
X022951Y011199D02*
X022768Y011199D01*
X022860Y011101D02*
X022860Y011101D01*
X022860Y011002D02*
X022860Y011002D01*
X022860Y010904D02*
X022860Y010904D01*
X022860Y010805D02*
X022860Y010805D01*
X022860Y010707D02*
X022860Y010707D01*
X022860Y010608D02*
X022860Y010608D01*
X022860Y010510D02*
X022860Y010510D01*
X022860Y010411D02*
X022860Y010411D01*
X022860Y010313D02*
X022860Y010313D01*
X022948Y010214D02*
X020905Y010214D01*
X020905Y010116D02*
X023020Y010116D01*
X023020Y010017D02*
X020905Y010017D01*
X020905Y009919D02*
X023020Y009919D01*
X023020Y009820D02*
X020905Y009820D01*
X020905Y009722D02*
X023020Y009722D01*
X023020Y009623D02*
X020917Y009623D01*
X021015Y009525D02*
X023020Y009525D01*
X023020Y009426D02*
X021114Y009426D01*
X021212Y009328D02*
X023020Y009328D01*
X023020Y009229D02*
X021311Y009229D01*
X021409Y009131D02*
X023020Y009131D01*
X023020Y009032D02*
X021508Y009032D01*
X021606Y008934D02*
X023020Y008934D01*
X023020Y008835D02*
X021705Y008835D01*
X021803Y008737D02*
X023020Y008737D01*
X023020Y008638D02*
X021902Y008638D01*
X022000Y008540D02*
X023020Y008540D01*
X023020Y008441D02*
X022099Y008441D01*
X022197Y008343D02*
X023020Y008343D01*
X023020Y008244D02*
X022296Y008244D01*
X022394Y008146D02*
X022978Y008146D01*
X022910Y008047D02*
X022493Y008047D01*
X022591Y007949D02*
X022870Y007949D01*
X022870Y007850D02*
X022690Y007850D01*
X022788Y007752D02*
X022886Y007752D01*
X022887Y007653D02*
X022927Y007653D01*
X022985Y007555D02*
X023021Y007555D01*
X023883Y007203D02*
X024309Y007203D01*
X024328Y007223D01*
X024533Y007223D01*
X026454Y007463D02*
X026600Y007463D01*
X030100Y009109D02*
X033195Y009109D01*
X033250Y009053D01*
X033820Y009053D01*
X033820Y009963D02*
X033250Y009963D01*
X032641Y010572D01*
X033312Y011243D01*
X032641Y010572D02*
X032411Y010802D01*
X031380Y010802D01*
X031380Y009963D01*
X030100Y009817D02*
X029734Y009817D01*
X029633Y009918D01*
X026254Y009918D01*
X026058Y009723D01*
X023883Y009723D01*
X023883Y009408D02*
X023458Y009408D01*
X023458Y010195D01*
X023662Y010399D01*
X024767Y010399D01*
X021600Y010746D02*
X021600Y011172D01*
X017838Y014934D01*
X010713Y014934D01*
X010242Y014463D01*
X009954Y014463D01*
X009246Y014463D02*
X008958Y014463D01*
X008958Y014607D01*
X008812Y014753D01*
X008510Y014753D01*
X008510Y014183D01*
X007272Y013548D02*
X007272Y013548D01*
X007350Y013465D02*
X007189Y013465D01*
X007042Y013366D02*
X007350Y013366D01*
X007350Y013268D02*
X002109Y013268D01*
X002207Y013366D02*
X005534Y013366D01*
X006779Y012677D02*
X001518Y012677D01*
X001511Y012578D02*
X006680Y012578D01*
X006582Y012480D02*
X001511Y012480D01*
X001511Y012381D02*
X006522Y012381D01*
X006511Y012283D02*
X002984Y012283D01*
X003009Y012184D02*
X006511Y012184D01*
X006511Y012086D02*
X003009Y012086D01*
X003009Y011987D02*
X006511Y011987D01*
X006511Y011889D02*
X003009Y011889D01*
X003009Y011790D02*
X006511Y011790D01*
X006511Y011692D02*
X003009Y011692D01*
X003009Y011593D02*
X006511Y011593D01*
X006511Y011495D02*
X003009Y011495D01*
X003009Y011396D02*
X006511Y011396D01*
X006511Y011298D02*
X003009Y011298D01*
X002981Y011199D02*
X006511Y011199D01*
X006549Y011101D02*
X001755Y011101D01*
X002272Y011002D02*
X006646Y011002D01*
X006744Y010904D02*
X002336Y010904D01*
X001244Y010904D02*
X000600Y010904D01*
X000600Y011002D02*
X001146Y011002D01*
X001049Y011101D02*
X000600Y011101D01*
X000600Y011199D02*
X001011Y011199D01*
X001011Y011298D02*
X000600Y011298D01*
X000600Y011396D02*
X001011Y011396D01*
X001011Y011495D02*
X000600Y011495D01*
X000600Y011593D02*
X001011Y011593D01*
X001011Y011692D02*
X000600Y011692D01*
X000600Y011790D02*
X001011Y011790D01*
X001011Y011889D02*
X000600Y011889D01*
X000600Y011987D02*
X001011Y011987D01*
X001011Y012086D02*
X000600Y012086D01*
X000600Y012184D02*
X001011Y012184D01*
X001011Y012283D02*
X000600Y012283D01*
X000600Y012381D02*
X001011Y012381D01*
X001011Y012480D02*
X000600Y012480D01*
X000600Y012578D02*
X001011Y012578D01*
X001011Y012677D02*
X000600Y012677D01*
X000600Y012775D02*
X001011Y012775D01*
X001032Y012874D02*
X000600Y012874D01*
X000600Y012972D02*
X001106Y012972D01*
X001204Y013071D02*
X000600Y013071D01*
X000600Y013169D02*
X001303Y013169D01*
X001401Y013268D02*
X000600Y013268D01*
X000600Y013366D02*
X001500Y013366D01*
X001813Y012972D02*
X007074Y012972D01*
X006976Y012874D02*
X001715Y012874D01*
X001616Y012775D02*
X006877Y012775D01*
X007173Y013071D02*
X001912Y013071D01*
X002010Y013169D02*
X007271Y013169D01*
X007781Y012972D02*
X008486Y012972D01*
X008584Y012874D02*
X007683Y012874D01*
X007584Y012775D02*
X008683Y012775D01*
X008781Y012677D02*
X007486Y012677D01*
X007387Y012578D02*
X008880Y012578D01*
X008978Y012480D02*
X007289Y012480D01*
X007190Y012381D02*
X009077Y012381D01*
X009175Y012283D02*
X008484Y012283D01*
X008509Y012184D02*
X009274Y012184D01*
X009372Y012086D02*
X008509Y012086D01*
X008509Y011987D02*
X009471Y011987D01*
X009569Y011889D02*
X008509Y011889D01*
X008509Y011790D02*
X009668Y011790D01*
X009766Y011692D02*
X008509Y011692D01*
X008509Y011593D02*
X009865Y011593D01*
X009963Y011495D02*
X008509Y011495D01*
X008509Y011396D02*
X010062Y011396D01*
X010160Y011298D02*
X008509Y011298D01*
X008481Y011199D02*
X010259Y011199D01*
X009208Y010805D02*
X008497Y010805D01*
X008528Y010707D02*
X009031Y010707D01*
X008933Y010608D02*
X008528Y010608D01*
X008528Y010510D02*
X008834Y010510D01*
X008781Y010411D02*
X008528Y010411D01*
X008528Y010313D02*
X008740Y010313D01*
X008699Y010214D02*
X008528Y010214D01*
X008528Y010116D02*
X008672Y010116D01*
X008672Y010017D02*
X008528Y010017D01*
X008528Y009919D02*
X008672Y009919D01*
X008672Y009820D02*
X008528Y009820D01*
X008528Y009722D02*
X008695Y009722D01*
X008736Y009623D02*
X008528Y009623D01*
X008528Y009525D02*
X008777Y009525D01*
X008824Y009426D02*
X008528Y009426D01*
X008528Y009328D02*
X008922Y009328D01*
X009021Y009229D02*
X008528Y009229D01*
X008508Y009131D02*
X009183Y009131D01*
X010017Y009131D02*
X011957Y009131D01*
X011951Y009229D02*
X010179Y009229D01*
X010278Y009328D02*
X011951Y009328D01*
X011951Y009426D02*
X010376Y009426D01*
X010423Y009525D02*
X011951Y009525D01*
X011951Y009623D02*
X011721Y009623D01*
X011762Y009722D02*
X011950Y009722D01*
X011852Y009820D02*
X011762Y009820D01*
X010746Y009963D02*
X009600Y009963D01*
X007600Y009963D02*
X007600Y010821D01*
X007181Y010821D01*
X012010Y009032D02*
X000600Y009032D01*
X000600Y008934D02*
X012108Y008934D01*
X012240Y008343D02*
X009901Y008343D01*
X009785Y008391D02*
X010126Y008250D01*
X010387Y007989D01*
X010448Y007842D01*
X010505Y007899D01*
X010986Y007899D01*
X011103Y007782D01*
X011103Y007144D01*
X010986Y007027D01*
X010505Y007027D01*
X010448Y007084D01*
X010387Y006937D01*
X010126Y006676D01*
X009785Y006534D01*
X009415Y006534D01*
X009074Y006676D01*
X008813Y006937D01*
X008672Y007278D01*
X008672Y007647D01*
X008813Y007989D01*
X009074Y008250D01*
X009415Y008391D01*
X009785Y008391D01*
X010131Y008244D02*
X012172Y008244D01*
X012172Y008146D02*
X010230Y008146D01*
X010328Y008047D02*
X012172Y008047D01*
X012172Y007949D02*
X010404Y007949D01*
X010444Y007850D02*
X010457Y007850D01*
X011035Y007850D02*
X012172Y007850D01*
X012172Y007752D02*
X011753Y007752D01*
X011752Y007757D02*
X011732Y007791D01*
X011704Y007819D01*
X011670Y007839D01*
X011632Y007849D01*
X011483Y007849D01*
X011483Y007492D01*
X011426Y007492D01*
X011426Y007849D01*
X011277Y007849D01*
X011239Y007839D01*
X011205Y007819D01*
X011177Y007791D01*
X011157Y007757D01*
X011147Y007719D01*
X011147Y007492D01*
X011426Y007492D01*
X011426Y007434D01*
X011483Y007434D01*
X011483Y007077D01*
X011632Y007077D01*
X011670Y007087D01*
X011704Y007107D01*
X011732Y007135D01*
X011752Y007169D01*
X011762Y007207D01*
X011762Y007434D01*
X011483Y007434D01*
X011483Y007492D01*
X011762Y007492D01*
X011762Y007719D01*
X011752Y007757D01*
X011762Y007653D02*
X012172Y007653D01*
X012172Y007555D02*
X011762Y007555D01*
X011762Y007358D02*
X012172Y007358D01*
X012172Y007456D02*
X011483Y007456D01*
X011426Y007456D02*
X011103Y007456D01*
X011147Y007434D02*
X011147Y007207D01*
X011157Y007169D01*
X011177Y007135D01*
X011205Y007107D01*
X011239Y007087D01*
X011277Y007077D01*
X011426Y007077D01*
X011426Y007434D01*
X011147Y007434D01*
X011147Y007358D02*
X011103Y007358D01*
X011103Y007259D02*
X011147Y007259D01*
X011162Y007161D02*
X011103Y007161D01*
X011022Y007062D02*
X012172Y007062D01*
X012172Y006964D02*
X010398Y006964D01*
X010439Y007062D02*
X010470Y007062D01*
X010315Y006865D02*
X012172Y006865D01*
X012172Y006767D02*
X010217Y006767D01*
X010108Y006668D02*
X012172Y006668D01*
X012253Y006570D02*
X009870Y006570D01*
X009330Y006570D02*
X008447Y006570D01*
X008411Y006534D02*
X008528Y006652D01*
X008528Y008274D01*
X008411Y008391D01*
X006789Y008391D01*
X006672Y008274D01*
X006672Y006652D01*
X006789Y006534D01*
X008411Y006534D01*
X008528Y006668D02*
X009092Y006668D01*
X008983Y006767D02*
X008528Y006767D01*
X008528Y006865D02*
X008885Y006865D01*
X008802Y006964D02*
X008528Y006964D01*
X008528Y007062D02*
X008761Y007062D01*
X008720Y007161D02*
X008528Y007161D01*
X008528Y007259D02*
X008679Y007259D01*
X008672Y007358D02*
X008528Y007358D01*
X008528Y007456D02*
X008672Y007456D01*
X008672Y007555D02*
X008528Y007555D01*
X008528Y007653D02*
X008674Y007653D01*
X008715Y007752D02*
X008528Y007752D01*
X008528Y007850D02*
X008756Y007850D01*
X008796Y007949D02*
X008528Y007949D01*
X008528Y008047D02*
X008872Y008047D01*
X008970Y008146D02*
X008528Y008146D01*
X008528Y008244D02*
X009069Y008244D01*
X009299Y008343D02*
X008460Y008343D01*
X006740Y008343D02*
X004401Y008343D01*
X004285Y008391D02*
X004626Y008250D01*
X004887Y007989D01*
X004948Y007842D01*
X005005Y007899D01*
X005486Y007899D01*
X005603Y007782D01*
X005603Y007144D01*
X005486Y007027D01*
X005005Y007027D01*
X004948Y007084D01*
X004887Y006937D01*
X004626Y006676D01*
X004285Y006534D01*
X003915Y006534D01*
X003574Y006676D01*
X003313Y006937D01*
X003172Y007278D01*
X003172Y007647D01*
X003313Y007989D01*
X003574Y008250D01*
X003915Y008391D01*
X004285Y008391D01*
X004631Y008244D02*
X006672Y008244D01*
X006672Y008146D02*
X004730Y008146D01*
X004828Y008047D02*
X006672Y008047D01*
X006672Y007949D02*
X004904Y007949D01*
X004944Y007850D02*
X004957Y007850D01*
X005535Y007850D02*
X006672Y007850D01*
X006672Y007752D02*
X006253Y007752D01*
X006252Y007757D02*
X006232Y007791D01*
X006204Y007819D01*
X006170Y007839D01*
X006132Y007849D01*
X005983Y007849D01*
X005983Y007492D01*
X005926Y007492D01*
X005926Y007849D01*
X005777Y007849D01*
X005739Y007839D01*
X005705Y007819D01*
X005677Y007791D01*
X005657Y007757D01*
X005647Y007719D01*
X005647Y007492D01*
X005926Y007492D01*
X005926Y007434D01*
X005983Y007434D01*
X005983Y007077D01*
X006132Y007077D01*
X006170Y007087D01*
X006204Y007107D01*
X006232Y007135D01*
X006252Y007169D01*
X006262Y007207D01*
X006262Y007434D01*
X005983Y007434D01*
X005983Y007492D01*
X006262Y007492D01*
X006262Y007719D01*
X006252Y007757D01*
X006262Y007653D02*
X006672Y007653D01*
X006672Y007555D02*
X006262Y007555D01*
X006262Y007358D02*
X006672Y007358D01*
X006672Y007456D02*
X005983Y007456D01*
X005926Y007456D02*
X005603Y007456D01*
X005647Y007434D02*
X005647Y007207D01*
X005657Y007169D01*
X005677Y007135D01*
X005705Y007107D01*
X005739Y007087D01*
X005777Y007077D01*
X005926Y007077D01*
X005926Y007434D01*
X005647Y007434D01*
X005647Y007358D02*
X005603Y007358D01*
X005603Y007259D02*
X005647Y007259D01*
X005662Y007161D02*
X005603Y007161D01*
X005522Y007062D02*
X006672Y007062D01*
X006672Y006964D02*
X004898Y006964D01*
X004939Y007062D02*
X004970Y007062D01*
X004815Y006865D02*
X006672Y006865D01*
X006672Y006767D02*
X004717Y006767D01*
X004608Y006668D02*
X006672Y006668D01*
X006753Y006570D02*
X004370Y006570D01*
X003830Y006570D02*
X002947Y006570D01*
X003028Y006668D02*
X003592Y006668D01*
X003483Y006767D02*
X003028Y006767D01*
X003028Y006865D02*
X003385Y006865D01*
X003302Y006964D02*
X003028Y006964D01*
X003028Y007062D02*
X003261Y007062D01*
X003220Y007161D02*
X003028Y007161D01*
X003028Y007259D02*
X003179Y007259D01*
X003172Y007358D02*
X003028Y007358D01*
X003028Y007456D02*
X003172Y007456D01*
X003172Y007555D02*
X003028Y007555D01*
X003028Y007653D02*
X003174Y007653D01*
X003215Y007752D02*
X003028Y007752D01*
X003028Y007850D02*
X003256Y007850D01*
X003296Y007949D02*
X003028Y007949D01*
X003028Y008047D02*
X003372Y008047D01*
X003470Y008146D02*
X003028Y008146D01*
X003028Y008244D02*
X003569Y008244D01*
X003799Y008343D02*
X002960Y008343D01*
X001192Y009131D02*
X000600Y009131D01*
X000600Y009229D02*
X001172Y009229D01*
X001172Y009328D02*
X000600Y009328D01*
X000600Y009426D02*
X001172Y009426D01*
X001172Y009525D02*
X000600Y009525D01*
X000600Y009623D02*
X001172Y009623D01*
X001172Y009722D02*
X000600Y009722D01*
X000600Y009820D02*
X001172Y009820D01*
X001172Y009919D02*
X000600Y009919D01*
X000600Y010017D02*
X001172Y010017D01*
X001172Y010116D02*
X000600Y010116D01*
X000600Y010214D02*
X001172Y010214D01*
X001172Y010313D02*
X000600Y010313D01*
X000600Y010411D02*
X001172Y010411D01*
X001172Y010510D02*
X000600Y010510D01*
X000600Y010608D02*
X001172Y010608D01*
X001172Y010707D02*
X000600Y010707D01*
X000600Y010805D02*
X001203Y010805D01*
X000600Y008835D02*
X018821Y008835D01*
X018821Y008737D02*
X000600Y008737D01*
X000600Y008638D02*
X018821Y008638D01*
X018821Y008540D02*
X000600Y008540D01*
X004100Y007463D02*
X005246Y007463D01*
X005603Y007555D02*
X005647Y007555D01*
X005647Y007653D02*
X005603Y007653D01*
X005603Y007752D02*
X005656Y007752D01*
X005926Y007752D02*
X005983Y007752D01*
X005983Y007653D02*
X005926Y007653D01*
X005926Y007555D02*
X005983Y007555D01*
X005983Y007358D02*
X005926Y007358D01*
X005926Y007259D02*
X005983Y007259D01*
X005983Y007161D02*
X005926Y007161D01*
X006247Y007161D02*
X006672Y007161D01*
X006672Y007259D02*
X006262Y007259D01*
X005954Y006213D02*
X005954Y004963D01*
X005954Y002463D01*
X005926Y002492D02*
X005926Y002434D01*
X005983Y002434D01*
X005983Y002077D01*
X006132Y002077D01*
X006170Y002087D01*
X006204Y002107D01*
X006232Y002135D01*
X006252Y002169D01*
X006262Y002207D01*
X006262Y002434D01*
X005983Y002434D01*
X005983Y002492D01*
X005926Y002492D01*
X005926Y002849D01*
X005777Y002849D01*
X005739Y002839D01*
X005705Y002819D01*
X005677Y002791D01*
X005657Y002757D01*
X005647Y002719D01*
X005647Y002492D01*
X005926Y002492D01*
X005926Y002531D02*
X005983Y002531D01*
X005983Y002492D02*
X005983Y002849D01*
X006132Y002849D01*
X006170Y002839D01*
X006204Y002819D01*
X006232Y002791D01*
X006252Y002757D01*
X006262Y002719D01*
X006262Y002492D01*
X005983Y002492D01*
X005983Y002433D02*
X005926Y002433D01*
X005926Y002434D02*
X005926Y002077D01*
X005777Y002077D01*
X005739Y002087D01*
X005705Y002107D01*
X005677Y002135D01*
X005657Y002169D01*
X005647Y002207D01*
X005647Y002434D01*
X005926Y002434D01*
X005926Y002334D02*
X005983Y002334D01*
X005983Y002236D02*
X005926Y002236D01*
X005926Y002137D02*
X005983Y002137D01*
X006233Y002137D02*
X006672Y002137D01*
X006672Y002039D02*
X005498Y002039D01*
X005486Y002027D02*
X005603Y002144D01*
X005603Y002782D01*
X005486Y002899D01*
X005005Y002899D01*
X004948Y002842D01*
X004887Y002989D01*
X004626Y003250D01*
X004285Y003391D01*
X003915Y003391D01*
X003574Y003250D01*
X003313Y002989D01*
X003172Y002647D01*
X003172Y002278D01*
X003313Y001937D01*
X003574Y001676D01*
X003915Y001534D01*
X004285Y001534D01*
X004626Y001676D01*
X004887Y001937D01*
X004948Y002084D01*
X005005Y002027D01*
X005486Y002027D01*
X005597Y002137D02*
X005675Y002137D01*
X005647Y002236D02*
X005603Y002236D01*
X005603Y002334D02*
X005647Y002334D01*
X005647Y002433D02*
X005603Y002433D01*
X005603Y002531D02*
X005647Y002531D01*
X005647Y002630D02*
X005603Y002630D01*
X005603Y002728D02*
X005649Y002728D01*
X005718Y002827D02*
X005558Y002827D01*
X005926Y002827D02*
X005983Y002827D01*
X005983Y002728D02*
X005926Y002728D01*
X005926Y002630D02*
X005983Y002630D01*
X006262Y002630D02*
X006672Y002630D01*
X006672Y002728D02*
X006259Y002728D01*
X006190Y002827D02*
X006672Y002827D01*
X006672Y002925D02*
X004913Y002925D01*
X004852Y003024D02*
X006672Y003024D01*
X006672Y003122D02*
X004753Y003122D01*
X004655Y003221D02*
X006672Y003221D01*
X006672Y003274D02*
X006672Y001652D01*
X006789Y001534D01*
X008411Y001534D01*
X008528Y001652D01*
X008528Y003274D01*
X008411Y003391D01*
X006789Y003391D01*
X006672Y003274D01*
X006717Y003319D02*
X004458Y003319D01*
X003742Y003319D02*
X002983Y003319D01*
X003028Y003274D02*
X002911Y003391D01*
X001289Y003391D01*
X001172Y003274D01*
X001172Y001652D01*
X001289Y001534D01*
X002911Y001534D01*
X003028Y001652D01*
X003028Y003274D01*
X003028Y003221D02*
X003545Y003221D01*
X003447Y003122D02*
X003028Y003122D01*
X003028Y003024D02*
X003348Y003024D01*
X003287Y002925D02*
X003028Y002925D01*
X003028Y002827D02*
X003246Y002827D01*
X003205Y002728D02*
X003028Y002728D01*
X003028Y002630D02*
X003172Y002630D01*
X003172Y002531D02*
X003028Y002531D01*
X003028Y002433D02*
X003172Y002433D01*
X003172Y002334D02*
X003028Y002334D01*
X003028Y002236D02*
X003189Y002236D01*
X003230Y002137D02*
X003028Y002137D01*
X003028Y002039D02*
X003271Y002039D01*
X003312Y001940D02*
X003028Y001940D01*
X003028Y001842D02*
X003408Y001842D01*
X003507Y001743D02*
X003028Y001743D01*
X003022Y001645D02*
X003649Y001645D01*
X003887Y001546D02*
X002923Y001546D01*
X004313Y001546D02*
X006777Y001546D01*
X006678Y001645D02*
X004551Y001645D01*
X004693Y001743D02*
X006672Y001743D01*
X006672Y001842D02*
X004792Y001842D01*
X004888Y001940D02*
X006672Y001940D01*
X006672Y002236D02*
X006262Y002236D01*
X006262Y002334D02*
X006672Y002334D01*
X006672Y002433D02*
X006262Y002433D01*
X006262Y002531D02*
X006672Y002531D01*
X005246Y002463D02*
X004100Y002463D01*
X004929Y002039D02*
X004993Y002039D01*
X008423Y001546D02*
X009387Y001546D01*
X009415Y001534D02*
X009785Y001534D01*
X010126Y001676D01*
X010387Y001937D01*
X010448Y002084D01*
X010505Y002027D01*
X010986Y002027D01*
X011103Y002144D01*
X011103Y002782D01*
X010986Y002899D01*
X010505Y002899D01*
X010448Y002842D01*
X010387Y002989D01*
X010126Y003250D01*
X009785Y003391D01*
X009415Y003391D01*
X009074Y003250D01*
X008813Y002989D01*
X008672Y002647D01*
X008672Y002278D01*
X008813Y001937D01*
X009074Y001676D01*
X009415Y001534D01*
X009149Y001645D02*
X008522Y001645D01*
X008528Y001743D02*
X009007Y001743D01*
X008908Y001842D02*
X008528Y001842D01*
X008528Y001940D02*
X008812Y001940D01*
X008771Y002039D02*
X008528Y002039D01*
X008528Y002137D02*
X008730Y002137D01*
X008689Y002236D02*
X008528Y002236D01*
X008528Y002334D02*
X008672Y002334D01*
X008672Y002433D02*
X008528Y002433D01*
X008528Y002531D02*
X008672Y002531D01*
X008672Y002630D02*
X008528Y002630D01*
X008528Y002728D02*
X008705Y002728D01*
X008746Y002827D02*
X008528Y002827D01*
X008528Y002925D02*
X008787Y002925D01*
X008848Y003024D02*
X008528Y003024D01*
X008528Y003122D02*
X008947Y003122D01*
X009045Y003221D02*
X008528Y003221D01*
X008483Y003319D02*
X009242Y003319D01*
X009958Y003319D02*
X012217Y003319D01*
X012172Y003221D02*
X010155Y003221D01*
X010253Y003122D02*
X012172Y003122D01*
X012172Y003024D02*
X010352Y003024D01*
X010413Y002925D02*
X012172Y002925D01*
X012172Y002827D02*
X011690Y002827D01*
X011704Y002819D02*
X011670Y002839D01*
X011632Y002849D01*
X011483Y002849D01*
X011483Y002492D01*
X011426Y002492D01*
X011426Y002849D01*
X011277Y002849D01*
X011239Y002839D01*
X011205Y002819D01*
X011177Y002791D01*
X011157Y002757D01*
X011147Y002719D01*
X011147Y002492D01*
X011426Y002492D01*
X011426Y002434D01*
X011483Y002434D01*
X011483Y002077D01*
X011632Y002077D01*
X011670Y002087D01*
X011704Y002107D01*
X011732Y002135D01*
X011752Y002169D01*
X011762Y002207D01*
X011762Y002434D01*
X011483Y002434D01*
X011483Y002492D01*
X011762Y002492D01*
X011762Y002719D01*
X011752Y002757D01*
X011732Y002791D01*
X011704Y002819D01*
X011759Y002728D02*
X012172Y002728D01*
X012172Y002630D02*
X011762Y002630D01*
X011762Y002531D02*
X012172Y002531D01*
X012172Y002433D02*
X011762Y002433D01*
X011762Y002334D02*
X012172Y002334D01*
X012172Y002236D02*
X011762Y002236D01*
X011733Y002137D02*
X012172Y002137D01*
X012172Y002039D02*
X010998Y002039D01*
X011097Y002137D02*
X011175Y002137D01*
X011177Y002135D02*
X011205Y002107D01*
X011239Y002087D01*
X011277Y002077D01*
X011426Y002077D01*
X011426Y002434D01*
X011147Y002434D01*
X011147Y002207D01*
X011157Y002169D01*
X011177Y002135D01*
X011147Y002236D02*
X011103Y002236D01*
X011103Y002334D02*
X011147Y002334D01*
X011147Y002433D02*
X011103Y002433D01*
X011103Y002531D02*
X011147Y002531D01*
X011147Y002630D02*
X011103Y002630D01*
X011103Y002728D02*
X011149Y002728D01*
X011218Y002827D02*
X011058Y002827D01*
X011426Y002827D02*
X011483Y002827D01*
X011483Y002728D02*
X011426Y002728D01*
X011426Y002630D02*
X011483Y002630D01*
X011483Y002531D02*
X011426Y002531D01*
X011454Y002463D02*
X011454Y004963D01*
X011454Y006213D01*
X012179Y005782D02*
X010049Y005782D01*
X010126Y005750D02*
X009785Y005891D01*
X009415Y005891D01*
X009074Y005750D01*
X008813Y005489D01*
X008672Y005147D01*
X008672Y004778D01*
X008813Y004437D01*
X009074Y004176D01*
X009415Y004034D01*
X009785Y004034D01*
X010126Y004176D01*
X010387Y004437D01*
X010448Y004584D01*
X010505Y004527D01*
X010986Y004527D01*
X011103Y004644D01*
X011103Y005282D01*
X010986Y005399D01*
X010505Y005399D01*
X010448Y005342D01*
X010387Y005489D01*
X010126Y005750D01*
X010192Y005683D02*
X012172Y005683D01*
X012172Y005585D02*
X010291Y005585D01*
X010388Y005486D02*
X012172Y005486D01*
X012172Y005388D02*
X010997Y005388D01*
X011096Y005289D02*
X011176Y005289D01*
X011177Y005291D02*
X011157Y005257D01*
X011147Y005219D01*
X011147Y004992D01*
X011426Y004992D01*
X011426Y005349D01*
X011277Y005349D01*
X011239Y005339D01*
X011205Y005319D01*
X011177Y005291D01*
X011147Y005191D02*
X011103Y005191D01*
X011103Y005092D02*
X011147Y005092D01*
X011147Y004994D02*
X011103Y004994D01*
X011147Y004934D02*
X011147Y004707D01*
X011157Y004669D01*
X011177Y004635D01*
X011205Y004607D01*
X011239Y004587D01*
X011277Y004577D01*
X011426Y004577D01*
X011426Y004934D01*
X011483Y004934D01*
X011483Y004577D01*
X011632Y004577D01*
X011670Y004587D01*
X011704Y004607D01*
X011732Y004635D01*
X011752Y004669D01*
X011762Y004707D01*
X011762Y004934D01*
X011483Y004934D01*
X011483Y004992D01*
X011426Y004992D01*
X011426Y004934D01*
X011147Y004934D01*
X011147Y004895D02*
X011103Y004895D01*
X011103Y004797D02*
X011147Y004797D01*
X011149Y004698D02*
X011103Y004698D01*
X011059Y004600D02*
X011216Y004600D01*
X011426Y004600D02*
X011483Y004600D01*
X011483Y004698D02*
X011426Y004698D01*
X011426Y004797D02*
X011483Y004797D01*
X011483Y004895D02*
X011426Y004895D01*
X011426Y004994D02*
X011483Y004994D01*
X011483Y004992D02*
X011483Y005349D01*
X011632Y005349D01*
X011670Y005339D01*
X011704Y005319D01*
X011732Y005291D01*
X011752Y005257D01*
X011762Y005219D01*
X011762Y004992D01*
X011483Y004992D01*
X011483Y005092D02*
X011426Y005092D01*
X011426Y005191D02*
X011483Y005191D01*
X011483Y005289D02*
X011426Y005289D01*
X011733Y005289D02*
X012172Y005289D01*
X012172Y005191D02*
X011762Y005191D01*
X011762Y005092D02*
X012172Y005092D01*
X012172Y004994D02*
X011762Y004994D01*
X011762Y004895D02*
X012172Y004895D01*
X012172Y004797D02*
X011762Y004797D01*
X011760Y004698D02*
X012172Y004698D01*
X012172Y004600D02*
X011692Y004600D01*
X012172Y004501D02*
X010414Y004501D01*
X010353Y004403D02*
X012172Y004403D01*
X012172Y004304D02*
X010254Y004304D01*
X010156Y004206D02*
X012172Y004206D01*
X012216Y004107D02*
X009961Y004107D01*
X009239Y004107D02*
X008484Y004107D01*
X008528Y004152D02*
X008411Y004034D01*
X006789Y004034D01*
X006672Y004152D01*
X006672Y005774D01*
X006789Y005891D01*
X008411Y005891D01*
X008528Y005774D01*
X008528Y004152D01*
X008528Y004206D02*
X009044Y004206D01*
X008946Y004304D02*
X008528Y004304D01*
X008528Y004403D02*
X008847Y004403D01*
X008786Y004501D02*
X008528Y004501D01*
X008528Y004600D02*
X008746Y004600D01*
X008705Y004698D02*
X008528Y004698D01*
X008528Y004797D02*
X008672Y004797D01*
X008672Y004895D02*
X008528Y004895D01*
X008528Y004994D02*
X008672Y004994D01*
X008672Y005092D02*
X008528Y005092D01*
X008528Y005191D02*
X008690Y005191D01*
X008730Y005289D02*
X008528Y005289D01*
X008528Y005388D02*
X008771Y005388D01*
X008812Y005486D02*
X008528Y005486D01*
X008528Y005585D02*
X008909Y005585D01*
X009008Y005683D02*
X008528Y005683D01*
X008521Y005782D02*
X009151Y005782D01*
X009389Y005880D02*
X008422Y005880D01*
X009811Y005880D02*
X012278Y005880D01*
X010494Y005388D02*
X010429Y005388D01*
X010746Y004963D02*
X009600Y004963D01*
X006778Y005880D02*
X004311Y005880D01*
X004285Y005891D02*
X003915Y005891D01*
X003574Y005750D01*
X003313Y005489D01*
X003172Y005147D01*
X003172Y004778D01*
X003313Y004437D01*
X003574Y004176D01*
X003915Y004034D01*
X004285Y004034D01*
X004626Y004176D01*
X004887Y004437D01*
X004948Y004584D01*
X005005Y004527D01*
X005486Y004527D01*
X005603Y004644D01*
X005603Y005282D01*
X005486Y005399D01*
X005005Y005399D01*
X004948Y005342D01*
X004887Y005489D01*
X004626Y005750D01*
X004285Y005891D01*
X004549Y005782D02*
X006679Y005782D01*
X006672Y005683D02*
X004692Y005683D01*
X004791Y005585D02*
X006672Y005585D01*
X006672Y005486D02*
X004888Y005486D01*
X004929Y005388D02*
X004994Y005388D01*
X005497Y005388D02*
X006672Y005388D01*
X006672Y005289D02*
X006233Y005289D01*
X006232Y005291D02*
X006204Y005319D01*
X006170Y005339D01*
X006132Y005349D01*
X005983Y005349D01*
X005983Y004992D01*
X005926Y004992D01*
X005926Y005349D01*
X005777Y005349D01*
X005739Y005339D01*
X005705Y005319D01*
X005677Y005291D01*
X005657Y005257D01*
X005647Y005219D01*
X005647Y004992D01*
X005926Y004992D01*
X005926Y004934D01*
X005983Y004934D01*
X005983Y004577D01*
X006132Y004577D01*
X006170Y004587D01*
X006204Y004607D01*
X006232Y004635D01*
X006252Y004669D01*
X006262Y004707D01*
X006262Y004934D01*
X005983Y004934D01*
X005983Y004992D01*
X006262Y004992D01*
X006262Y005219D01*
X006252Y005257D01*
X006232Y005291D01*
X006262Y005191D02*
X006672Y005191D01*
X006672Y005092D02*
X006262Y005092D01*
X006262Y004994D02*
X006672Y004994D01*
X006672Y004895D02*
X006262Y004895D01*
X006262Y004797D02*
X006672Y004797D01*
X006672Y004698D02*
X006260Y004698D01*
X006192Y004600D02*
X006672Y004600D01*
X006672Y004501D02*
X004914Y004501D01*
X004853Y004403D02*
X006672Y004403D01*
X006672Y004304D02*
X004754Y004304D01*
X004656Y004206D02*
X006672Y004206D01*
X006716Y004107D02*
X004461Y004107D01*
X003739Y004107D02*
X002984Y004107D01*
X003028Y004206D02*
X003544Y004206D01*
X003446Y004304D02*
X003028Y004304D01*
X003028Y004403D02*
X003347Y004403D01*
X003286Y004501D02*
X003028Y004501D01*
X003028Y004600D02*
X003246Y004600D01*
X003205Y004698D02*
X003028Y004698D01*
X003028Y004797D02*
X003172Y004797D01*
X003172Y004895D02*
X003028Y004895D01*
X003028Y004994D02*
X003172Y004994D01*
X003172Y005092D02*
X003028Y005092D01*
X003028Y005191D02*
X003190Y005191D01*
X003230Y005289D02*
X003028Y005289D01*
X003028Y005388D02*
X003271Y005388D01*
X003312Y005486D02*
X003028Y005486D01*
X003028Y005585D02*
X003409Y005585D01*
X003508Y005683D02*
X003028Y005683D01*
X003021Y005782D02*
X003651Y005782D01*
X003889Y005880D02*
X002922Y005880D01*
X004100Y004963D02*
X005246Y004963D01*
X005603Y004994D02*
X005647Y004994D01*
X005647Y004934D02*
X005647Y004707D01*
X005657Y004669D01*
X005677Y004635D01*
X005705Y004607D01*
X005739Y004587D01*
X005777Y004577D01*
X005926Y004577D01*
X005926Y004934D01*
X005647Y004934D01*
X005647Y004895D02*
X005603Y004895D01*
X005603Y004797D02*
X005647Y004797D01*
X005649Y004698D02*
X005603Y004698D01*
X005559Y004600D02*
X005716Y004600D01*
X005926Y004600D02*
X005983Y004600D01*
X005983Y004698D02*
X005926Y004698D01*
X005926Y004797D02*
X005983Y004797D01*
X005983Y004895D02*
X005926Y004895D01*
X005926Y004994D02*
X005983Y004994D01*
X005983Y005092D02*
X005926Y005092D01*
X005926Y005191D02*
X005983Y005191D01*
X005983Y005289D02*
X005926Y005289D01*
X005676Y005289D02*
X005596Y005289D01*
X005603Y005191D02*
X005647Y005191D01*
X005647Y005092D02*
X005603Y005092D01*
X001217Y003319D02*
X000600Y003319D01*
X000600Y003221D02*
X001172Y003221D01*
X001172Y003122D02*
X000600Y003122D01*
X000600Y003024D02*
X001172Y003024D01*
X001172Y002925D02*
X000600Y002925D01*
X000600Y002827D02*
X001172Y002827D01*
X001172Y002728D02*
X000600Y002728D01*
X000600Y002630D02*
X001172Y002630D01*
X001172Y002531D02*
X000600Y002531D01*
X000600Y002433D02*
X001172Y002433D01*
X001172Y002334D02*
X000600Y002334D01*
X000600Y002236D02*
X001172Y002236D01*
X001172Y002137D02*
X000600Y002137D01*
X000600Y002039D02*
X001172Y002039D01*
X001172Y001940D02*
X000600Y001940D01*
X000600Y001842D02*
X001172Y001842D01*
X001172Y001743D02*
X000600Y001743D01*
X000600Y001645D02*
X001178Y001645D01*
X001277Y001546D02*
X000600Y001546D01*
X009600Y002463D02*
X010746Y002463D01*
X011426Y002433D02*
X011483Y002433D01*
X011483Y002334D02*
X011426Y002334D01*
X011426Y002236D02*
X011483Y002236D01*
X011483Y002137D02*
X011426Y002137D01*
X012172Y001940D02*
X010388Y001940D01*
X010429Y002039D02*
X010493Y002039D01*
X010292Y001842D02*
X012172Y001842D01*
X012172Y001743D02*
X010193Y001743D01*
X010051Y001645D02*
X012178Y001645D01*
X012277Y001546D02*
X009813Y001546D01*
X013923Y001546D02*
X014887Y001546D01*
X014649Y001645D02*
X014022Y001645D01*
X014028Y001743D02*
X014507Y001743D01*
X014408Y001842D02*
X014028Y001842D01*
X014028Y001940D02*
X014312Y001940D01*
X016926Y002630D02*
X016983Y002630D01*
X016983Y002728D02*
X016926Y002728D01*
X016926Y002827D02*
X016983Y002827D01*
X017190Y002827D02*
X018280Y002827D01*
X021100Y004321D02*
X021100Y004609D01*
X021600Y004463D02*
X022066Y004963D01*
X021958Y004963D01*
X022066Y004963D01*
X020655Y005754D02*
X020506Y005605D01*
X020100Y005605D01*
X020100Y005317D01*
X020655Y005754D02*
X020655Y006179D01*
X020468Y006668D02*
X020213Y006668D01*
X019838Y006668D02*
X019702Y006668D01*
X018891Y007203D02*
X018797Y007109D01*
X018891Y007203D02*
X019104Y007203D01*
X019317Y007203D01*
X019742Y007203D01*
X019742Y009723D01*
X019317Y009723D01*
X018821Y009426D02*
X016668Y009426D01*
X016570Y009328D02*
X018821Y009328D01*
X018821Y009229D02*
X016471Y009229D01*
X016373Y009131D02*
X018821Y009131D01*
X018821Y009032D02*
X016274Y009032D01*
X016176Y008934D02*
X018821Y008934D01*
X016246Y009963D02*
X015100Y009963D01*
X013100Y009963D02*
X013100Y011531D01*
X012888Y011743D01*
X012676Y011743D02*
X012676Y013189D01*
X013100Y013613D01*
X013100Y014183D01*
X014010Y014183D02*
X014010Y014753D01*
X014312Y014753D01*
X014458Y014607D01*
X014458Y014463D01*
X014746Y014463D01*
X015454Y014463D02*
X017994Y014463D01*
X021285Y011172D01*
X021285Y010746D01*
X020405Y010214D02*
X019740Y010214D01*
X019762Y010116D02*
X020405Y010116D01*
X021433Y011692D02*
X022442Y011692D01*
X022438Y011790D02*
X021335Y011790D01*
X020645Y012480D02*
X026018Y012480D01*
X025920Y012381D02*
X023712Y012381D01*
X023811Y012283D02*
X025821Y012283D01*
X025723Y012184D02*
X023812Y012184D01*
X023812Y012086D02*
X025624Y012086D01*
X026117Y012578D02*
X020547Y012578D01*
X020448Y012677D02*
X026215Y012677D01*
X026314Y012775D02*
X020350Y012775D01*
X020251Y012874D02*
X026412Y012874D01*
X026511Y012972D02*
X020153Y012972D01*
X020054Y013071D02*
X026609Y013071D01*
X026708Y013169D02*
X019956Y013169D01*
X019857Y013268D02*
X026806Y013268D01*
X026905Y013366D02*
X019759Y013366D01*
X019660Y013465D02*
X027003Y013465D01*
X027102Y013563D02*
X019562Y013563D01*
X019463Y013662D02*
X027200Y013662D01*
X027299Y013760D02*
X019365Y013760D01*
X019266Y013859D02*
X029674Y013859D01*
X029772Y013957D02*
X019168Y013957D01*
X019069Y014056D02*
X029755Y014056D01*
X029714Y014154D02*
X018971Y014154D01*
X018872Y014253D02*
X029714Y014253D01*
X029714Y014351D02*
X018774Y014351D01*
X018675Y014450D02*
X029714Y014450D01*
X029733Y014548D02*
X018577Y014548D01*
X018281Y014844D02*
X039100Y014844D01*
X039100Y014942D02*
X018183Y014942D01*
X008387Y013071D02*
X007840Y013071D01*
X007850Y013169D02*
X008289Y013169D01*
X008190Y013268D02*
X007850Y013268D01*
X007850Y013366D02*
X008092Y013366D01*
X007993Y013465D02*
X007850Y013465D01*
X011103Y007752D02*
X011156Y007752D01*
X011147Y007653D02*
X011103Y007653D01*
X011103Y007555D02*
X011147Y007555D01*
X011426Y007555D02*
X011483Y007555D01*
X011483Y007653D02*
X011426Y007653D01*
X011426Y007752D02*
X011483Y007752D01*
X011483Y007358D02*
X011426Y007358D01*
X011426Y007259D02*
X011483Y007259D01*
X011483Y007161D02*
X011426Y007161D01*
X011747Y007161D02*
X012172Y007161D01*
X012172Y007259D02*
X011762Y007259D01*
X010746Y007463D02*
X009600Y007463D01*
X018435Y006767D02*
X018547Y006767D01*
X030100Y005109D02*
X030466Y005109D01*
X030522Y005053D01*
X033250Y005053D01*
X033820Y005053D01*
X034822Y004874D02*
X034822Y006441D01*
X034390Y006873D01*
X033820Y006873D01*
X033070Y006802D02*
X033070Y006143D01*
X033250Y005963D01*
X033820Y005963D01*
X035072Y005979D02*
X036779Y005979D01*
X036679Y006077D02*
X036245Y006077D01*
X036312Y006176D02*
X036602Y006176D01*
X037100Y006463D02*
X035954Y006463D01*
X035597Y006373D02*
X035553Y006373D01*
X035553Y006274D02*
X035597Y006274D01*
X035597Y006176D02*
X035545Y006176D01*
X035426Y006077D02*
X035663Y006077D01*
X035274Y006176D02*
X035217Y006176D01*
X035217Y006274D02*
X035274Y006274D01*
X035274Y006373D02*
X035217Y006373D01*
X036312Y006767D02*
X036609Y006767D01*
X036696Y006865D02*
X036228Y006865D01*
X036820Y006964D02*
X034652Y006964D01*
X037380Y006964D02*
X037820Y006964D01*
X037696Y006865D02*
X037504Y006865D01*
X037591Y006767D02*
X037609Y006767D01*
X037598Y006176D02*
X037602Y006176D01*
X037679Y006077D02*
X037521Y006077D01*
X037421Y005979D02*
X037779Y005979D01*
X035600Y005713D02*
X035600Y005463D01*
X038562Y004875D02*
X038562Y004500D01*
X038638Y004500D01*
X038638Y004501D02*
X038562Y004501D01*
X038562Y004403D02*
X038638Y004403D01*
X038638Y004304D02*
X038562Y004304D01*
X038562Y004206D02*
X038638Y004206D01*
X038638Y004107D02*
X038562Y004107D01*
X038562Y004600D02*
X038638Y004600D01*
X038638Y004698D02*
X038562Y004698D01*
X038519Y010313D02*
X039100Y010313D01*
X039100Y010411D02*
X038421Y010411D01*
X038322Y010510D02*
X039100Y010510D01*
X039100Y010608D02*
X038224Y010608D01*
X038125Y010707D02*
X039100Y010707D01*
X039100Y010805D02*
X038027Y010805D01*
X037928Y010904D02*
X039100Y010904D01*
X039100Y011002D02*
X037830Y011002D01*
X037892Y011101D02*
X038402Y011101D01*
X038384Y011110D02*
X038442Y011081D01*
X038503Y011060D01*
X038562Y011051D01*
X038562Y011425D01*
X038188Y011425D01*
X038198Y011366D01*
X038218Y011304D01*
X038247Y011247D01*
X038285Y011194D01*
X038331Y011148D01*
X038384Y011110D01*
X038282Y011199D02*
X037991Y011199D01*
X038032Y011298D02*
X038221Y011298D01*
X038193Y011396D02*
X038062Y011396D01*
X038062Y011495D02*
X038562Y011495D01*
X038562Y011500D02*
X038562Y011425D01*
X038638Y011425D01*
X038638Y011500D01*
X039012Y011500D01*
X039002Y011559D01*
X038982Y011621D01*
X038953Y011679D01*
X038915Y011732D01*
X038869Y011777D01*
X038816Y011816D01*
X038758Y011845D01*
X038697Y011865D01*
X038638Y011875D01*
X038638Y011500D01*
X038562Y011500D01*
X038188Y011500D01*
X038198Y011559D01*
X038218Y011621D01*
X038247Y011679D01*
X038285Y011732D01*
X038331Y011777D01*
X038384Y011816D01*
X038442Y011845D01*
X038503Y011865D01*
X038562Y011875D01*
X038562Y011500D01*
X038638Y011495D02*
X039100Y011495D01*
X039100Y011593D02*
X038991Y011593D01*
X038943Y011692D02*
X039100Y011692D01*
X039100Y011790D02*
X038851Y011790D01*
X038638Y011790D02*
X038562Y011790D01*
X038562Y011692D02*
X038638Y011692D01*
X038638Y011593D02*
X038562Y011593D01*
X038638Y011425D02*
X039012Y011425D01*
X039002Y011366D01*
X038982Y011304D01*
X038953Y011247D01*
X038915Y011194D01*
X038869Y011148D01*
X038816Y011110D01*
X038758Y011081D01*
X038697Y011060D01*
X038638Y011051D01*
X038638Y011425D01*
X038638Y011396D02*
X038562Y011396D01*
X038562Y011298D02*
X038638Y011298D01*
X038638Y011199D02*
X038562Y011199D01*
X038562Y011101D02*
X038638Y011101D01*
X038798Y011101D02*
X039100Y011101D01*
X039100Y011199D02*
X038918Y011199D01*
X038979Y011298D02*
X039100Y011298D01*
X039100Y011396D02*
X039007Y011396D01*
X038349Y011790D02*
X037927Y011790D01*
X038006Y011692D02*
X038257Y011692D01*
X038209Y011593D02*
X038047Y011593D01*
X037780Y011889D02*
X039100Y011889D01*
X039100Y011987D02*
X037023Y011987D01*
X037122Y011889D02*
X037420Y011889D01*
X037273Y011790D02*
X037220Y011790D01*
X036925Y012086D02*
X039100Y012086D01*
X039100Y012184D02*
X036826Y012184D01*
X036728Y012283D02*
X039100Y012283D01*
X039100Y012381D02*
X036629Y012381D01*
X036211Y012480D02*
X039100Y012480D01*
X039100Y012578D02*
X036113Y012578D01*
X036014Y012677D02*
X039100Y012677D01*
X039100Y012775D02*
X035916Y012775D01*
X035817Y012874D02*
X039100Y012874D01*
X039100Y012972D02*
X038405Y012972D01*
X038514Y013071D02*
X039100Y013071D01*
X039100Y013169D02*
X038595Y013169D01*
X038636Y013268D02*
X039100Y013268D01*
X039100Y013366D02*
X038670Y013366D01*
X038670Y013465D02*
X039100Y013465D01*
X039100Y013563D02*
X038670Y013563D01*
X038635Y013662D02*
X039100Y013662D01*
X039100Y013760D02*
X038594Y013760D01*
X038510Y013859D02*
X039100Y013859D01*
X039100Y013957D02*
X038396Y013957D01*
X039100Y014056D02*
X035945Y014056D01*
X035956Y014068D02*
X035976Y014102D01*
X035986Y014140D01*
X035986Y014288D01*
X035629Y014288D01*
X035629Y014010D01*
X035856Y014010D01*
X035894Y014020D01*
X035928Y014040D01*
X035956Y014068D01*
X035986Y014154D02*
X039100Y014154D01*
X039100Y014253D02*
X035986Y014253D01*
X035986Y014346D02*
X035986Y014494D01*
X035976Y014533D01*
X035956Y014567D01*
X035928Y014595D01*
X035894Y014614D01*
X035856Y014625D01*
X035629Y014625D01*
X035629Y014346D01*
X035986Y014346D01*
X035986Y014351D02*
X039100Y014351D01*
X039100Y014450D02*
X035986Y014450D01*
X035967Y014548D02*
X039100Y014548D01*
X039100Y014647D02*
X034460Y014647D01*
X034410Y014745D02*
X039100Y014745D01*
X037804Y013957D02*
X037396Y013957D01*
X037510Y013859D02*
X037690Y013859D01*
X037606Y013760D02*
X037594Y013760D01*
X037100Y013463D02*
X036954Y013609D01*
X035600Y013609D01*
X035232Y013841D02*
X035420Y014030D01*
X035600Y014030D01*
X035600Y014317D01*
X035571Y014288D02*
X035629Y014288D01*
X035629Y014346D01*
X035571Y014346D01*
X035571Y014288D01*
X035571Y014010D01*
X035344Y014010D01*
X035306Y014020D01*
X035272Y014040D01*
X035244Y014068D01*
X035224Y014102D01*
X035214Y014140D01*
X035214Y014288D01*
X035571Y014288D01*
X035571Y014253D02*
X035629Y014253D01*
X035629Y014351D02*
X035571Y014351D01*
X035571Y014346D02*
X035571Y014625D01*
X035344Y014625D01*
X035306Y014614D01*
X035272Y014595D01*
X035244Y014567D01*
X035224Y014533D01*
X035214Y014494D01*
X035214Y014346D01*
X035571Y014346D01*
X035571Y014450D02*
X035629Y014450D01*
X035629Y014548D02*
X035571Y014548D01*
X035233Y014548D02*
X034568Y014548D01*
X034629Y014450D02*
X035214Y014450D01*
X035214Y014351D02*
X034640Y014351D01*
X034640Y014253D02*
X035214Y014253D01*
X035214Y014154D02*
X034640Y014154D01*
X034640Y014056D02*
X035255Y014056D01*
X035272Y013957D02*
X034734Y013957D01*
X034832Y013859D02*
X035174Y013859D01*
X035164Y013760D02*
X034931Y013760D01*
X035029Y013662D02*
X035164Y013662D01*
X035164Y013563D02*
X035128Y013563D01*
X035936Y013268D02*
X036564Y013268D01*
X036605Y013169D02*
X035522Y013169D01*
X035620Y013071D02*
X036686Y013071D01*
X036795Y012972D02*
X035719Y012972D01*
X034958Y011985D02*
X034390Y012553D01*
X033820Y012553D01*
X034958Y011985D02*
X034958Y011463D01*
X035246Y011463D01*
X035954Y011463D02*
X036600Y011463D01*
X037405Y012972D02*
X037795Y012972D01*
X037686Y013071D02*
X037514Y013071D01*
X037595Y013169D02*
X037605Y013169D01*
X036804Y013957D02*
X035928Y013957D01*
X036027Y013859D02*
X036690Y013859D01*
X035629Y014056D02*
X035571Y014056D01*
X035571Y014154D02*
X035629Y014154D01*
X030844Y014351D02*
X030486Y014351D01*
X030486Y014253D02*
X030747Y014253D01*
X030747Y014154D02*
X030486Y014154D01*
X030445Y014056D02*
X030747Y014056D01*
X030747Y013957D02*
X030428Y013957D01*
X030527Y013859D02*
X030747Y013859D01*
X030129Y014056D02*
X030071Y014056D01*
X030071Y014154D02*
X030129Y014154D01*
X030129Y014253D02*
X030071Y014253D01*
X030071Y014351D02*
X030129Y014351D01*
X030129Y014450D02*
X030071Y014450D01*
X030071Y014548D02*
X030129Y014548D01*
D28*
X023454Y011430D03*
X018301Y010963D03*
X023270Y007872D03*
X024533Y007223D03*
X027549Y004726D03*
X022100Y004313D03*
D29*
X021600Y004463D01*
X022102Y004963D01*
X022066Y004963D02*
X021466Y004306D01*
X021230Y004069D01*
X021230Y003447D01*
X019970Y003447D02*
X019970Y004069D01*
X023129Y002325D02*
X024681Y000772D01*
X028659Y000772D01*
X029350Y001463D01*
X029100Y001463D01*
D30*
X021100Y005317D02*
X021100Y005615D01*
X020971Y005744D01*
X020970Y005744D01*
X020970Y006179D01*
X022100Y008963D02*
X022800Y008963D01*
X013100Y011743D02*
X012888Y011743D01*
X012676Y011743D01*
D31*
X022100Y008963D03*
X021100Y007963D03*
X035600Y005713D03*
X037100Y012163D03*
M02*
