G04 This is an RS-274x file exported by *
G04 gerbv version 2.6.1 *
G04 More information is available about gerbv at *
G04 http://gerbv.geda-project.org/ *
G04 --End of header info--*
%MOIN*%
%FSLAX34Y34*%
%IPPOS*%
G04 --Define apertures--*
%ADD10R,0.0277X0.0671*%
%ADD11R,0.0671X0.0277*%
%ADD12R,0.0552X0.0395*%
%ADD13R,0.0395X0.0552*%
%ADD14R,0.0277X0.1064*%
%ADD15R,0.0867X0.1064*%
%ADD16C,0.0434*%
%ADD17C,0.0730*%
%ADD18R,0.0580X0.0330*%
%AMMACRO19*
5,1,8,0.000000,0.000000,0.088756,22.500000*
%
%ADD19MACRO19*%
%ADD20R,0.0960X0.0560*%
%ADD21R,0.0946X0.1497*%
%ADD22C,0.0820*%
%ADD23R,0.0560X0.0960*%
%ADD24R,0.1497X0.0946*%
%ADD25C,0.1537*%
%ADD26R,0.1537X0.1537*%
%ADD27C,0.0605*%
%ADD28C,0.0480*%
%ADD29C,0.0456*%
G04 --Start main section--*
G54D10*
G01X0020025Y0006179D03*
G01X0020340Y0006179D03*
G01X0020655Y0006179D03*
G01X0020970Y0006179D03*
G01X0021285Y0006179D03*
G01X0021600Y0006179D03*
G01X0021915Y0006179D03*
G01X0022230Y0006179D03*
G01X0022545Y0006179D03*
G01X0022860Y0006179D03*
G01X0023175Y0006179D03*
G01X0023175Y0010746D03*
G01X0022860Y0010746D03*
G01X0022545Y0010746D03*
G01X0022230Y0010746D03*
G01X0021915Y0010746D03*
G01X0021600Y0010746D03*
G01X0021285Y0010746D03*
G01X0020970Y0010746D03*
G01X0020655Y0010746D03*
G01X0020340Y0010746D03*
G01X0020025Y0010746D03*
G54D11*
G01X0019317Y0010038D03*
G01X0019317Y0009723D03*
G01X0019317Y0009408D03*
G01X0019317Y0009093D03*
G01X0019317Y0008778D03*
G01X0019317Y0008463D03*
G01X0019317Y0008148D03*
G01X0019317Y0007833D03*
G01X0019317Y0007518D03*
G01X0019317Y0007203D03*
G01X0019317Y0006888D03*
G01X0023883Y0006888D03*
G01X0023883Y0007203D03*
G01X0023883Y0007518D03*
G01X0023883Y0007833D03*
G01X0023883Y0008148D03*
G01X0023883Y0008463D03*
G01X0023883Y0008778D03*
G01X0023883Y0009093D03*
G01X0023883Y0009408D03*
G01X0023883Y0009723D03*
G01X0023883Y0010038D03*
G54D12*
G01X0018100Y0007817D03*
G01X0018100Y0007109D03*
G01X0020100Y0005317D03*
G01X0021100Y0005317D03*
G01X0021100Y0004609D03*
G01X0020100Y0004609D03*
G01X0030100Y0005109D03*
G01X0030100Y0005817D03*
G01X0035600Y0002817D03*
G01X0035600Y0002109D03*
G01X0030100Y0009109D03*
G01X0030100Y0009817D03*
G01X0030100Y0013609D03*
G01X0030100Y0014317D03*
G01X0035600Y0014317D03*
G01X0035600Y0013609D03*
G54D13*
G01X0035246Y0011463D03*
G01X0035954Y0011463D03*
G01X0035954Y0009463D03*
G01X0035246Y0009463D03*
G01X0035246Y0006463D03*
G01X0035954Y0006463D03*
G01X0035954Y0004463D03*
G01X0035246Y0004463D03*
G01X0026454Y0005463D03*
G01X0025746Y0005463D03*
G01X0022954Y0004963D03*
G01X0022246Y0004963D03*
G01X0018954Y0004963D03*
G01X0018246Y0004963D03*
G01X0016954Y0004963D03*
G01X0016246Y0004963D03*
G01X0011454Y0004963D03*
G01X0010746Y0004963D03*
G01X0005954Y0004963D03*
G01X0005246Y0004963D03*
G01X0005246Y0007463D03*
G01X0005954Y0007463D03*
G01X0010746Y0007463D03*
G01X0011454Y0007463D03*
G01X0016246Y0007463D03*
G01X0016954Y0007463D03*
G01X0016954Y0009963D03*
G01X0016246Y0009963D03*
G01X0018746Y0010963D03*
G01X0019454Y0010963D03*
G01X0022746Y0011963D03*
G01X0023454Y0011963D03*
G01X0024746Y0010963D03*
G01X0025454Y0010963D03*
G01X0015454Y0014463D03*
G01X0014746Y0014463D03*
G01X0009954Y0014463D03*
G01X0009246Y0014463D03*
G01X0004454Y0014463D03*
G01X0003746Y0014463D03*
G01X0005246Y0009963D03*
G01X0005954Y0009963D03*
G01X0010746Y0009963D03*
G01X0011454Y0009963D03*
G01X0011454Y0002463D03*
G01X0010746Y0002463D03*
G01X0005954Y0002463D03*
G01X0005246Y0002463D03*
G01X0016246Y0002463D03*
G01X0016954Y0002463D03*
G54D14*
G01X0019970Y0003447D03*
G01X0020285Y0003447D03*
G01X0020600Y0003447D03*
G01X0020915Y0003447D03*
G01X0021230Y0003447D03*
G54D15*
G01X0022372Y0003447D03*
G01X0018828Y0003447D03*
G01X0018828Y0001282D03*
G01X0022372Y0001282D03*
G54D16*
G01X0021466Y0002463D03*
G01X0019734Y0002463D03*
G54D17*
G01X0026600Y0007463D03*
G01X0026600Y0009463D03*
G54D18*
G01X0025600Y0002140D03*
G01X0025600Y0001786D03*
G54D19*
G01X0027100Y0001463D03*
G01X0028100Y0001463D03*
G01X0029100Y0001463D03*
G01X0029100Y0002463D03*
G01X0028100Y0002463D03*
G01X0027100Y0002463D03*
G54D20*
G01X0033820Y0002463D03*
G01X0033820Y0003373D03*
G01X0033820Y0005053D03*
G01X0033820Y0005963D03*
G01X0033820Y0006873D03*
G01X0033820Y0009053D03*
G01X0033820Y0009963D03*
G01X0033820Y0010873D03*
G01X0033820Y0012553D03*
G01X0033820Y0013463D03*
G01X0033820Y0014373D03*
G01X0033820Y0001553D03*
G54D21*
G01X0031380Y0002463D03*
G01X0031380Y0005963D03*
G01X0031380Y0009963D03*
G01X0031380Y0013463D03*
G54D22*
G01X0037100Y0013463D03*
G01X0038100Y0013463D03*
G01X0038100Y0009463D03*
G01X0037100Y0009463D03*
G01X0037100Y0006463D03*
G01X0038100Y0006463D03*
G01X0038100Y0002463D03*
G01X0037100Y0002463D03*
G54D23*
G01X0014010Y0014183D03*
G01X0013100Y0014183D03*
G01X0012190Y0014183D03*
G01X0008510Y0014183D03*
G01X0007600Y0014183D03*
G01X0006690Y0014183D03*
G01X0003010Y0014183D03*
G01X0002100Y0014183D03*
G01X0001190Y0014183D03*
G54D24*
G01X0002100Y0011743D03*
G01X0007600Y0011743D03*
G01X0013100Y0011743D03*
G54D25*
G01X0015100Y0009963D03*
G01X0009600Y0009963D03*
G01X0004100Y0009963D03*
G01X0004100Y0007463D03*
G01X0009600Y0007463D03*
G01X0015100Y0007463D03*
G01X0015100Y0004963D03*
G01X0009600Y0004963D03*
G01X0004100Y0004963D03*
G01X0004100Y0002463D03*
G01X0009600Y0002463D03*
G01X0015100Y0002463D03*
G54D26*
G01X0002100Y0002463D03*
G01X0007600Y0002463D03*
G01X0013100Y0002463D03*
G01X0013100Y0004963D03*
G01X0007600Y0004963D03*
G01X0002100Y0004963D03*
G01X0002100Y0007463D03*
G01X0007600Y0007463D03*
G01X0013100Y0007463D03*
G01X0013100Y0009963D03*
G01X0007600Y0009963D03*
G01X0002100Y0009963D03*
G54D27*
G01X0036600Y0011463D03*
G01X0037600Y0011463D03*
G01X0038600Y0011463D03*
G01X0038600Y0004463D03*
G01X0037600Y0004463D03*
G01X0036600Y0004463D03*
G54D28*
G01X0027549Y0004726D03*
G01X0022100Y0004313D03*
G01X0024533Y0007223D03*
G01X0023270Y0007872D03*
G01X0018301Y0010963D03*
G01X0023454Y0011430D03*
G54D29*
G01X0022100Y0008963D03*
G01X0021100Y0007963D03*
G01X0035600Y0005713D03*
G01X0037100Y0012163D03*
M02*
