%
M48
M72
T01C0.0236
T02C0.0240
T03C0.0276
T04C0.0320
T05C0.0350
T06C0.0354
T07C0.0400
T08C0.0945
%
T01
X21100Y7963
X22100Y8963
X35600Y5713
X37100Y12163
T02
X24533Y7223
X23270Y7872
X27549Y4726
X22100Y4313
X18301Y10963
X23454Y11430
T03
X26600Y9463
X26600Y7463
T04
X37100Y6463
X38100Y6463
X38100Y9463
X37100Y9463
X37100Y13463
X38100Y13463
X38100Y2463
X37100Y2463
T05
X36600Y4463
X37600Y4463
X38600Y4463
X38600Y11463
X37600Y11463
X36600Y11463
T06
X21466Y2463
X19734Y2463
T07
X27100Y2463
X28100Y2463
X29100Y2463
X29100Y1463
X28100Y1463
X27100Y1463
T08
X2100Y2463
X4100Y2463
X7600Y2463
X9600Y2463
X13100Y2463
X15100Y2463
X15100Y4963
X13100Y4963
X9600Y4963
X7600Y4963
X4100Y4963
X2100Y4963
X2100Y7463
X4100Y7463
X7600Y7463
X9600Y7463
X13100Y7463
X15100Y7463
X15100Y9963
X13100Y9963
X9600Y9963
X7600Y9963
X4100Y9963
X2100Y9963
M30
