G75*
%MOIN*%
%OFA0B0*%
%FSLAX24Y24*%
%IPPOS*%
%LPD*%
%AMOC8*
5,1,8,0,0,1.08239X$1,22.5*
%
%ADD10C,0.0000*%
%ADD11C,0.0080*%
%ADD12C,0.0010*%
%ADD13C,0.0060*%
%ADD14C,0.0030*%
%ADD15C,0.0070*%
%ADD16C,0.0050*%
D10*
X000100Y000463D02*
X000100Y015463D01*
X039470Y015463D01*
X039470Y000463D01*
X000100Y000463D01*
X019557Y002463D02*
X019559Y002489D01*
X019565Y002515D01*
X019575Y002540D01*
X019588Y002563D01*
X019604Y002583D01*
X019624Y002601D01*
X019646Y002616D01*
X019669Y002628D01*
X019695Y002636D01*
X019721Y002640D01*
X019747Y002640D01*
X019773Y002636D01*
X019799Y002628D01*
X019823Y002616D01*
X019844Y002601D01*
X019864Y002583D01*
X019880Y002563D01*
X019893Y002540D01*
X019903Y002515D01*
X019909Y002489D01*
X019911Y002463D01*
X019909Y002437D01*
X019903Y002411D01*
X019893Y002386D01*
X019880Y002363D01*
X019864Y002343D01*
X019844Y002325D01*
X019822Y002310D01*
X019799Y002298D01*
X019773Y002290D01*
X019747Y002286D01*
X019721Y002286D01*
X019695Y002290D01*
X019669Y002298D01*
X019645Y002310D01*
X019624Y002325D01*
X019604Y002343D01*
X019588Y002363D01*
X019575Y002386D01*
X019565Y002411D01*
X019559Y002437D01*
X019557Y002463D01*
X021289Y002463D02*
X021291Y002489D01*
X021297Y002515D01*
X021307Y002540D01*
X021320Y002563D01*
X021336Y002583D01*
X021356Y002601D01*
X021378Y002616D01*
X021401Y002628D01*
X021427Y002636D01*
X021453Y002640D01*
X021479Y002640D01*
X021505Y002636D01*
X021531Y002628D01*
X021555Y002616D01*
X021576Y002601D01*
X021596Y002583D01*
X021612Y002563D01*
X021625Y002540D01*
X021635Y002515D01*
X021641Y002489D01*
X021643Y002463D01*
X021641Y002437D01*
X021635Y002411D01*
X021625Y002386D01*
X021612Y002363D01*
X021596Y002343D01*
X021576Y002325D01*
X021554Y002310D01*
X021531Y002298D01*
X021505Y002290D01*
X021479Y002286D01*
X021453Y002286D01*
X021427Y002290D01*
X021401Y002298D01*
X021377Y002310D01*
X021356Y002325D01*
X021336Y002343D01*
X021320Y002363D01*
X021307Y002386D01*
X021297Y002411D01*
X021291Y002437D01*
X021289Y002463D01*
D11*
X015635Y003427D02*
X012643Y003427D01*
X012131Y004175D02*
X012131Y005750D01*
X012565Y006420D02*
X015675Y006420D01*
X012565Y006420D02*
X012509Y006362D01*
X012455Y006302D01*
X012405Y006240D01*
X012357Y006175D01*
X012312Y006109D01*
X012269Y006040D01*
X012230Y005970D01*
X012194Y005898D01*
X012161Y005825D01*
X012132Y005750D01*
X010175Y006420D02*
X007065Y006420D01*
X006631Y005750D02*
X006631Y004175D01*
X007143Y003427D02*
X010135Y003427D01*
X010179Y003463D02*
X010237Y003518D01*
X010293Y003575D01*
X010346Y003634D01*
X010396Y003696D01*
X010444Y003760D01*
X010489Y003827D01*
X010531Y003894D01*
X010570Y003964D01*
X010606Y004036D01*
X010638Y004108D01*
X010668Y004183D01*
X010694Y004258D01*
X010717Y004335D01*
X010737Y004412D01*
X010753Y004490D01*
X010765Y004569D01*
X007143Y003428D02*
X007077Y003491D01*
X007015Y003558D01*
X006955Y003627D01*
X006899Y003699D01*
X006846Y003774D01*
X006796Y003850D01*
X006749Y003929D01*
X006706Y004009D01*
X006667Y004092D01*
X006631Y004176D01*
X010174Y006420D02*
X010237Y006349D01*
X010298Y006277D01*
X010356Y006202D01*
X010411Y006125D01*
X010462Y006046D01*
X010511Y005965D01*
X010557Y005883D01*
X010600Y005799D01*
X010640Y005713D01*
X010676Y005626D01*
X010709Y005537D01*
X010739Y005447D01*
X010765Y005357D01*
X007065Y006420D02*
X007009Y006362D01*
X006955Y006302D01*
X006905Y006240D01*
X006857Y006175D01*
X006812Y006109D01*
X006769Y006040D01*
X006730Y005970D01*
X006694Y005898D01*
X006661Y005825D01*
X006632Y005750D01*
X004675Y006420D02*
X001565Y006420D01*
X001131Y005750D02*
X001131Y004175D01*
X001643Y003427D02*
X004635Y003427D01*
X004679Y003463D02*
X004737Y003518D01*
X004793Y003575D01*
X004846Y003634D01*
X004896Y003696D01*
X004944Y003760D01*
X004989Y003827D01*
X005031Y003894D01*
X005070Y003964D01*
X005106Y004036D01*
X005138Y004108D01*
X005168Y004183D01*
X005194Y004258D01*
X005217Y004335D01*
X005237Y004412D01*
X005253Y004490D01*
X005265Y004569D01*
X001643Y003428D02*
X001577Y003491D01*
X001515Y003558D01*
X001455Y003627D01*
X001399Y003699D01*
X001346Y003774D01*
X001296Y003850D01*
X001249Y003929D01*
X001206Y004009D01*
X001167Y004092D01*
X001131Y004176D01*
X004674Y006420D02*
X004737Y006349D01*
X004798Y006277D01*
X004856Y006202D01*
X004911Y006125D01*
X004962Y006046D01*
X005011Y005965D01*
X005057Y005883D01*
X005100Y005799D01*
X005140Y005713D01*
X005176Y005626D01*
X005209Y005537D01*
X005239Y005447D01*
X005265Y005357D01*
X001565Y006420D02*
X001509Y006362D01*
X001455Y006302D01*
X001405Y006240D01*
X001357Y006175D01*
X001312Y006109D01*
X001269Y006040D01*
X001230Y005970D01*
X001194Y005898D01*
X001161Y005825D01*
X001132Y005750D01*
X001643Y008427D02*
X004635Y008427D01*
X006631Y009175D02*
X006631Y010750D01*
X007065Y011420D02*
X010175Y011420D01*
X012131Y010750D02*
X012131Y009175D01*
X012643Y008427D02*
X015635Y008427D01*
X016265Y010357D02*
X016239Y010447D01*
X016209Y010537D01*
X016176Y010626D01*
X016140Y010713D01*
X016100Y010799D01*
X016057Y010883D01*
X016011Y010965D01*
X015962Y011046D01*
X015911Y011125D01*
X015856Y011202D01*
X015798Y011277D01*
X015737Y011349D01*
X015674Y011420D01*
X015675Y011420D02*
X012565Y011420D01*
X012509Y011362D01*
X012455Y011302D01*
X012405Y011240D01*
X012357Y011175D01*
X012312Y011109D01*
X012269Y011040D01*
X012230Y010970D01*
X012194Y010898D01*
X012161Y010825D01*
X012132Y010750D01*
X012131Y009176D02*
X012167Y009092D01*
X012206Y009009D01*
X012249Y008929D01*
X012296Y008850D01*
X012346Y008774D01*
X012399Y008699D01*
X012455Y008627D01*
X012515Y008558D01*
X012577Y008491D01*
X012643Y008428D01*
X010135Y008427D02*
X007143Y008427D01*
X010765Y010357D02*
X010739Y010447D01*
X010709Y010537D01*
X010676Y010626D01*
X010640Y010713D01*
X010600Y010799D01*
X010557Y010883D01*
X010511Y010965D01*
X010462Y011046D01*
X010411Y011125D01*
X010356Y011202D01*
X010298Y011277D01*
X010237Y011349D01*
X010174Y011420D01*
X007065Y011420D02*
X007009Y011362D01*
X006955Y011302D01*
X006905Y011240D01*
X006857Y011175D01*
X006812Y011109D01*
X006769Y011040D01*
X006730Y010970D01*
X006694Y010898D01*
X006661Y010825D01*
X006632Y010750D01*
X004675Y011420D02*
X001565Y011420D01*
X001131Y010750D02*
X001131Y009175D01*
X004674Y011420D02*
X004737Y011349D01*
X004798Y011277D01*
X004856Y011202D01*
X004911Y011125D01*
X004962Y011046D01*
X005011Y010965D01*
X005057Y010883D01*
X005100Y010799D01*
X005140Y010713D01*
X005176Y010626D01*
X005209Y010537D01*
X005239Y010447D01*
X005265Y010357D01*
X005265Y009569D02*
X005253Y009490D01*
X005237Y009412D01*
X005217Y009335D01*
X005194Y009258D01*
X005168Y009183D01*
X005138Y009108D01*
X005106Y009036D01*
X005070Y008964D01*
X005031Y008894D01*
X004989Y008827D01*
X004944Y008760D01*
X004896Y008696D01*
X004846Y008634D01*
X004793Y008575D01*
X004737Y008518D01*
X004679Y008463D01*
X001643Y008428D02*
X001577Y008491D01*
X001515Y008558D01*
X001455Y008627D01*
X001399Y008699D01*
X001346Y008774D01*
X001296Y008850D01*
X001249Y008929D01*
X001206Y009009D01*
X001167Y009092D01*
X001131Y009176D01*
X001132Y010750D02*
X001161Y010825D01*
X001194Y010898D01*
X001230Y010970D01*
X001269Y011040D01*
X001312Y011109D01*
X001357Y011175D01*
X001405Y011240D01*
X001455Y011302D01*
X001509Y011362D01*
X001565Y011420D01*
X006631Y009176D02*
X006667Y009092D01*
X006706Y009009D01*
X006749Y008929D01*
X006796Y008850D01*
X006846Y008774D01*
X006899Y008699D01*
X006955Y008627D01*
X007015Y008558D01*
X007077Y008491D01*
X007143Y008428D01*
X010179Y008463D02*
X010237Y008518D01*
X010293Y008575D01*
X010346Y008634D01*
X010396Y008696D01*
X010444Y008760D01*
X010489Y008827D01*
X010531Y008894D01*
X010570Y008964D01*
X010606Y009036D01*
X010638Y009108D01*
X010668Y009183D01*
X010694Y009258D01*
X010717Y009335D01*
X010737Y009412D01*
X010753Y009490D01*
X010765Y009569D01*
X015679Y008463D02*
X015741Y008521D01*
X015800Y008583D01*
X015856Y008647D01*
X015909Y008713D01*
X015959Y008782D01*
X016006Y008853D01*
X016049Y008927D01*
X016089Y009002D01*
X016126Y009079D01*
X016158Y009158D01*
X016187Y009238D01*
X016213Y009319D01*
X016234Y009402D01*
X016252Y009485D01*
X016265Y009569D01*
X012131Y004176D02*
X012167Y004092D01*
X012206Y004009D01*
X012249Y003929D01*
X012296Y003850D01*
X012346Y003774D01*
X012399Y003699D01*
X012455Y003627D01*
X012515Y003558D01*
X012577Y003491D01*
X012643Y003428D01*
X016265Y005357D02*
X016239Y005447D01*
X016209Y005537D01*
X016176Y005626D01*
X016140Y005713D01*
X016100Y005799D01*
X016057Y005883D01*
X016011Y005965D01*
X015962Y006046D01*
X015911Y006125D01*
X015856Y006202D01*
X015798Y006277D01*
X015737Y006349D01*
X015674Y006420D01*
X016265Y004569D02*
X016252Y004485D01*
X016234Y004402D01*
X016213Y004319D01*
X016187Y004238D01*
X016158Y004158D01*
X016126Y004079D01*
X016089Y004002D01*
X016049Y003927D01*
X016006Y003853D01*
X015959Y003782D01*
X015909Y003713D01*
X015856Y003647D01*
X015800Y003583D01*
X015741Y003521D01*
X015679Y003463D01*
X038600Y008713D02*
X038600Y010213D01*
X038600Y012713D02*
X038600Y014213D01*
D12*
X038632Y014243D02*
X038560Y014189D01*
X038561Y014190D02*
X038518Y014243D01*
X038473Y014294D01*
X038424Y014342D01*
X038373Y014387D01*
X038319Y014430D01*
X038263Y014469D01*
X038205Y014505D01*
X038145Y014538D01*
X038084Y014567D01*
X038020Y014592D01*
X037956Y014614D01*
X037890Y014633D01*
X037823Y014647D01*
X037756Y014658D01*
X037688Y014665D01*
X037620Y014668D01*
X037551Y014667D01*
X037483Y014662D01*
X037415Y014654D01*
X037348Y014641D01*
X037282Y014625D01*
X037217Y014605D01*
X037152Y014582D01*
X037090Y014555D01*
X037029Y014524D01*
X036970Y014490D01*
X036912Y014453D01*
X036857Y014412D01*
X036805Y014368D01*
X036755Y014322D01*
X036708Y014273D01*
X036663Y014221D01*
X036622Y014167D01*
X036583Y014110D01*
X036548Y014051D01*
X036517Y013991D01*
X036489Y013929D01*
X036464Y013865D01*
X036443Y013800D01*
X036426Y013734D01*
X036412Y013667D01*
X036403Y013599D01*
X036397Y013531D01*
X036395Y013463D01*
X036397Y013395D01*
X036403Y013327D01*
X036412Y013259D01*
X036426Y013192D01*
X036443Y013126D01*
X036464Y013061D01*
X036489Y012997D01*
X036517Y012935D01*
X036548Y012875D01*
X036583Y012816D01*
X036622Y012759D01*
X036663Y012705D01*
X036708Y012653D01*
X036755Y012604D01*
X036805Y012558D01*
X036857Y012514D01*
X036912Y012473D01*
X036970Y012436D01*
X037029Y012402D01*
X037090Y012371D01*
X037152Y012344D01*
X037217Y012321D01*
X037282Y012301D01*
X037348Y012285D01*
X037415Y012272D01*
X037483Y012264D01*
X037551Y012259D01*
X037620Y012258D01*
X037688Y012261D01*
X037756Y012268D01*
X037823Y012279D01*
X037890Y012293D01*
X037956Y012312D01*
X038020Y012334D01*
X038084Y012359D01*
X038145Y012388D01*
X038205Y012421D01*
X038263Y012457D01*
X038319Y012496D01*
X038373Y012539D01*
X038424Y012584D01*
X038473Y012632D01*
X038518Y012683D01*
X038561Y012736D01*
X038632Y012683D01*
X038633Y012682D01*
X038589Y012627D01*
X038541Y012574D01*
X038491Y012523D01*
X038438Y012476D01*
X038383Y012432D01*
X038325Y012390D01*
X038265Y012352D01*
X038204Y012317D01*
X038140Y012286D01*
X038075Y012258D01*
X038008Y012234D01*
X037940Y012213D01*
X037871Y012197D01*
X037801Y012184D01*
X037731Y012175D01*
X037660Y012169D01*
X037589Y012168D01*
X037518Y012171D01*
X037447Y012177D01*
X037377Y012187D01*
X037308Y012201D01*
X037239Y012219D01*
X037171Y012241D01*
X037105Y012266D01*
X037040Y012295D01*
X036977Y012328D01*
X036916Y012364D01*
X036857Y012403D01*
X036800Y012445D01*
X036745Y012490D01*
X036693Y012539D01*
X036644Y012590D01*
X036597Y012643D01*
X036554Y012700D01*
X036514Y012758D01*
X036477Y012819D01*
X036443Y012881D01*
X036413Y012945D01*
X036386Y013011D01*
X036363Y013078D01*
X036344Y013147D01*
X036329Y013216D01*
X036317Y013286D01*
X036309Y013357D01*
X036305Y013428D01*
X036305Y013498D01*
X036309Y013569D01*
X036317Y013640D01*
X036329Y013710D01*
X036344Y013779D01*
X036363Y013848D01*
X036386Y013915D01*
X036413Y013981D01*
X036443Y014045D01*
X036477Y014107D01*
X036514Y014168D01*
X036554Y014226D01*
X036597Y014283D01*
X036644Y014336D01*
X036693Y014387D01*
X036745Y014436D01*
X036800Y014481D01*
X036857Y014523D01*
X036916Y014562D01*
X036977Y014598D01*
X037040Y014631D01*
X037105Y014660D01*
X037171Y014685D01*
X037239Y014707D01*
X037308Y014725D01*
X037377Y014739D01*
X037447Y014749D01*
X037518Y014755D01*
X037589Y014758D01*
X037660Y014757D01*
X037731Y014751D01*
X037801Y014742D01*
X037871Y014729D01*
X037940Y014713D01*
X038008Y014692D01*
X038075Y014668D01*
X038140Y014640D01*
X038204Y014609D01*
X038265Y014574D01*
X038325Y014536D01*
X038383Y014494D01*
X038438Y014450D01*
X038491Y014403D01*
X038541Y014352D01*
X038589Y014299D01*
X038633Y014244D01*
X038626Y014239D01*
X038581Y014294D01*
X038534Y014347D01*
X038483Y014398D01*
X038430Y014445D01*
X038374Y014490D01*
X038316Y014531D01*
X038256Y014569D01*
X038194Y014604D01*
X038130Y014635D01*
X038064Y014662D01*
X037997Y014686D01*
X037928Y014706D01*
X037859Y014723D01*
X037789Y014735D01*
X037718Y014744D01*
X037647Y014748D01*
X037576Y014749D01*
X037505Y014745D01*
X037434Y014738D01*
X037363Y014727D01*
X037294Y014712D01*
X037225Y014693D01*
X037157Y014670D01*
X037091Y014644D01*
X037026Y014614D01*
X036964Y014580D01*
X036903Y014544D01*
X036844Y014503D01*
X036787Y014460D01*
X036733Y014413D01*
X036682Y014364D01*
X036634Y014311D01*
X036588Y014257D01*
X036546Y014199D01*
X036507Y014140D01*
X036471Y014078D01*
X036438Y014015D01*
X036410Y013950D01*
X036384Y013883D01*
X036363Y013815D01*
X036345Y013746D01*
X036332Y013676D01*
X036322Y013605D01*
X036316Y013534D01*
X036314Y013463D01*
X036316Y013392D01*
X036322Y013321D01*
X036332Y013250D01*
X036345Y013180D01*
X036363Y013111D01*
X036384Y013043D01*
X036410Y012976D01*
X036438Y012911D01*
X036471Y012848D01*
X036507Y012786D01*
X036546Y012727D01*
X036588Y012669D01*
X036634Y012615D01*
X036682Y012562D01*
X036733Y012513D01*
X036787Y012466D01*
X036844Y012423D01*
X036903Y012382D01*
X036964Y012346D01*
X037026Y012312D01*
X037091Y012282D01*
X037157Y012256D01*
X037225Y012233D01*
X037294Y012214D01*
X037363Y012199D01*
X037434Y012188D01*
X037505Y012181D01*
X037576Y012177D01*
X037647Y012178D01*
X037718Y012182D01*
X037789Y012191D01*
X037859Y012203D01*
X037928Y012220D01*
X037997Y012240D01*
X038064Y012264D01*
X038130Y012291D01*
X038194Y012322D01*
X038256Y012357D01*
X038316Y012395D01*
X038374Y012436D01*
X038430Y012481D01*
X038483Y012528D01*
X038534Y012579D01*
X038581Y012632D01*
X038626Y012687D01*
X038619Y012693D01*
X038574Y012638D01*
X038527Y012585D01*
X038477Y012535D01*
X038424Y012488D01*
X038369Y012444D01*
X038311Y012402D01*
X038252Y012365D01*
X038190Y012330D01*
X038126Y012299D01*
X038061Y012272D01*
X037994Y012248D01*
X037926Y012228D01*
X037857Y012212D01*
X037788Y012200D01*
X037717Y012191D01*
X037647Y012187D01*
X037576Y012186D01*
X037505Y012190D01*
X037435Y012197D01*
X037365Y012208D01*
X037296Y012223D01*
X037228Y012242D01*
X037160Y012264D01*
X037095Y012290D01*
X037030Y012320D01*
X036968Y012353D01*
X036908Y012390D01*
X036849Y012430D01*
X036793Y012473D01*
X036739Y012519D01*
X036689Y012569D01*
X036640Y012620D01*
X036595Y012675D01*
X036553Y012732D01*
X036514Y012791D01*
X036479Y012852D01*
X036446Y012915D01*
X036418Y012980D01*
X036393Y013046D01*
X036372Y013114D01*
X036354Y013182D01*
X036341Y013252D01*
X036331Y013322D01*
X036325Y013392D01*
X036323Y013463D01*
X036325Y013534D01*
X036331Y013604D01*
X036341Y013674D01*
X036354Y013744D01*
X036372Y013812D01*
X036393Y013880D01*
X036418Y013946D01*
X036446Y014011D01*
X036479Y014074D01*
X036514Y014135D01*
X036553Y014194D01*
X036595Y014251D01*
X036640Y014306D01*
X036689Y014357D01*
X036739Y014407D01*
X036793Y014453D01*
X036849Y014496D01*
X036908Y014536D01*
X036968Y014573D01*
X037030Y014606D01*
X037095Y014636D01*
X037160Y014662D01*
X037228Y014684D01*
X037296Y014703D01*
X037365Y014718D01*
X037435Y014729D01*
X037505Y014736D01*
X037576Y014740D01*
X037647Y014739D01*
X037717Y014735D01*
X037788Y014726D01*
X037857Y014714D01*
X037926Y014698D01*
X037994Y014678D01*
X038061Y014654D01*
X038126Y014627D01*
X038190Y014596D01*
X038252Y014561D01*
X038311Y014524D01*
X038369Y014482D01*
X038424Y014438D01*
X038477Y014391D01*
X038527Y014341D01*
X038574Y014288D01*
X038619Y014233D01*
X038611Y014228D01*
X038567Y014283D01*
X038519Y014336D01*
X038469Y014386D01*
X038416Y014434D01*
X038360Y014478D01*
X038302Y014519D01*
X038242Y014556D01*
X038180Y014591D01*
X038116Y014621D01*
X038050Y014648D01*
X037983Y014672D01*
X037915Y014691D01*
X037845Y014707D01*
X037775Y014719D01*
X037705Y014727D01*
X037634Y014731D01*
X037563Y014730D01*
X037492Y014726D01*
X037421Y014718D01*
X037351Y014706D01*
X037282Y014690D01*
X037214Y014671D01*
X037146Y014647D01*
X037081Y014620D01*
X037017Y014589D01*
X036955Y014555D01*
X036895Y014517D01*
X036837Y014475D01*
X036781Y014431D01*
X036728Y014384D01*
X036678Y014333D01*
X036631Y014280D01*
X036586Y014225D01*
X036545Y014167D01*
X036508Y014107D01*
X036473Y014044D01*
X036442Y013980D01*
X036415Y013915D01*
X036392Y013848D01*
X036372Y013779D01*
X036356Y013710D01*
X036344Y013640D01*
X036336Y013569D01*
X036332Y013499D01*
X036332Y013427D01*
X036336Y013357D01*
X036344Y013286D01*
X036356Y013216D01*
X036372Y013147D01*
X036392Y013078D01*
X036415Y013011D01*
X036442Y012946D01*
X036473Y012882D01*
X036508Y012819D01*
X036545Y012759D01*
X036586Y012701D01*
X036631Y012646D01*
X036678Y012593D01*
X036728Y012542D01*
X036781Y012495D01*
X036837Y012451D01*
X036895Y012409D01*
X036955Y012371D01*
X037017Y012337D01*
X037081Y012306D01*
X037146Y012279D01*
X037214Y012255D01*
X037282Y012236D01*
X037351Y012220D01*
X037421Y012208D01*
X037492Y012200D01*
X037563Y012196D01*
X037634Y012195D01*
X037705Y012199D01*
X037775Y012207D01*
X037845Y012219D01*
X037915Y012235D01*
X037983Y012254D01*
X038050Y012278D01*
X038116Y012305D01*
X038180Y012335D01*
X038242Y012370D01*
X038302Y012407D01*
X038360Y012448D01*
X038416Y012492D01*
X038469Y012540D01*
X038519Y012590D01*
X038567Y012643D01*
X038611Y012698D01*
X038604Y012704D01*
X038560Y012649D01*
X038513Y012596D01*
X038463Y012546D01*
X038410Y012499D01*
X038355Y012455D01*
X038297Y012415D01*
X038238Y012377D01*
X038176Y012343D01*
X038112Y012313D01*
X038047Y012286D01*
X037980Y012263D01*
X037912Y012243D01*
X037844Y012228D01*
X037774Y012216D01*
X037704Y012208D01*
X037633Y012204D01*
X037563Y012205D01*
X037492Y012209D01*
X037422Y012217D01*
X037353Y012229D01*
X037284Y012244D01*
X037216Y012264D01*
X037150Y012287D01*
X037085Y012314D01*
X037021Y012345D01*
X036959Y012379D01*
X036900Y012417D01*
X036842Y012458D01*
X036787Y012502D01*
X036734Y012549D01*
X036685Y012599D01*
X036638Y012651D01*
X036594Y012707D01*
X036553Y012764D01*
X036515Y012824D01*
X036481Y012886D01*
X036451Y012949D01*
X036424Y013014D01*
X036400Y013081D01*
X036381Y013149D01*
X036365Y013218D01*
X036353Y013287D01*
X036345Y013357D01*
X036341Y013428D01*
X036341Y013498D01*
X036345Y013569D01*
X036353Y013639D01*
X036365Y013708D01*
X036381Y013777D01*
X036400Y013845D01*
X036424Y013912D01*
X036451Y013977D01*
X036481Y014040D01*
X036515Y014102D01*
X036553Y014162D01*
X036594Y014219D01*
X036638Y014275D01*
X036685Y014327D01*
X036734Y014377D01*
X036787Y014424D01*
X036842Y014468D01*
X036900Y014509D01*
X036959Y014547D01*
X037021Y014581D01*
X037085Y014612D01*
X037150Y014639D01*
X037216Y014662D01*
X037284Y014682D01*
X037353Y014697D01*
X037422Y014709D01*
X037492Y014717D01*
X037563Y014721D01*
X037633Y014722D01*
X037704Y014718D01*
X037774Y014710D01*
X037844Y014698D01*
X037912Y014683D01*
X037980Y014663D01*
X038047Y014640D01*
X038112Y014613D01*
X038176Y014583D01*
X038238Y014549D01*
X038297Y014511D01*
X038355Y014471D01*
X038410Y014427D01*
X038463Y014380D01*
X038513Y014330D01*
X038560Y014277D01*
X038604Y014222D01*
X038597Y014217D01*
X038553Y014272D01*
X038506Y014324D01*
X038457Y014373D01*
X038404Y014420D01*
X038350Y014463D01*
X038292Y014504D01*
X038233Y014541D01*
X038172Y014575D01*
X038108Y014605D01*
X038044Y014632D01*
X037977Y014655D01*
X037910Y014674D01*
X037842Y014689D01*
X037773Y014701D01*
X037703Y014709D01*
X037633Y014713D01*
X037563Y014712D01*
X037493Y014708D01*
X037424Y014700D01*
X037355Y014689D01*
X037286Y014673D01*
X037219Y014654D01*
X037153Y014630D01*
X037088Y014603D01*
X037025Y014573D01*
X036964Y014539D01*
X036905Y014502D01*
X036847Y014461D01*
X036793Y014417D01*
X036741Y014371D01*
X036691Y014321D01*
X036644Y014269D01*
X036601Y014214D01*
X036560Y014157D01*
X036523Y014098D01*
X036489Y014036D01*
X036459Y013973D01*
X036432Y013908D01*
X036409Y013842D01*
X036390Y013775D01*
X036374Y013707D01*
X036362Y013638D01*
X036354Y013568D01*
X036350Y013498D01*
X036350Y013428D01*
X036354Y013358D01*
X036362Y013288D01*
X036374Y013219D01*
X036390Y013151D01*
X036409Y013084D01*
X036432Y013018D01*
X036459Y012953D01*
X036489Y012890D01*
X036523Y012828D01*
X036560Y012769D01*
X036601Y012712D01*
X036644Y012657D01*
X036691Y012605D01*
X036741Y012555D01*
X036793Y012509D01*
X036847Y012465D01*
X036905Y012424D01*
X036964Y012387D01*
X037025Y012353D01*
X037088Y012323D01*
X037153Y012296D01*
X037219Y012272D01*
X037286Y012253D01*
X037355Y012237D01*
X037424Y012226D01*
X037493Y012218D01*
X037563Y012214D01*
X037633Y012213D01*
X037703Y012217D01*
X037773Y012225D01*
X037842Y012237D01*
X037910Y012252D01*
X037977Y012271D01*
X038044Y012294D01*
X038108Y012321D01*
X038172Y012351D01*
X038233Y012385D01*
X038292Y012422D01*
X038350Y012463D01*
X038404Y012506D01*
X038457Y012553D01*
X038506Y012602D01*
X038553Y012654D01*
X038597Y012709D01*
X038590Y012714D01*
X038546Y012660D01*
X038500Y012608D01*
X038451Y012559D01*
X038399Y012513D01*
X038344Y012470D01*
X038287Y012430D01*
X038228Y012393D01*
X038167Y012359D01*
X038105Y012329D01*
X038040Y012303D01*
X037975Y012280D01*
X037908Y012261D01*
X037840Y012245D01*
X037771Y012234D01*
X037702Y012226D01*
X037633Y012222D01*
X037563Y012223D01*
X037494Y012227D01*
X037425Y012234D01*
X037356Y012246D01*
X037289Y012262D01*
X037222Y012281D01*
X037156Y012304D01*
X037092Y012331D01*
X037029Y012361D01*
X036968Y012395D01*
X036910Y012432D01*
X036853Y012472D01*
X036799Y012515D01*
X036747Y012562D01*
X036698Y012611D01*
X036651Y012663D01*
X036608Y012717D01*
X036568Y012774D01*
X036531Y012833D01*
X036497Y012894D01*
X036467Y012957D01*
X036440Y013021D01*
X036417Y013086D01*
X036398Y013153D01*
X036383Y013221D01*
X036371Y013290D01*
X036363Y013359D01*
X036359Y013428D01*
X036359Y013498D01*
X036363Y013567D01*
X036371Y013636D01*
X036383Y013705D01*
X036398Y013773D01*
X036417Y013840D01*
X036440Y013905D01*
X036467Y013969D01*
X036497Y014032D01*
X036531Y014093D01*
X036568Y014152D01*
X036608Y014209D01*
X036651Y014263D01*
X036698Y014315D01*
X036747Y014364D01*
X036799Y014411D01*
X036853Y014454D01*
X036910Y014494D01*
X036968Y014531D01*
X037029Y014565D01*
X037092Y014595D01*
X037156Y014622D01*
X037222Y014645D01*
X037289Y014664D01*
X037356Y014680D01*
X037425Y014692D01*
X037494Y014699D01*
X037563Y014703D01*
X037633Y014704D01*
X037702Y014700D01*
X037771Y014692D01*
X037840Y014681D01*
X037908Y014665D01*
X037975Y014646D01*
X038040Y014623D01*
X038105Y014597D01*
X038167Y014567D01*
X038228Y014533D01*
X038287Y014496D01*
X038344Y014456D01*
X038399Y014413D01*
X038451Y014367D01*
X038500Y014318D01*
X038546Y014266D01*
X038590Y014212D01*
X038583Y014206D01*
X038539Y014260D01*
X038493Y014311D01*
X038444Y014360D01*
X038393Y014406D01*
X038339Y014449D01*
X038282Y014489D01*
X038224Y014525D01*
X038163Y014559D01*
X038101Y014589D01*
X038037Y014615D01*
X037972Y014637D01*
X037906Y014656D01*
X037838Y014672D01*
X037770Y014683D01*
X037702Y014691D01*
X037633Y014695D01*
X037564Y014694D01*
X037495Y014690D01*
X037426Y014683D01*
X037358Y014671D01*
X037291Y014656D01*
X037224Y014636D01*
X037159Y014613D01*
X037096Y014587D01*
X037033Y014557D01*
X036973Y014524D01*
X036915Y014487D01*
X036858Y014447D01*
X036804Y014404D01*
X036753Y014358D01*
X036704Y014309D01*
X036658Y014257D01*
X036615Y014203D01*
X036575Y014147D01*
X036539Y014088D01*
X036505Y014028D01*
X036475Y013966D01*
X036449Y013902D01*
X036426Y013837D01*
X036407Y013770D01*
X036392Y013703D01*
X036380Y013635D01*
X036372Y013566D01*
X036368Y013498D01*
X036368Y013428D01*
X036372Y013360D01*
X036380Y013291D01*
X036392Y013223D01*
X036407Y013156D01*
X036426Y013089D01*
X036449Y013024D01*
X036475Y012960D01*
X036505Y012898D01*
X036539Y012838D01*
X036575Y012779D01*
X036615Y012723D01*
X036658Y012669D01*
X036704Y012617D01*
X036753Y012568D01*
X036804Y012522D01*
X036858Y012479D01*
X036915Y012439D01*
X036973Y012402D01*
X037033Y012369D01*
X037096Y012339D01*
X037159Y012313D01*
X037224Y012290D01*
X037291Y012270D01*
X037358Y012255D01*
X037426Y012243D01*
X037495Y012236D01*
X037564Y012232D01*
X037633Y012231D01*
X037702Y012235D01*
X037770Y012243D01*
X037838Y012254D01*
X037906Y012270D01*
X037972Y012289D01*
X038037Y012311D01*
X038101Y012337D01*
X038163Y012367D01*
X038224Y012401D01*
X038282Y012437D01*
X038339Y012477D01*
X038393Y012520D01*
X038444Y012566D01*
X038493Y012615D01*
X038539Y012666D01*
X038583Y012720D01*
X038575Y012725D01*
X038532Y012671D01*
X038486Y012620D01*
X038436Y012571D01*
X038385Y012525D01*
X038330Y012482D01*
X038273Y012442D01*
X038215Y012406D01*
X038154Y012372D01*
X038091Y012343D01*
X038027Y012317D01*
X037961Y012295D01*
X037894Y012276D01*
X037827Y012261D01*
X037758Y012250D01*
X037689Y012243D01*
X037620Y012240D01*
X037551Y012241D01*
X037481Y012246D01*
X037413Y012254D01*
X037345Y012267D01*
X037277Y012283D01*
X037211Y012304D01*
X037146Y012327D01*
X037082Y012355D01*
X037020Y012386D01*
X036960Y012421D01*
X036902Y012459D01*
X036846Y012500D01*
X036793Y012544D01*
X036742Y012591D01*
X036694Y012641D01*
X036649Y012694D01*
X036607Y012749D01*
X036568Y012806D01*
X036533Y012866D01*
X036501Y012927D01*
X036472Y012990D01*
X036447Y013055D01*
X036426Y013121D01*
X036408Y013188D01*
X036395Y013256D01*
X036385Y013325D01*
X036379Y013394D01*
X036377Y013463D01*
X036379Y013532D01*
X036385Y013601D01*
X036395Y013670D01*
X036408Y013738D01*
X036426Y013805D01*
X036447Y013871D01*
X036472Y013936D01*
X036501Y013999D01*
X036533Y014060D01*
X036568Y014120D01*
X036607Y014177D01*
X036649Y014232D01*
X036694Y014285D01*
X036742Y014335D01*
X036793Y014382D01*
X036846Y014426D01*
X036902Y014467D01*
X036960Y014505D01*
X037020Y014540D01*
X037082Y014571D01*
X037146Y014599D01*
X037211Y014622D01*
X037277Y014643D01*
X037345Y014659D01*
X037413Y014672D01*
X037481Y014680D01*
X037551Y014685D01*
X037620Y014686D01*
X037689Y014683D01*
X037758Y014676D01*
X037827Y014665D01*
X037894Y014650D01*
X037961Y014631D01*
X038027Y014609D01*
X038091Y014583D01*
X038154Y014554D01*
X038215Y014520D01*
X038273Y014484D01*
X038330Y014444D01*
X038385Y014401D01*
X038436Y014355D01*
X038486Y014306D01*
X038532Y014255D01*
X038575Y014201D01*
X038568Y014195D01*
X038525Y014249D01*
X038479Y014300D01*
X038430Y014349D01*
X038379Y014394D01*
X038325Y014437D01*
X038268Y014476D01*
X038210Y014513D01*
X038150Y014546D01*
X038087Y014575D01*
X038024Y014601D01*
X037958Y014623D01*
X037892Y014641D01*
X037825Y014656D01*
X037757Y014667D01*
X037688Y014674D01*
X037620Y014677D01*
X037551Y014676D01*
X037482Y014671D01*
X037414Y014663D01*
X037346Y014650D01*
X037280Y014634D01*
X037214Y014614D01*
X037149Y014590D01*
X037086Y014563D01*
X037025Y014532D01*
X036965Y014498D01*
X036907Y014460D01*
X036852Y014419D01*
X036799Y014375D01*
X036749Y014328D01*
X036701Y014279D01*
X036656Y014227D01*
X036614Y014172D01*
X036576Y014115D01*
X036541Y014056D01*
X036509Y013995D01*
X036480Y013932D01*
X036456Y013868D01*
X036434Y013802D01*
X036417Y013736D01*
X036404Y013668D01*
X036394Y013600D01*
X036388Y013532D01*
X036386Y013463D01*
X036388Y013394D01*
X036394Y013326D01*
X036404Y013258D01*
X036417Y013190D01*
X036434Y013124D01*
X036456Y013058D01*
X036480Y012994D01*
X036509Y012931D01*
X036541Y012870D01*
X036576Y012811D01*
X036614Y012754D01*
X036656Y012699D01*
X036701Y012647D01*
X036749Y012598D01*
X036799Y012551D01*
X036852Y012507D01*
X036907Y012466D01*
X036965Y012428D01*
X037025Y012394D01*
X037086Y012363D01*
X037149Y012336D01*
X037214Y012312D01*
X037280Y012292D01*
X037346Y012276D01*
X037414Y012263D01*
X037482Y012255D01*
X037551Y012250D01*
X037620Y012249D01*
X037688Y012252D01*
X037757Y012259D01*
X037825Y012270D01*
X037892Y012285D01*
X037958Y012303D01*
X038024Y012325D01*
X038087Y012351D01*
X038150Y012380D01*
X038210Y012413D01*
X038268Y012450D01*
X038325Y012489D01*
X038379Y012532D01*
X038430Y012577D01*
X038479Y012626D01*
X038525Y012677D01*
X038568Y012731D01*
X035270Y012046D02*
X035195Y011971D01*
X035195Y012071D01*
X035120Y012046D02*
X035270Y012046D01*
X035245Y011923D02*
X035220Y011923D01*
X035195Y011898D01*
X035170Y011923D01*
X035145Y011923D01*
X035120Y011898D01*
X035120Y011848D01*
X035145Y011823D01*
X035120Y011776D02*
X035170Y011726D01*
X035170Y011751D02*
X035170Y011676D01*
X035120Y011676D02*
X035270Y011676D01*
X035270Y011751D01*
X035245Y011776D01*
X035195Y011776D01*
X035170Y011751D01*
X035245Y011823D02*
X035270Y011848D01*
X035270Y011898D01*
X035245Y011923D01*
X035195Y011898D02*
X035195Y011873D01*
X038632Y010243D02*
X038560Y010189D01*
X038561Y010190D02*
X038518Y010243D01*
X038473Y010294D01*
X038424Y010342D01*
X038373Y010387D01*
X038319Y010430D01*
X038263Y010469D01*
X038205Y010505D01*
X038145Y010538D01*
X038084Y010567D01*
X038020Y010592D01*
X037956Y010614D01*
X037890Y010633D01*
X037823Y010647D01*
X037756Y010658D01*
X037688Y010665D01*
X037620Y010668D01*
X037551Y010667D01*
X037483Y010662D01*
X037415Y010654D01*
X037348Y010641D01*
X037282Y010625D01*
X037217Y010605D01*
X037152Y010582D01*
X037090Y010555D01*
X037029Y010524D01*
X036970Y010490D01*
X036912Y010453D01*
X036857Y010412D01*
X036805Y010368D01*
X036755Y010322D01*
X036708Y010273D01*
X036663Y010221D01*
X036622Y010167D01*
X036583Y010110D01*
X036548Y010051D01*
X036517Y009991D01*
X036489Y009929D01*
X036464Y009865D01*
X036443Y009800D01*
X036426Y009734D01*
X036412Y009667D01*
X036403Y009599D01*
X036397Y009531D01*
X036395Y009463D01*
X036397Y009395D01*
X036403Y009327D01*
X036412Y009259D01*
X036426Y009192D01*
X036443Y009126D01*
X036464Y009061D01*
X036489Y008997D01*
X036517Y008935D01*
X036548Y008875D01*
X036583Y008816D01*
X036622Y008759D01*
X036663Y008705D01*
X036708Y008653D01*
X036755Y008604D01*
X036805Y008558D01*
X036857Y008514D01*
X036912Y008473D01*
X036970Y008436D01*
X037029Y008402D01*
X037090Y008371D01*
X037152Y008344D01*
X037217Y008321D01*
X037282Y008301D01*
X037348Y008285D01*
X037415Y008272D01*
X037483Y008264D01*
X037551Y008259D01*
X037620Y008258D01*
X037688Y008261D01*
X037756Y008268D01*
X037823Y008279D01*
X037890Y008293D01*
X037956Y008312D01*
X038020Y008334D01*
X038084Y008359D01*
X038145Y008388D01*
X038205Y008421D01*
X038263Y008457D01*
X038319Y008496D01*
X038373Y008539D01*
X038424Y008584D01*
X038473Y008632D01*
X038518Y008683D01*
X038561Y008736D01*
X038632Y008683D01*
X038633Y008682D01*
X038589Y008627D01*
X038541Y008574D01*
X038491Y008523D01*
X038438Y008476D01*
X038383Y008432D01*
X038325Y008390D01*
X038265Y008352D01*
X038204Y008317D01*
X038140Y008286D01*
X038075Y008258D01*
X038008Y008234D01*
X037940Y008213D01*
X037871Y008197D01*
X037801Y008184D01*
X037731Y008175D01*
X037660Y008169D01*
X037589Y008168D01*
X037518Y008171D01*
X037447Y008177D01*
X037377Y008187D01*
X037308Y008201D01*
X037239Y008219D01*
X037171Y008241D01*
X037105Y008266D01*
X037040Y008295D01*
X036977Y008328D01*
X036916Y008364D01*
X036857Y008403D01*
X036800Y008445D01*
X036745Y008490D01*
X036693Y008539D01*
X036644Y008590D01*
X036597Y008643D01*
X036554Y008700D01*
X036514Y008758D01*
X036477Y008819D01*
X036443Y008881D01*
X036413Y008945D01*
X036386Y009011D01*
X036363Y009078D01*
X036344Y009147D01*
X036329Y009216D01*
X036317Y009286D01*
X036309Y009357D01*
X036305Y009428D01*
X036305Y009498D01*
X036309Y009569D01*
X036317Y009640D01*
X036329Y009710D01*
X036344Y009779D01*
X036363Y009848D01*
X036386Y009915D01*
X036413Y009981D01*
X036443Y010045D01*
X036477Y010107D01*
X036514Y010168D01*
X036554Y010226D01*
X036597Y010283D01*
X036644Y010336D01*
X036693Y010387D01*
X036745Y010436D01*
X036800Y010481D01*
X036857Y010523D01*
X036916Y010562D01*
X036977Y010598D01*
X037040Y010631D01*
X037105Y010660D01*
X037171Y010685D01*
X037239Y010707D01*
X037308Y010725D01*
X037377Y010739D01*
X037447Y010749D01*
X037518Y010755D01*
X037589Y010758D01*
X037660Y010757D01*
X037731Y010751D01*
X037801Y010742D01*
X037871Y010729D01*
X037940Y010713D01*
X038008Y010692D01*
X038075Y010668D01*
X038140Y010640D01*
X038204Y010609D01*
X038265Y010574D01*
X038325Y010536D01*
X038383Y010494D01*
X038438Y010450D01*
X038491Y010403D01*
X038541Y010352D01*
X038589Y010299D01*
X038633Y010244D01*
X038626Y010239D01*
X038581Y010294D01*
X038534Y010347D01*
X038483Y010398D01*
X038430Y010445D01*
X038374Y010490D01*
X038316Y010531D01*
X038256Y010569D01*
X038194Y010604D01*
X038130Y010635D01*
X038064Y010662D01*
X037997Y010686D01*
X037928Y010706D01*
X037859Y010723D01*
X037789Y010735D01*
X037718Y010744D01*
X037647Y010748D01*
X037576Y010749D01*
X037505Y010745D01*
X037434Y010738D01*
X037363Y010727D01*
X037294Y010712D01*
X037225Y010693D01*
X037157Y010670D01*
X037091Y010644D01*
X037026Y010614D01*
X036964Y010580D01*
X036903Y010544D01*
X036844Y010503D01*
X036787Y010460D01*
X036733Y010413D01*
X036682Y010364D01*
X036634Y010311D01*
X036588Y010257D01*
X036546Y010199D01*
X036507Y010140D01*
X036471Y010078D01*
X036438Y010015D01*
X036410Y009950D01*
X036384Y009883D01*
X036363Y009815D01*
X036345Y009746D01*
X036332Y009676D01*
X036322Y009605D01*
X036316Y009534D01*
X036314Y009463D01*
X036316Y009392D01*
X036322Y009321D01*
X036332Y009250D01*
X036345Y009180D01*
X036363Y009111D01*
X036384Y009043D01*
X036410Y008976D01*
X036438Y008911D01*
X036471Y008848D01*
X036507Y008786D01*
X036546Y008727D01*
X036588Y008669D01*
X036634Y008615D01*
X036682Y008562D01*
X036733Y008513D01*
X036787Y008466D01*
X036844Y008423D01*
X036903Y008382D01*
X036964Y008346D01*
X037026Y008312D01*
X037091Y008282D01*
X037157Y008256D01*
X037225Y008233D01*
X037294Y008214D01*
X037363Y008199D01*
X037434Y008188D01*
X037505Y008181D01*
X037576Y008177D01*
X037647Y008178D01*
X037718Y008182D01*
X037789Y008191D01*
X037859Y008203D01*
X037928Y008220D01*
X037997Y008240D01*
X038064Y008264D01*
X038130Y008291D01*
X038194Y008322D01*
X038256Y008357D01*
X038316Y008395D01*
X038374Y008436D01*
X038430Y008481D01*
X038483Y008528D01*
X038534Y008579D01*
X038581Y008632D01*
X038626Y008687D01*
X038619Y008693D01*
X038574Y008638D01*
X038527Y008585D01*
X038477Y008535D01*
X038424Y008488D01*
X038369Y008444D01*
X038311Y008402D01*
X038252Y008365D01*
X038190Y008330D01*
X038126Y008299D01*
X038061Y008272D01*
X037994Y008248D01*
X037926Y008228D01*
X037857Y008212D01*
X037788Y008200D01*
X037717Y008191D01*
X037647Y008187D01*
X037576Y008186D01*
X037505Y008190D01*
X037435Y008197D01*
X037365Y008208D01*
X037296Y008223D01*
X037228Y008242D01*
X037160Y008264D01*
X037095Y008290D01*
X037030Y008320D01*
X036968Y008353D01*
X036908Y008390D01*
X036849Y008430D01*
X036793Y008473D01*
X036739Y008519D01*
X036689Y008569D01*
X036640Y008620D01*
X036595Y008675D01*
X036553Y008732D01*
X036514Y008791D01*
X036479Y008852D01*
X036446Y008915D01*
X036418Y008980D01*
X036393Y009046D01*
X036372Y009114D01*
X036354Y009182D01*
X036341Y009252D01*
X036331Y009322D01*
X036325Y009392D01*
X036323Y009463D01*
X036325Y009534D01*
X036331Y009604D01*
X036341Y009674D01*
X036354Y009744D01*
X036372Y009812D01*
X036393Y009880D01*
X036418Y009946D01*
X036446Y010011D01*
X036479Y010074D01*
X036514Y010135D01*
X036553Y010194D01*
X036595Y010251D01*
X036640Y010306D01*
X036689Y010357D01*
X036739Y010407D01*
X036793Y010453D01*
X036849Y010496D01*
X036908Y010536D01*
X036968Y010573D01*
X037030Y010606D01*
X037095Y010636D01*
X037160Y010662D01*
X037228Y010684D01*
X037296Y010703D01*
X037365Y010718D01*
X037435Y010729D01*
X037505Y010736D01*
X037576Y010740D01*
X037647Y010739D01*
X037717Y010735D01*
X037788Y010726D01*
X037857Y010714D01*
X037926Y010698D01*
X037994Y010678D01*
X038061Y010654D01*
X038126Y010627D01*
X038190Y010596D01*
X038252Y010561D01*
X038311Y010524D01*
X038369Y010482D01*
X038424Y010438D01*
X038477Y010391D01*
X038527Y010341D01*
X038574Y010288D01*
X038619Y010233D01*
X038611Y010228D01*
X038567Y010283D01*
X038519Y010336D01*
X038469Y010386D01*
X038416Y010434D01*
X038360Y010478D01*
X038302Y010519D01*
X038242Y010556D01*
X038180Y010591D01*
X038116Y010621D01*
X038050Y010648D01*
X037983Y010672D01*
X037915Y010691D01*
X037845Y010707D01*
X037775Y010719D01*
X037705Y010727D01*
X037634Y010731D01*
X037563Y010730D01*
X037492Y010726D01*
X037421Y010718D01*
X037351Y010706D01*
X037282Y010690D01*
X037214Y010671D01*
X037146Y010647D01*
X037081Y010620D01*
X037017Y010589D01*
X036955Y010555D01*
X036895Y010517D01*
X036837Y010475D01*
X036781Y010431D01*
X036728Y010384D01*
X036678Y010333D01*
X036631Y010280D01*
X036586Y010225D01*
X036545Y010167D01*
X036508Y010107D01*
X036473Y010044D01*
X036442Y009980D01*
X036415Y009915D01*
X036392Y009848D01*
X036372Y009779D01*
X036356Y009710D01*
X036344Y009640D01*
X036336Y009569D01*
X036332Y009499D01*
X036332Y009427D01*
X036336Y009357D01*
X036344Y009286D01*
X036356Y009216D01*
X036372Y009147D01*
X036392Y009078D01*
X036415Y009011D01*
X036442Y008946D01*
X036473Y008882D01*
X036508Y008819D01*
X036545Y008759D01*
X036586Y008701D01*
X036631Y008646D01*
X036678Y008593D01*
X036728Y008542D01*
X036781Y008495D01*
X036837Y008451D01*
X036895Y008409D01*
X036955Y008371D01*
X037017Y008337D01*
X037081Y008306D01*
X037146Y008279D01*
X037214Y008255D01*
X037282Y008236D01*
X037351Y008220D01*
X037421Y008208D01*
X037492Y008200D01*
X037563Y008196D01*
X037634Y008195D01*
X037705Y008199D01*
X037775Y008207D01*
X037845Y008219D01*
X037915Y008235D01*
X037983Y008254D01*
X038050Y008278D01*
X038116Y008305D01*
X038180Y008335D01*
X038242Y008370D01*
X038302Y008407D01*
X038360Y008448D01*
X038416Y008492D01*
X038469Y008540D01*
X038519Y008590D01*
X038567Y008643D01*
X038611Y008698D01*
X038604Y008704D01*
X038560Y008649D01*
X038513Y008596D01*
X038463Y008546D01*
X038410Y008499D01*
X038355Y008455D01*
X038297Y008415D01*
X038238Y008377D01*
X038176Y008343D01*
X038112Y008313D01*
X038047Y008286D01*
X037980Y008263D01*
X037912Y008243D01*
X037844Y008228D01*
X037774Y008216D01*
X037704Y008208D01*
X037633Y008204D01*
X037563Y008205D01*
X037492Y008209D01*
X037422Y008217D01*
X037353Y008229D01*
X037284Y008244D01*
X037216Y008264D01*
X037150Y008287D01*
X037085Y008314D01*
X037021Y008345D01*
X036959Y008379D01*
X036900Y008417D01*
X036842Y008458D01*
X036787Y008502D01*
X036734Y008549D01*
X036685Y008599D01*
X036638Y008651D01*
X036594Y008707D01*
X036553Y008764D01*
X036515Y008824D01*
X036481Y008886D01*
X036451Y008949D01*
X036424Y009014D01*
X036400Y009081D01*
X036381Y009149D01*
X036365Y009218D01*
X036353Y009287D01*
X036345Y009357D01*
X036341Y009428D01*
X036341Y009498D01*
X036345Y009569D01*
X036353Y009639D01*
X036365Y009708D01*
X036381Y009777D01*
X036400Y009845D01*
X036424Y009912D01*
X036451Y009977D01*
X036481Y010040D01*
X036515Y010102D01*
X036553Y010162D01*
X036594Y010219D01*
X036638Y010275D01*
X036685Y010327D01*
X036734Y010377D01*
X036787Y010424D01*
X036842Y010468D01*
X036900Y010509D01*
X036959Y010547D01*
X037021Y010581D01*
X037085Y010612D01*
X037150Y010639D01*
X037216Y010662D01*
X037284Y010682D01*
X037353Y010697D01*
X037422Y010709D01*
X037492Y010717D01*
X037563Y010721D01*
X037633Y010722D01*
X037704Y010718D01*
X037774Y010710D01*
X037844Y010698D01*
X037912Y010683D01*
X037980Y010663D01*
X038047Y010640D01*
X038112Y010613D01*
X038176Y010583D01*
X038238Y010549D01*
X038297Y010511D01*
X038355Y010471D01*
X038410Y010427D01*
X038463Y010380D01*
X038513Y010330D01*
X038560Y010277D01*
X038604Y010222D01*
X038597Y010217D01*
X038553Y010272D01*
X038506Y010324D01*
X038457Y010373D01*
X038404Y010420D01*
X038350Y010463D01*
X038292Y010504D01*
X038233Y010541D01*
X038172Y010575D01*
X038108Y010605D01*
X038044Y010632D01*
X037977Y010655D01*
X037910Y010674D01*
X037842Y010689D01*
X037773Y010701D01*
X037703Y010709D01*
X037633Y010713D01*
X037563Y010712D01*
X037493Y010708D01*
X037424Y010700D01*
X037355Y010689D01*
X037286Y010673D01*
X037219Y010654D01*
X037153Y010630D01*
X037088Y010603D01*
X037025Y010573D01*
X036964Y010539D01*
X036905Y010502D01*
X036847Y010461D01*
X036793Y010417D01*
X036741Y010371D01*
X036691Y010321D01*
X036644Y010269D01*
X036601Y010214D01*
X036560Y010157D01*
X036523Y010098D01*
X036489Y010036D01*
X036459Y009973D01*
X036432Y009908D01*
X036409Y009842D01*
X036390Y009775D01*
X036374Y009707D01*
X036362Y009638D01*
X036354Y009568D01*
X036350Y009498D01*
X036350Y009428D01*
X036354Y009358D01*
X036362Y009288D01*
X036374Y009219D01*
X036390Y009151D01*
X036409Y009084D01*
X036432Y009018D01*
X036459Y008953D01*
X036489Y008890D01*
X036523Y008828D01*
X036560Y008769D01*
X036601Y008712D01*
X036644Y008657D01*
X036691Y008605D01*
X036741Y008555D01*
X036793Y008509D01*
X036847Y008465D01*
X036905Y008424D01*
X036964Y008387D01*
X037025Y008353D01*
X037088Y008323D01*
X037153Y008296D01*
X037219Y008272D01*
X037286Y008253D01*
X037355Y008237D01*
X037424Y008226D01*
X037493Y008218D01*
X037563Y008214D01*
X037633Y008213D01*
X037703Y008217D01*
X037773Y008225D01*
X037842Y008237D01*
X037910Y008252D01*
X037977Y008271D01*
X038044Y008294D01*
X038108Y008321D01*
X038172Y008351D01*
X038233Y008385D01*
X038292Y008422D01*
X038350Y008463D01*
X038404Y008506D01*
X038457Y008553D01*
X038506Y008602D01*
X038553Y008654D01*
X038597Y008709D01*
X038590Y008714D01*
X038546Y008660D01*
X038500Y008608D01*
X038451Y008559D01*
X038399Y008513D01*
X038344Y008470D01*
X038287Y008430D01*
X038228Y008393D01*
X038167Y008359D01*
X038105Y008329D01*
X038040Y008303D01*
X037975Y008280D01*
X037908Y008261D01*
X037840Y008245D01*
X037771Y008234D01*
X037702Y008226D01*
X037633Y008222D01*
X037563Y008223D01*
X037494Y008227D01*
X037425Y008234D01*
X037356Y008246D01*
X037289Y008262D01*
X037222Y008281D01*
X037156Y008304D01*
X037092Y008331D01*
X037029Y008361D01*
X036968Y008395D01*
X036910Y008432D01*
X036853Y008472D01*
X036799Y008515D01*
X036747Y008562D01*
X036698Y008611D01*
X036651Y008663D01*
X036608Y008717D01*
X036568Y008774D01*
X036531Y008833D01*
X036497Y008894D01*
X036467Y008957D01*
X036440Y009021D01*
X036417Y009086D01*
X036398Y009153D01*
X036383Y009221D01*
X036371Y009290D01*
X036363Y009359D01*
X036359Y009428D01*
X036359Y009498D01*
X036363Y009567D01*
X036371Y009636D01*
X036383Y009705D01*
X036398Y009773D01*
X036417Y009840D01*
X036440Y009905D01*
X036467Y009969D01*
X036497Y010032D01*
X036531Y010093D01*
X036568Y010152D01*
X036608Y010209D01*
X036651Y010263D01*
X036698Y010315D01*
X036747Y010364D01*
X036799Y010411D01*
X036853Y010454D01*
X036910Y010494D01*
X036968Y010531D01*
X037029Y010565D01*
X037092Y010595D01*
X037156Y010622D01*
X037222Y010645D01*
X037289Y010664D01*
X037356Y010680D01*
X037425Y010692D01*
X037494Y010699D01*
X037563Y010703D01*
X037633Y010704D01*
X037702Y010700D01*
X037771Y010692D01*
X037840Y010681D01*
X037908Y010665D01*
X037975Y010646D01*
X038040Y010623D01*
X038105Y010597D01*
X038167Y010567D01*
X038228Y010533D01*
X038287Y010496D01*
X038344Y010456D01*
X038399Y010413D01*
X038451Y010367D01*
X038500Y010318D01*
X038546Y010266D01*
X038590Y010212D01*
X038583Y010206D01*
X038539Y010260D01*
X038493Y010311D01*
X038444Y010360D01*
X038393Y010406D01*
X038339Y010449D01*
X038282Y010489D01*
X038224Y010525D01*
X038163Y010559D01*
X038101Y010589D01*
X038037Y010615D01*
X037972Y010637D01*
X037906Y010656D01*
X037838Y010672D01*
X037770Y010683D01*
X037702Y010691D01*
X037633Y010695D01*
X037564Y010694D01*
X037495Y010690D01*
X037426Y010683D01*
X037358Y010671D01*
X037291Y010656D01*
X037224Y010636D01*
X037159Y010613D01*
X037096Y010587D01*
X037033Y010557D01*
X036973Y010524D01*
X036915Y010487D01*
X036858Y010447D01*
X036804Y010404D01*
X036753Y010358D01*
X036704Y010309D01*
X036658Y010257D01*
X036615Y010203D01*
X036575Y010147D01*
X036539Y010088D01*
X036505Y010028D01*
X036475Y009966D01*
X036449Y009902D01*
X036426Y009837D01*
X036407Y009770D01*
X036392Y009703D01*
X036380Y009635D01*
X036372Y009566D01*
X036368Y009498D01*
X036368Y009428D01*
X036372Y009360D01*
X036380Y009291D01*
X036392Y009223D01*
X036407Y009156D01*
X036426Y009089D01*
X036449Y009024D01*
X036475Y008960D01*
X036505Y008898D01*
X036539Y008838D01*
X036575Y008779D01*
X036615Y008723D01*
X036658Y008669D01*
X036704Y008617D01*
X036753Y008568D01*
X036804Y008522D01*
X036858Y008479D01*
X036915Y008439D01*
X036973Y008402D01*
X037033Y008369D01*
X037096Y008339D01*
X037159Y008313D01*
X037224Y008290D01*
X037291Y008270D01*
X037358Y008255D01*
X037426Y008243D01*
X037495Y008236D01*
X037564Y008232D01*
X037633Y008231D01*
X037702Y008235D01*
X037770Y008243D01*
X037838Y008254D01*
X037906Y008270D01*
X037972Y008289D01*
X038037Y008311D01*
X038101Y008337D01*
X038163Y008367D01*
X038224Y008401D01*
X038282Y008437D01*
X038339Y008477D01*
X038393Y008520D01*
X038444Y008566D01*
X038493Y008615D01*
X038539Y008666D01*
X038583Y008720D01*
X038575Y008725D01*
X038532Y008671D01*
X038486Y008620D01*
X038436Y008571D01*
X038385Y008525D01*
X038330Y008482D01*
X038273Y008442D01*
X038215Y008406D01*
X038154Y008372D01*
X038091Y008343D01*
X038027Y008317D01*
X037961Y008295D01*
X037894Y008276D01*
X037827Y008261D01*
X037758Y008250D01*
X037689Y008243D01*
X037620Y008240D01*
X037551Y008241D01*
X037481Y008246D01*
X037413Y008254D01*
X037345Y008267D01*
X037277Y008283D01*
X037211Y008304D01*
X037146Y008327D01*
X037082Y008355D01*
X037020Y008386D01*
X036960Y008421D01*
X036902Y008459D01*
X036846Y008500D01*
X036793Y008544D01*
X036742Y008591D01*
X036694Y008641D01*
X036649Y008694D01*
X036607Y008749D01*
X036568Y008806D01*
X036533Y008866D01*
X036501Y008927D01*
X036472Y008990D01*
X036447Y009055D01*
X036426Y009121D01*
X036408Y009188D01*
X036395Y009256D01*
X036385Y009325D01*
X036379Y009394D01*
X036377Y009463D01*
X036379Y009532D01*
X036385Y009601D01*
X036395Y009670D01*
X036408Y009738D01*
X036426Y009805D01*
X036447Y009871D01*
X036472Y009936D01*
X036501Y009999D01*
X036533Y010060D01*
X036568Y010120D01*
X036607Y010177D01*
X036649Y010232D01*
X036694Y010285D01*
X036742Y010335D01*
X036793Y010382D01*
X036846Y010426D01*
X036902Y010467D01*
X036960Y010505D01*
X037020Y010540D01*
X037082Y010571D01*
X037146Y010599D01*
X037211Y010622D01*
X037277Y010643D01*
X037345Y010659D01*
X037413Y010672D01*
X037481Y010680D01*
X037551Y010685D01*
X037620Y010686D01*
X037689Y010683D01*
X037758Y010676D01*
X037827Y010665D01*
X037894Y010650D01*
X037961Y010631D01*
X038027Y010609D01*
X038091Y010583D01*
X038154Y010554D01*
X038215Y010520D01*
X038273Y010484D01*
X038330Y010444D01*
X038385Y010401D01*
X038436Y010355D01*
X038486Y010306D01*
X038532Y010255D01*
X038575Y010201D01*
X038568Y010195D01*
X038525Y010249D01*
X038479Y010300D01*
X038430Y010349D01*
X038379Y010394D01*
X038325Y010437D01*
X038268Y010476D01*
X038210Y010513D01*
X038150Y010546D01*
X038087Y010575D01*
X038024Y010601D01*
X037958Y010623D01*
X037892Y010641D01*
X037825Y010656D01*
X037757Y010667D01*
X037688Y010674D01*
X037620Y010677D01*
X037551Y010676D01*
X037482Y010671D01*
X037414Y010663D01*
X037346Y010650D01*
X037280Y010634D01*
X037214Y010614D01*
X037149Y010590D01*
X037086Y010563D01*
X037025Y010532D01*
X036965Y010498D01*
X036907Y010460D01*
X036852Y010419D01*
X036799Y010375D01*
X036749Y010328D01*
X036701Y010279D01*
X036656Y010227D01*
X036614Y010172D01*
X036576Y010115D01*
X036541Y010056D01*
X036509Y009995D01*
X036480Y009932D01*
X036456Y009868D01*
X036434Y009802D01*
X036417Y009736D01*
X036404Y009668D01*
X036394Y009600D01*
X036388Y009532D01*
X036386Y009463D01*
X036388Y009394D01*
X036394Y009326D01*
X036404Y009258D01*
X036417Y009190D01*
X036434Y009124D01*
X036456Y009058D01*
X036480Y008994D01*
X036509Y008931D01*
X036541Y008870D01*
X036576Y008811D01*
X036614Y008754D01*
X036656Y008699D01*
X036701Y008647D01*
X036749Y008598D01*
X036799Y008551D01*
X036852Y008507D01*
X036907Y008466D01*
X036965Y008428D01*
X037025Y008394D01*
X037086Y008363D01*
X037149Y008336D01*
X037214Y008312D01*
X037280Y008292D01*
X037346Y008276D01*
X037414Y008263D01*
X037482Y008255D01*
X037551Y008250D01*
X037620Y008249D01*
X037688Y008252D01*
X037757Y008259D01*
X037825Y008270D01*
X037892Y008285D01*
X037958Y008303D01*
X038024Y008325D01*
X038087Y008351D01*
X038150Y008380D01*
X038210Y008413D01*
X038268Y008450D01*
X038325Y008489D01*
X038379Y008532D01*
X038430Y008577D01*
X038479Y008626D01*
X038525Y008677D01*
X038568Y008731D01*
X036120Y005171D02*
X036070Y005171D01*
X036045Y005146D01*
X036045Y005071D01*
X036045Y005121D02*
X035995Y005171D01*
X035995Y005071D02*
X036145Y005071D01*
X036145Y005146D01*
X036120Y005171D01*
X036120Y005023D02*
X036020Y004923D01*
X035995Y004948D01*
X035995Y004998D01*
X036020Y005023D01*
X036120Y005023D01*
X036145Y004998D01*
X036145Y004948D01*
X036120Y004923D01*
X036020Y004923D01*
X035270Y004898D02*
X035245Y004923D01*
X035220Y004923D01*
X035195Y004898D01*
X035170Y004923D01*
X035145Y004923D01*
X035120Y004898D01*
X035120Y004848D01*
X035145Y004823D01*
X035120Y004776D02*
X035170Y004726D01*
X035170Y004751D02*
X035170Y004676D01*
X035120Y004676D02*
X035270Y004676D01*
X035270Y004751D01*
X035245Y004776D01*
X035195Y004776D01*
X035170Y004751D01*
X035245Y004823D02*
X035270Y004848D01*
X035270Y004898D01*
X035195Y004898D02*
X035195Y004873D01*
X035145Y004971D02*
X035120Y004996D01*
X035120Y005046D01*
X035145Y005071D01*
X035170Y005071D01*
X035195Y005046D01*
X035195Y005021D01*
X035195Y005046D02*
X035220Y005071D01*
X035245Y005071D01*
X035270Y005046D01*
X035270Y004996D01*
X035245Y004971D01*
D13*
X035364Y004931D02*
X035364Y004695D01*
X035836Y004695D02*
X035836Y004931D01*
X036600Y009463D02*
X036602Y009526D01*
X036608Y009588D01*
X036618Y009650D01*
X036631Y009712D01*
X036649Y009772D01*
X036670Y009831D01*
X036695Y009889D01*
X036724Y009945D01*
X036756Y009999D01*
X036791Y010051D01*
X036829Y010100D01*
X036871Y010148D01*
X036915Y010192D01*
X036963Y010234D01*
X037012Y010272D01*
X037064Y010307D01*
X037118Y010339D01*
X037174Y010368D01*
X037232Y010393D01*
X037291Y010414D01*
X037351Y010432D01*
X037413Y010445D01*
X037475Y010455D01*
X037537Y010461D01*
X037600Y010463D01*
X037663Y010461D01*
X037725Y010455D01*
X037787Y010445D01*
X037849Y010432D01*
X037909Y010414D01*
X037968Y010393D01*
X038026Y010368D01*
X038082Y010339D01*
X038136Y010307D01*
X038188Y010272D01*
X038237Y010234D01*
X038285Y010192D01*
X038329Y010148D01*
X038371Y010100D01*
X038409Y010051D01*
X038444Y009999D01*
X038476Y009945D01*
X038505Y009889D01*
X038530Y009831D01*
X038551Y009772D01*
X038569Y009712D01*
X038582Y009650D01*
X038592Y009588D01*
X038598Y009526D01*
X038600Y009463D01*
X038598Y009400D01*
X038592Y009338D01*
X038582Y009276D01*
X038569Y009214D01*
X038551Y009154D01*
X038530Y009095D01*
X038505Y009037D01*
X038476Y008981D01*
X038444Y008927D01*
X038409Y008875D01*
X038371Y008826D01*
X038329Y008778D01*
X038285Y008734D01*
X038237Y008692D01*
X038188Y008654D01*
X038136Y008619D01*
X038082Y008587D01*
X038026Y008558D01*
X037968Y008533D01*
X037909Y008512D01*
X037849Y008494D01*
X037787Y008481D01*
X037725Y008471D01*
X037663Y008465D01*
X037600Y008463D01*
X037537Y008465D01*
X037475Y008471D01*
X037413Y008481D01*
X037351Y008494D01*
X037291Y008512D01*
X037232Y008533D01*
X037174Y008558D01*
X037118Y008587D01*
X037064Y008619D01*
X037012Y008654D01*
X036963Y008692D01*
X036915Y008734D01*
X036871Y008778D01*
X036829Y008826D01*
X036791Y008875D01*
X036756Y008927D01*
X036724Y008981D01*
X036695Y009037D01*
X036670Y009095D01*
X036649Y009154D01*
X036631Y009214D01*
X036618Y009276D01*
X036608Y009338D01*
X036602Y009400D01*
X036600Y009463D01*
X035836Y011695D02*
X035836Y011931D01*
X035364Y011931D02*
X035364Y011695D01*
X036600Y013463D02*
X036602Y013526D01*
X036608Y013588D01*
X036618Y013650D01*
X036631Y013712D01*
X036649Y013772D01*
X036670Y013831D01*
X036695Y013889D01*
X036724Y013945D01*
X036756Y013999D01*
X036791Y014051D01*
X036829Y014100D01*
X036871Y014148D01*
X036915Y014192D01*
X036963Y014234D01*
X037012Y014272D01*
X037064Y014307D01*
X037118Y014339D01*
X037174Y014368D01*
X037232Y014393D01*
X037291Y014414D01*
X037351Y014432D01*
X037413Y014445D01*
X037475Y014455D01*
X037537Y014461D01*
X037600Y014463D01*
X037663Y014461D01*
X037725Y014455D01*
X037787Y014445D01*
X037849Y014432D01*
X037909Y014414D01*
X037968Y014393D01*
X038026Y014368D01*
X038082Y014339D01*
X038136Y014307D01*
X038188Y014272D01*
X038237Y014234D01*
X038285Y014192D01*
X038329Y014148D01*
X038371Y014100D01*
X038409Y014051D01*
X038444Y013999D01*
X038476Y013945D01*
X038505Y013889D01*
X038530Y013831D01*
X038551Y013772D01*
X038569Y013712D01*
X038582Y013650D01*
X038592Y013588D01*
X038598Y013526D01*
X038600Y013463D01*
X038598Y013400D01*
X038592Y013338D01*
X038582Y013276D01*
X038569Y013214D01*
X038551Y013154D01*
X038530Y013095D01*
X038505Y013037D01*
X038476Y012981D01*
X038444Y012927D01*
X038409Y012875D01*
X038371Y012826D01*
X038329Y012778D01*
X038285Y012734D01*
X038237Y012692D01*
X038188Y012654D01*
X038136Y012619D01*
X038082Y012587D01*
X038026Y012558D01*
X037968Y012533D01*
X037909Y012512D01*
X037849Y012494D01*
X037787Y012481D01*
X037725Y012471D01*
X037663Y012465D01*
X037600Y012463D01*
X037537Y012465D01*
X037475Y012471D01*
X037413Y012481D01*
X037351Y012494D01*
X037291Y012512D01*
X037232Y012533D01*
X037174Y012558D01*
X037118Y012587D01*
X037064Y012619D01*
X037012Y012654D01*
X036963Y012692D01*
X036915Y012734D01*
X036871Y012778D01*
X036829Y012826D01*
X036791Y012875D01*
X036756Y012927D01*
X036724Y012981D01*
X036695Y013037D01*
X036670Y013095D01*
X036649Y013154D01*
X036631Y013214D01*
X036618Y013276D01*
X036608Y013338D01*
X036602Y013400D01*
X036600Y013463D01*
X004836Y013845D02*
X004836Y014081D01*
X004364Y014081D02*
X004364Y013845D01*
X003836Y013845D02*
X003836Y014081D01*
X003364Y014081D02*
X003364Y013845D01*
X002836Y013845D02*
X002836Y014081D01*
X002364Y014081D02*
X002364Y013845D01*
X001836Y013845D02*
X001836Y014081D01*
X001364Y014081D02*
X001364Y013845D01*
D14*
X001331Y013123D02*
X001380Y013075D01*
X001331Y013123D02*
X001235Y013123D01*
X001186Y013075D01*
X001186Y013026D01*
X001380Y012833D01*
X001186Y012833D01*
X001481Y012881D02*
X001481Y012930D01*
X001529Y012978D01*
X001578Y012978D01*
X001529Y012978D02*
X001481Y013026D01*
X001481Y013075D01*
X001529Y013123D01*
X001626Y013123D01*
X001674Y013075D01*
X001775Y013075D02*
X001775Y012978D01*
X001824Y012930D01*
X001969Y012930D01*
X001872Y012930D02*
X001775Y012833D01*
X001674Y012881D02*
X001626Y012833D01*
X001529Y012833D01*
X001481Y012881D01*
X001969Y012833D02*
X001969Y013123D01*
X001824Y013123D01*
X001775Y013075D01*
X002333Y013123D02*
X002333Y012833D01*
X002430Y012833D02*
X002236Y012833D01*
X002430Y013026D02*
X002333Y013123D01*
X002531Y013075D02*
X002531Y013026D01*
X002579Y012978D01*
X002531Y012930D01*
X002531Y012881D01*
X002579Y012833D01*
X002676Y012833D01*
X002724Y012881D01*
X002825Y012833D02*
X002922Y012930D01*
X002874Y012930D02*
X003019Y012930D01*
X003019Y012833D02*
X003019Y013123D01*
X002874Y013123D01*
X002825Y013075D01*
X002825Y012978D01*
X002874Y012930D01*
X002724Y013075D02*
X002676Y013123D01*
X002579Y013123D01*
X002531Y013075D01*
X002579Y012978D02*
X002628Y012978D01*
X003386Y013075D02*
X003386Y012881D01*
X003435Y012833D01*
X003531Y012833D01*
X003580Y012881D01*
X003386Y013075D01*
X003435Y013123D01*
X003531Y013123D01*
X003580Y013075D01*
X003580Y012881D01*
X003681Y012881D02*
X003729Y012833D01*
X003826Y012833D01*
X003874Y012881D01*
X003975Y012833D02*
X004072Y012930D01*
X004024Y012930D02*
X004169Y012930D01*
X004169Y012833D02*
X004169Y013123D01*
X004024Y013123D01*
X003975Y013075D01*
X003975Y012978D01*
X004024Y012930D01*
X003874Y013075D02*
X003826Y013123D01*
X003729Y013123D01*
X003681Y013075D01*
X003681Y013026D01*
X003729Y012978D01*
X003681Y012930D01*
X003681Y012881D01*
X003729Y012978D02*
X003778Y012978D01*
X004436Y012833D02*
X004630Y012833D01*
X004533Y012833D02*
X004533Y013123D01*
X004630Y013026D01*
X004731Y012833D02*
X004924Y012833D01*
X004828Y012833D02*
X004828Y013123D01*
X004924Y013026D01*
X005025Y012978D02*
X005074Y012930D01*
X005219Y012930D01*
X005122Y012930D02*
X005025Y012833D01*
X005025Y012978D02*
X005025Y013075D01*
X005074Y013123D01*
X005219Y013123D01*
X005219Y012833D01*
X038825Y012828D02*
X038825Y012973D01*
X038873Y013021D01*
X039067Y013021D01*
X039115Y012973D01*
X039115Y012828D01*
X038825Y012828D01*
X038970Y013122D02*
X038970Y013316D01*
X038825Y013417D02*
X038825Y013514D01*
X038825Y013466D02*
X039115Y013466D01*
X039115Y013514D02*
X039115Y013417D01*
X039115Y013614D02*
X039115Y013759D01*
X039067Y013807D01*
X038970Y013807D01*
X038922Y013759D01*
X038922Y013614D01*
X038922Y013710D02*
X038825Y013807D01*
X038970Y013908D02*
X038970Y014102D01*
X038825Y014053D02*
X039115Y014053D01*
X038970Y013908D01*
X038825Y013614D02*
X039115Y013614D01*
X039067Y010102D02*
X039018Y010102D01*
X038970Y010053D01*
X038922Y010102D01*
X038873Y010102D01*
X038825Y010053D01*
X038825Y009957D01*
X038873Y009908D01*
X038825Y009807D02*
X038922Y009710D01*
X038922Y009759D02*
X038922Y009614D01*
X038825Y009614D02*
X039115Y009614D01*
X039115Y009759D01*
X039067Y009807D01*
X038970Y009807D01*
X038922Y009759D01*
X039067Y009908D02*
X039115Y009957D01*
X039115Y010053D01*
X039067Y010102D01*
X038970Y010053D02*
X038970Y010005D01*
X038825Y009514D02*
X038825Y009417D01*
X038825Y009466D02*
X039115Y009466D01*
X039115Y009514D02*
X039115Y009417D01*
X038970Y009316D02*
X038970Y009122D01*
X038873Y009021D02*
X039067Y009021D01*
X039115Y008973D01*
X039115Y008828D01*
X038825Y008828D01*
X038825Y008973D01*
X038873Y009021D01*
D15*
X038600Y004113D02*
X038150Y004113D01*
X038150Y004013D01*
X038380Y003983D02*
X036820Y003983D01*
X036620Y003983D01*
X036620Y001253D01*
X038580Y001253D01*
X038580Y003983D01*
X038380Y003983D01*
X037600Y004013D02*
X037600Y004113D01*
X037050Y004113D02*
X037050Y004013D01*
X037050Y004113D02*
X036600Y004113D01*
X038915Y003570D02*
X038915Y003350D01*
X039135Y003570D01*
X039190Y003570D01*
X039245Y003515D01*
X039245Y003405D01*
X039190Y003350D01*
X039245Y003201D02*
X038970Y003201D01*
X038915Y003146D01*
X038915Y003036D01*
X038970Y002981D01*
X039245Y002981D01*
X038380Y001993D02*
X038373Y001942D01*
X038363Y001892D01*
X038350Y001843D01*
X038332Y001795D01*
X038312Y001748D01*
X038288Y001702D01*
X038261Y001659D01*
X038231Y001618D01*
X038198Y001578D01*
X038162Y001542D01*
X038124Y001508D01*
X038084Y001476D01*
X038041Y001448D01*
X037997Y001423D01*
X037950Y001401D01*
X037903Y001382D01*
X037854Y001367D01*
X037804Y001355D01*
X037753Y001347D01*
X037702Y001343D01*
X037651Y001342D01*
X037600Y001345D01*
X037549Y001342D01*
X037498Y001343D01*
X037447Y001347D01*
X037396Y001355D01*
X037346Y001367D01*
X037297Y001382D01*
X037250Y001401D01*
X037203Y001423D01*
X037159Y001448D01*
X037116Y001476D01*
X037076Y001508D01*
X037038Y001542D01*
X037002Y001578D01*
X036969Y001618D01*
X036939Y001659D01*
X036912Y001702D01*
X036888Y001748D01*
X036868Y001795D01*
X036850Y001843D01*
X036837Y001892D01*
X036827Y001942D01*
X036820Y001993D01*
D16*
X036813Y003085D02*
X036813Y003990D01*
X038387Y003951D02*
X038387Y003085D01*
M02*
